<ttFont>
    <TTGlyph name="A" xMin="32" yMin="0" xMax="1247" yMax="1456">
      <contour>
        <pt x="973" y="406" on="1"/>
        <pt x="306" y="406" on="1"/>
        <pt x="156" y="0" on="1"/>
        <pt x="32" y="0" on="1"/>
        <pt x="585" y="1456" on="1"/>
        <pt x="698" y="1456" on="1"/>
        <pt x="1247" y="0" on="1"/>
        <pt x="1123" y="0" on="1"/>
      </contour>
      <contour>
        <pt x="346" y="513" on="1"/>
        <pt x="934" y="513" on="1"/>
        <pt x="644" y="1301" on="1"/>
        <pt x="638" y="1301" on="1"/>
      </contour>
    </TTGlyph>
    <TTGlyph name="A.smcp" xMin="53" yMin="0" xMax="1115" yMax="1165">
      <contour>
        <pt x="871" y="304" on="1"/>
        <pt x="298" y="304" on="1"/>
        <pt x="178" y="0" on="1"/>
        <pt x="53" y="0" on="1"/>
        <pt x="526" y="1165" on="1"/>
        <pt x="644" y="1165" on="1"/>
        <pt x="1115" y="0" on="1"/>
        <pt x="991" y="0" on="1"/>
      </contour>
      <contour>
        <pt x="338" y="405" on="1"/>
        <pt x="831" y="405" on="1"/>
        <pt x="587" y="1019" on="1"/>
        <pt x="581" y="1019" on="1"/>
      </contour>
    </TTGlyph>
    <TTGlyph name="AE" xMin="17" yMin="0" xMax="1823" yMax="1456">
      <contour>
        <pt x="1823" y="0" on="1"/>
        <pt x="1006" y="0" on="1"/>
        <pt x="989" y="389" on="1"/>
        <pt x="392" y="389" on="1"/>
        <pt x="163" y="0" on="1"/>
        <pt x="17" y="0" on="1"/>
        <pt x="898" y="1456" on="1"/>
        <pt x="1762" y="1456" on="1"/>
        <pt x="1762" y="1354" on="1"/>
        <pt x="1068" y="1354" on="1"/>
        <pt x="1091" y="809" on="1"/>
        <pt x="1680" y="809" on="1"/>
        <pt x="1680" y="707" on="1"/>
        <pt x="1095" y="707" on="1"/>
        <pt x="1121" y="101" on="1"/>
        <pt x="1823" y="101" on="1"/>
      </contour>
      <contour>
        <pt x="459" y="502" on="1"/>
        <pt x="985" y="502" on="1"/>
        <pt x="950" y="1341" on="1"/>
        <pt x="944" y="1342" on="1"/>
        <pt x="929" y="1298" on="1"/>
      </contour>
    </TTGlyph>
    <TTGlyph name="AEacute" xMin="17" yMin="0" xMax="1823" yMax="1823">
      <component glyphName="AE" x="0" y="0" flags="0x204"/>
      <component glyphName="acute" x="763" y="345" flags="0x4"/>
    </TTGlyph>
    <TTGlyph name="Aacute" xMin="32" yMin="0" xMax="1247" yMax="1823">
      <component glyphName="A" x="0" y="0" flags="0x204"/>
      <component glyphName="acute" x="467" y="345" flags="0x4"/>
    </TTGlyph>
    <TTGlyph name="Aacute.smcp" xMin="53" yMin="0" xMax="1115" yMax="1500">
      <component glyphName="A.smcp" x="0" y="0" flags="0x204"/>
      <component glyphName="acute" x="389" y="22" flags="0x4"/>
    </TTGlyph>
    <TTGlyph name="Abreve" xMin="32" yMin="0" xMax="1247" yMax="1854">
      <component glyphName="A" x="0" y="0" flags="0x204"/>
      <component glyphName="breve" x="231" y="398" flags="0x4"/>
    </TTGlyph>
    <TTGlyph name="Abreve.smcp" xMin="53" yMin="0" xMax="1115" yMax="1531">
      <component glyphName="A.smcp" x="0" y="0" flags="0x204"/>
      <component glyphName="breve" x="153" y="75" flags="0x4"/>
    </TTGlyph>
    <TTGlyph name="Acircumflex" xMin="32" yMin="0" xMax="1247" yMax="1843">
      <component glyphName="A" x="0" y="0" flags="0x204"/>
      <component glyphName="circumflex" x="222" y="349" flags="0x4"/>
    </TTGlyph>
    <TTGlyph name="Acircumflex.smcp" xMin="53" yMin="0" xMax="1115" yMax="1520">
      <component glyphName="A.smcp" x="0" y="0" flags="0x204"/>
      <component glyphName="circumflex" x="144" y="26" flags="0x4"/>
    </TTGlyph>
    <TTGlyph name="Adieresis" xMin="32" yMin="0" xMax="1247" yMax="1798">
      <component glyphName="A" x="0" y="0" flags="0x204"/>
      <component glyphName="dieresis" x="179" y="342" flags="0x4"/>
    </TTGlyph>
    <TTGlyph name="Adieresis.smcp" xMin="53" yMin="0" xMax="1115" yMax="1475">
      <component glyphName="A.smcp" x="0" y="0" flags="0x204"/>
      <component glyphName="dieresis" x="101" y="19" flags="0x4"/>
    </TTGlyph>
    <TTGlyph name="Agrave" xMin="32" yMin="0" xMax="1247" yMax="1827">
      <component glyphName="A" x="0" y="0" flags="0x204"/>
      <component glyphName="grave" x="277" y="351" flags="0x4"/>
    </TTGlyph>
    <TTGlyph name="Agrave.smcp" xMin="53" yMin="0" xMax="1115" yMax="1504">
      <component glyphName="A.smcp" x="0" y="0" flags="0x204"/>
      <component glyphName="grave" x="199" y="28" flags="0x4"/>
    </TTGlyph>
    <TTGlyph name="Alpha" xMin="32" yMin="0" xMax="1247" yMax="1456">
      <component glyphName="A" x="0" y="0" flags="0x204"/>
    </TTGlyph>
    <TTGlyph name="Alphatonos" xMin="32" yMin="0" xMax="1247" yMax="1617">
      <component glyphName="A" x="0" y="0" flags="0x204"/>
      <component glyphName="tonos" x="5" y="0" flags="0x4"/>
    </TTGlyph>
    <TTGlyph name="Amacron" xMin="32" yMin="0" xMax="1247" yMax="1786">
      <component glyphName="A" x="0" y="0" flags="0x204"/>
      <component glyphName="macron" x="215" y="330" flags="0x4"/>
    </TTGlyph>
    <TTGlyph name="Amacron.smcp" xMin="53" yMin="0" xMax="1115" yMax="1463">
      <component glyphName="A.smcp" x="0" y="0" flags="0x204"/>
      <component glyphName="macron" x="137" y="7" flags="0x4"/>
    </TTGlyph>
    <TTGlyph name="Aogonek" xMin="32" yMin="-392" xMax="1301" yMax="1456">
      <component glyphName="A" x="0" y="0" flags="0x204"/>
      <component glyphName="ogonek" x="884" y="0" flags="0x4"/>
    </TTGlyph>
    <TTGlyph name="Aogonek.smcp" xMin="53" yMin="-392" xMax="1165" yMax="1165">
      <component glyphName="A.smcp" x="0" y="0" flags="0x204"/>
      <component glyphName="ogonek" x="748" y="0" flags="0x4"/>
    </TTGlyph>
    <TTGlyph name="Aring" xMin="32" yMin="0" xMax="1247" yMax="1896">
      <component glyphName="A" x="0" y="0" flags="0x204"/>
      <component glyphName="ring" x="316" y="406" flags="0x4"/>
    </TTGlyph>
    <TTGlyph name="Aring.smcp" xMin="53" yMin="0" xMax="1115" yMax="1573">
      <component glyphName="A.smcp" x="0" y="0" flags="0x204"/>
      <component glyphName="ring" x="238" y="83" flags="0x4"/>
    </TTGlyph>
    <TTGlyph name="Aringacute" xMin="32" yMin="0" xMax="1247" yMax="2083">
      <component glyphName="A" x="0" y="0" flags="0x204"/>
      <component glyphName="ringacute" x="328" y="392" flags="0x4"/>
    </TTGlyph>
    <TTGlyph name="Aringacute.smcp" xMin="53" yMin="0" xMax="1115" yMax="1760">
      <component glyphName="A.smcp" x="0" y="0" flags="0x204"/>
      <component glyphName="ringacute" x="250" y="69" flags="0x4"/>
    </TTGlyph>
    <TTGlyph name="Atilde" xMin="32" yMin="0" xMax="1247" yMax="1842">
      <component glyphName="A" x="0" y="0" flags="0x204"/>
      <component glyphName="tilde" x="211" y="341" flags="0x4"/>
    </TTGlyph>
    <TTGlyph name="Atilde.smcp" xMin="53" yMin="0" xMax="1115" yMax="1519">
      <component glyphName="A.smcp" x="0" y="0" flags="0x204"/>
      <component glyphName="tilde" x="133" y="18" flags="0x4"/>
    </TTGlyph>
    <TTGlyph name="B" xMin="191" yMin="0" xMax="1159" yMax="1456">
      <contour>
        <pt x="191" y="0" on="1"/>
        <pt x="191" y="1456" on="1"/>
        <pt x="616" y="1456" on="1"/>
        <pt x="843" y="1456" on="0"/>
        <pt x="1096" y="1265" on="0"/>
        <pt x="1096" y="1073" on="1"/>
        <pt x="1096" y="961" on="0"/>
        <pt x="969" y="795" on="0"/>
        <pt x="860" y="763" on="1"/>
        <pt x="993" y="739" on="0"/>
        <pt x="1159" y="537" on="0"/>
        <pt x="1159" y="405" on="1"/>
        <pt x="1159" y="210" on="0"/>
        <pt x="906" y="0" on="0"/>
        <pt x="694" y="0" on="1"/>
      </contour>
      <contour>
        <pt x="310" y="702" on="1"/>
        <pt x="310" y="101" on="1"/>
        <pt x="694" y="101" on="1"/>
        <pt x="855" y="101" on="0"/>
        <pt x="1039" y="260" on="0"/>
        <pt x="1039" y="403" on="1"/>
        <pt x="1039" y="534" on="0"/>
        <pt x="872" y="702" on="0"/>
        <pt x="713" y="702" on="1"/>
      </contour>
      <contour>
        <pt x="310" y="803" on="1"/>
        <pt x="645" y="803" on="1"/>
        <pt x="803" y="803" on="0"/>
        <pt x="976" y="942" on="0"/>
        <pt x="976" y="1077" on="1"/>
        <pt x="976" y="1215" on="0"/>
        <pt x="792" y="1354" on="0"/>
        <pt x="616" y="1354" on="1"/>
        <pt x="310" y="1354" on="1"/>
      </contour>
    </TTGlyph>
    <TTGlyph name="B.smcp" xMin="168" yMin="0" xMax="1009" yMax="1165">
      <contour>
        <pt x="168" y="0" on="1"/>
        <pt x="168" y="1165" on="1"/>
        <pt x="540" y="1165" on="1"/>
        <pt x="742" y="1165" on="0"/>
        <pt x="966" y="1011" on="0"/>
        <pt x="966" y="856" on="1"/>
        <pt x="966" y="765" on="0"/>
        <pt x="864" y="627" on="0"/>
        <pt x="771" y="598" on="1"/>
        <pt x="879" y="577" on="0"/>
        <pt x="1009" y="422" on="0"/>
        <pt x="1009" y="321" on="1"/>
        <pt x="1009" y="164" on="0"/>
        <pt x="795" y="0" on="0"/>
        <pt x="610" y="0" on="1"/>
      </contour>
      <contour>
        <pt x="288" y="543" on="1"/>
        <pt x="288" y="100" on="1"/>
        <pt x="610" y="100" on="1"/>
        <pt x="743" y="100" on="0"/>
        <pt x="889" y="215" on="0"/>
        <pt x="889" y="323" on="1"/>
        <pt x="889" y="420" on="0"/>
        <pt x="748" y="539" on="0"/>
        <pt x="623" y="543" on="1"/>
        <pt x="610" y="543" on="1"/>
      </contour>
      <contour>
        <pt x="288" y="638" on="1"/>
        <pt x="540" y="638" on="1"/>
        <pt x="691" y="638" on="0"/>
        <pt x="847" y="747" on="0"/>
        <pt x="847" y="852" on="1"/>
        <pt x="847" y="959" on="0"/>
        <pt x="695" y="1055" on="0"/>
        <pt x="540" y="1055" on="1"/>
        <pt x="288" y="1055" on="1"/>
      </contour>
    </TTGlyph>
    <TTGlyph name="Beta" xMin="191" yMin="0" xMax="1159" yMax="1456">
      <component glyphName="B" x="0" y="0" flags="0x204"/>
    </TTGlyph>
    <TTGlyph name="C" xMin="132" yMin="-21" xMax="1196" yMax="1477">
      <contour>
        <pt x="1194" y="455" on="1"/>
        <pt x="1196" y="449" on="1"/>
        <pt x="1177" y="230" on="0"/>
        <pt x="903" y="-21" on="0"/>
        <pt x="673" y="-21" on="1"/>
        <pt x="430" y="-21" on="0"/>
        <pt x="132" y="330" on="0"/>
        <pt x="132" y="609" on="1"/>
        <pt x="132" y="846" on="1"/>
        <pt x="132" y="1124" on="0"/>
        <pt x="430" y="1477" on="0"/>
        <pt x="673" y="1477" on="1"/>
        <pt x="905" y="1477" on="0"/>
        <pt x="1177" y="1231" on="0"/>
        <pt x="1196" y="1008" on="1"/>
        <pt x="1194" y="1002" on="1"/>
        <pt x="1082" y="1002" on="1"/>
        <pt x="1058" y="1183" on="0"/>
        <pt x="857" y="1375" on="0"/>
        <pt x="673" y="1375" on="1"/>
        <pt x="482" y="1375" on="0"/>
        <pt x="251" y="1079" on="0"/>
        <pt x="251" y="848" on="1"/>
        <pt x="251" y="609" on="1"/>
        <pt x="251" y="375" on="0"/>
        <pt x="482" y="80" on="0"/>
        <pt x="673" y="80" on="1"/>
        <pt x="857" y="80" on="0"/>
        <pt x="1059" y="268" on="0"/>
        <pt x="1082" y="455" on="1"/>
      </contour>
    </TTGlyph>
    <TTGlyph name="C.smcp" xMin="127" yMin="-17" xMax="1035" yMax="1181">
      <contour>
        <pt x="1027" y="369" on="1"/>
        <pt x="1029" y="363" on="1"/>
        <pt x="1034" y="179" on="0"/>
        <pt x="792" y="-17" on="0"/>
        <pt x="589" y="-17" on="1"/>
        <pt x="384" y="-17" on="0"/>
        <pt x="127" y="248" on="0"/>
        <pt x="127" y="461" on="1"/>
        <pt x="127" y="704" on="1"/>
        <pt x="127" y="916" on="0"/>
        <pt x="384" y="1181" on="0"/>
        <pt x="589" y="1181" on="1"/>
        <pt x="796" y="1181" on="0"/>
        <pt x="1035" y="985" on="0"/>
        <pt x="1030" y="802" on="1"/>
        <pt x="1028" y="796" on="1"/>
        <pt x="917" y="796" on="1"/>
        <pt x="917" y="936" on="0"/>
        <pt x="747" y="1080" on="0"/>
        <pt x="589" y="1080" on="1"/>
        <pt x="436" y="1080" on="0"/>
        <pt x="247" y="870" on="0"/>
        <pt x="247" y="705" on="1"/>
        <pt x="247" y="461" on="1"/>
        <pt x="247" y="293" on="0"/>
        <pt x="435" y="84" on="0"/>
        <pt x="589" y="84" on="1"/>
        <pt x="747" y="84" on="0"/>
        <pt x="916" y="224" on="0"/>
        <pt x="916" y="369" on="1"/>
      </contour>
    </TTGlyph>
    <TTGlyph name="Cacute" xMin="132" yMin="-21" xMax="1196" yMax="1844">
      <component glyphName="C" x="0" y="0" flags="0x204"/>
      <component glyphName="acute" x="487" y="366" flags="0x4"/>
    </TTGlyph>
    <TTGlyph name="Cacute.smcp" xMin="127" yMin="-17" xMax="1035" yMax="1516">
      <component glyphName="C.smcp" x="0" y="0" flags="0x204"/>
      <component glyphName="acute" x="382" y="38" flags="0x4"/>
    </TTGlyph>
    <TTGlyph name="Ccaron" xMin="132" yMin="-21" xMax="1196" yMax="1866">
      <component glyphName="C" x="0" y="0" flags="0x204"/>
      <component glyphName="caron" x="260" y="372" flags="0x4"/>
    </TTGlyph>
    <TTGlyph name="Ccaron.smcp" xMin="127" yMin="-17" xMax="1035" yMax="1538">
      <component glyphName="C.smcp" x="0" y="0" flags="0x204"/>
      <component glyphName="caron" x="155" y="44" flags="0x4"/>
    </TTGlyph>
    <TTGlyph name="Ccedilla" xMin="132" yMin="-443" xMax="1196" yMax="1477">
      <component glyphName="C" x="0" y="0" flags="0x204"/>
      <component glyphName="cedilla" x="482" y="-8" flags="0x4"/>
    </TTGlyph>
    <TTGlyph name="Ccedilla.smcp" xMin="127" yMin="-440" xMax="1035" yMax="1181">
      <component glyphName="C.smcp" x="0" y="0" flags="0x204"/>
      <component glyphName="cedilla" x="377" y="-5" flags="0x4"/>
    </TTGlyph>
    <TTGlyph name="Ccircumflex" xMin="132" yMin="-21" xMax="1196" yMax="1864">
      <component glyphName="C" x="0" y="0" flags="0x204"/>
      <component glyphName="circumflex" x="242" y="370" flags="0x4"/>
    </TTGlyph>
    <TTGlyph name="Ccircumflex.smcp" xMin="127" yMin="-17" xMax="1035" yMax="1536">
      <component glyphName="C.smcp" x="0" y="0" flags="0x204"/>
      <component glyphName="circumflex" x="137" y="42" flags="0x4"/>
    </TTGlyph>
    <TTGlyph name="Chi" xMin="59" yMin="0" xMax="1200" yMax="1456">
      <component glyphName="X" x="0" y="0" flags="0x204"/>
    </TTGlyph>
    <TTGlyph name="D" xMin="191" yMin="0" xMax="1229" yMax="1456">
      <contour>
        <pt x="191" y="0" on="1"/>
        <pt x="191" y="1456" on="1"/>
        <pt x="614" y="1456" on="1"/>
        <pt x="881" y="1456" on="0"/>
        <pt x="1229" y="1100" on="0"/>
        <pt x="1229" y="821" on="1"/>
        <pt x="1229" y="634" on="1"/>
        <pt x="1229" y="354" on="0"/>
        <pt x="881" y="0" on="0"/>
        <pt x="614" y="0" on="1"/>
      </contour>
      <contour>
        <pt x="310" y="1354" on="1"/>
        <pt x="310" y="101" on="1"/>
        <pt x="614" y="101" on="1"/>
        <pt x="830" y="101" on="0"/>
        <pt x="1109" y="403" on="0"/>
        <pt x="1109" y="634" on="1"/>
        <pt x="1109" y="824" on="1"/>
        <pt x="1109" y="1052" on="0"/>
        <pt x="829" y="1354" on="0"/>
        <pt x="614" y="1354" on="1"/>
      </contour>
    </TTGlyph>
    <TTGlyph name="D.smcp" xMin="168" yMin="0" xMax="1043" yMax="1165">
      <contour>
        <pt x="168" y="0" on="1"/>
        <pt x="168" y="1165" on="1"/>
        <pt x="565" y="1165" on="1"/>
        <pt x="765" y="1165" on="0"/>
        <pt x="1043" y="895" on="0"/>
        <pt x="1043" y="687" on="1"/>
        <pt x="1043" y="477" on="1"/>
        <pt x="1043" y="268" on="0"/>
        <pt x="765" y="0" on="0"/>
        <pt x="565" y="0" on="1"/>
      </contour>
      <contour>
        <pt x="288" y="1064" on="1"/>
        <pt x="288" y="100" on="1"/>
        <pt x="565" y="100" on="1"/>
        <pt x="714" y="100" on="0"/>
        <pt x="923" y="315" on="0"/>
        <pt x="923" y="477" on="1"/>
        <pt x="923" y="688" on="1"/>
        <pt x="923" y="849" on="0"/>
        <pt x="714" y="1064" on="0"/>
        <pt x="565" y="1064" on="1"/>
      </contour>
    </TTGlyph>
    <TTGlyph name="Dcaron" xMin="191" yMin="0" xMax="1229" yMax="1845">
      <component glyphName="D" x="0" y="0" flags="0x204"/>
      <component glyphName="caron" x="185" y="351" flags="0x4"/>
    </TTGlyph>
    <TTGlyph name="Dcaron.smcp" xMin="168" yMin="0" xMax="1043" yMax="1522">
      <component glyphName="D.smcp" x="0" y="0" flags="0x204"/>
      <component glyphName="caron" x="69" y="28" flags="0x4"/>
    </TTGlyph>
    <TTGlyph name="Dcroat" xMin="68" yMin="0" xMax="1259" yMax="1456">
      <contour>
        <pt x="221" y="0" on="1"/>
        <pt x="221" y="689" on="1"/>
        <pt x="68" y="689" on="1"/>
        <pt x="68" y="791" on="1"/>
        <pt x="221" y="791" on="1"/>
        <pt x="221" y="1456" on="1"/>
        <pt x="644" y="1456" on="1"/>
        <pt x="911" y="1456" on="0"/>
        <pt x="1259" y="1100" on="0"/>
        <pt x="1259" y="821" on="1"/>
        <pt x="1259" y="634" on="1"/>
        <pt x="1259" y="354" on="0"/>
        <pt x="911" y="0" on="0"/>
        <pt x="644" y="0" on="1"/>
      </contour>
      <contour>
        <pt x="680" y="689" on="1"/>
        <pt x="340" y="689" on="1"/>
        <pt x="340" y="101" on="1"/>
        <pt x="644" y="101" on="1"/>
        <pt x="860" y="101" on="0"/>
        <pt x="1139" y="403" on="0"/>
        <pt x="1139" y="634" on="1"/>
        <pt x="1139" y="824" on="1"/>
        <pt x="1139" y="1052" on="0"/>
        <pt x="859" y="1354" on="0"/>
        <pt x="644" y="1354" on="1"/>
        <pt x="340" y="1354" on="1"/>
        <pt x="340" y="791" on="1"/>
        <pt x="680" y="791" on="1"/>
      </contour>
    </TTGlyph>
    <TTGlyph name="Dcroat.smcp" xMin="-19" yMin="0" xMax="1043" yMax="1165">
      <component glyphName="D.smcp" x="0" y="0" flags="0x204"/>
      <component glyphName="crossbar" x="-144" y="-143" flags="0x4"/>
    </TTGlyph>
    <TTGlyph name="Delta" xMin="45" yMin="0" xMax="1372" yMax="1456">
      <contour>
        <pt x="774" y="1456" on="1"/>
        <pt x="1372" y="0" on="1"/>
        <pt x="45" y="0" on="1"/>
        <pt x="661" y="1456" on="1"/>
      </contour>
      <contour>
        <pt x="211" y="101" on="1"/>
        <pt x="1206" y="101" on="1"/>
        <pt x="720" y="1308" on="1"/>
        <pt x="714" y="1308" on="1"/>
      </contour>
    </TTGlyph>
    <TTGlyph name="E" xMin="191" yMin="0" xMax="1113" yMax="1456">
      <contour>
        <pt x="1011" y="705" on="1"/>
        <pt x="310" y="705" on="1"/>
        <pt x="310" y="101" on="1"/>
        <pt x="1113" y="101" on="1"/>
        <pt x="1113" y="0" on="1"/>
        <pt x="191" y="0" on="1"/>
        <pt x="191" y="1456" on="1"/>
        <pt x="1108" y="1456" on="1"/>
        <pt x="1108" y="1354" on="1"/>
        <pt x="310" y="1354" on="1"/>
        <pt x="310" y="807" on="1"/>
        <pt x="1011" y="807" on="1"/>
      </contour>
    </TTGlyph>
    <TTGlyph name="E.smcp" xMin="168" yMin="0" xMax="959" yMax="1165">
      <contour>
        <pt x="872" y="556" on="1"/>
        <pt x="288" y="556" on="1"/>
        <pt x="288" y="100" on="1"/>
        <pt x="959" y="100" on="1"/>
        <pt x="959" y="0" on="1"/>
        <pt x="168" y="0" on="1"/>
        <pt x="168" y="1165" on="1"/>
        <pt x="959" y="1165" on="1"/>
        <pt x="959" y="1064" on="1"/>
        <pt x="288" y="1064" on="1"/>
        <pt x="288" y="657" on="1"/>
        <pt x="872" y="657" on="1"/>
      </contour>
    </TTGlyph>
    <TTGlyph name="Eacute" xMin="191" yMin="0" xMax="1113" yMax="1823">
      <component glyphName="E" x="0" y="0" flags="0x204"/>
      <component glyphName="acute" x="432" y="345" flags="0x4"/>
    </TTGlyph>
    <TTGlyph name="Eacute.smcp" xMin="168" yMin="0" xMax="959" yMax="1500">
      <component glyphName="E.smcp" x="0" y="0" flags="0x204"/>
      <component glyphName="acute" x="350" y="22" flags="0x4"/>
    </TTGlyph>
    <TTGlyph name="Ebreve" xMin="191" yMin="0" xMax="1113" yMax="1854">
      <component glyphName="E" x="0" y="0" flags="0x204"/>
      <component glyphName="breve" x="196" y="398" flags="0x4"/>
    </TTGlyph>
    <TTGlyph name="Ebreve.smcp" xMin="168" yMin="0" xMax="959" yMax="1531">
      <component glyphName="E.smcp" x="0" y="0" flags="0x204"/>
      <component glyphName="breve" x="114" y="75" flags="0x4"/>
    </TTGlyph>
    <TTGlyph name="Ecaron" xMin="191" yMin="0" xMax="1113" yMax="1845">
      <component glyphName="E" x="0" y="0" flags="0x204"/>
      <component glyphName="caron" x="205" y="351" flags="0x4"/>
    </TTGlyph>
    <TTGlyph name="Ecaron.smcp" xMin="168" yMin="0" xMax="959" yMax="1522">
      <component glyphName="E.smcp" x="0" y="0" flags="0x204"/>
      <component glyphName="caron" x="123" y="28" flags="0x4"/>
    </TTGlyph>
    <TTGlyph name="Ecircumflex" xMin="191" yMin="0" xMax="1113" yMax="1843">
      <component glyphName="E" x="0" y="0" flags="0x204"/>
      <component glyphName="circumflex" x="187" y="349" flags="0x4"/>
    </TTGlyph>
    <TTGlyph name="Ecircumflex.smcp" xMin="168" yMin="0" xMax="959" yMax="1520">
      <component glyphName="E.smcp" x="0" y="0" flags="0x204"/>
      <component glyphName="circumflex" x="105" y="26" flags="0x4"/>
    </TTGlyph>
    <TTGlyph name="Edieresis" xMin="191" yMin="0" xMax="1113" yMax="1798">
      <component glyphName="E" x="0" y="0" flags="0x204"/>
      <component glyphName="dieresis" x="144" y="342" flags="0x4"/>
    </TTGlyph>
    <TTGlyph name="Edieresis.smcp" xMin="168" yMin="0" xMax="959" yMax="1475">
      <component glyphName="E.smcp" x="0" y="0" flags="0x204"/>
      <component glyphName="dieresis" x="62" y="19" flags="0x4"/>
    </TTGlyph>
    <TTGlyph name="Edotaccent" xMin="191" yMin="0" xMax="1113" yMax="1805">
      <component glyphName="E" x="0" y="0" flags="0x204"/>
      <component glyphName="dotaccent" x="389" y="349" flags="0x4"/>
    </TTGlyph>
    <TTGlyph name="Edotaccent.smcp" xMin="168" yMin="0" xMax="959" yMax="1482">
      <component glyphName="E.smcp" x="0" y="0" flags="0x204"/>
      <component glyphName="dotaccent" x="307" y="26" flags="0x4"/>
    </TTGlyph>
    <TTGlyph name="Egrave" xMin="191" yMin="0" xMax="1113" yMax="1827">
      <component glyphName="E" x="0" y="0" flags="0x204"/>
      <component glyphName="grave" x="242" y="351" flags="0x4"/>
    </TTGlyph>
    <TTGlyph name="Egrave.smcp" xMin="168" yMin="0" xMax="959" yMax="1504">
      <component glyphName="E.smcp" x="0" y="0" flags="0x204"/>
      <component glyphName="grave" x="160" y="28" flags="0x4"/>
    </TTGlyph>
    <TTGlyph name="Emacron" xMin="191" yMin="0" xMax="1113" yMax="1786">
      <component glyphName="E" x="0" y="0" flags="0x204"/>
      <component glyphName="macron" x="180" y="330" flags="0x4"/>
    </TTGlyph>
    <TTGlyph name="Emacron.smcp" xMin="168" yMin="0" xMax="959" yMax="1463">
      <component glyphName="E.smcp" x="0" y="0" flags="0x204"/>
      <component glyphName="macron" x="98" y="7" flags="0x4"/>
    </TTGlyph>
    <TTGlyph name="Eng" xMin="182" yMin="-437" xMax="1255" yMax="1456">
      <contour>
        <pt x="1255" y="1456" on="1"/>
        <pt x="1255" y="-89" on="1"/>
        <pt x="1255" y="-256" on="0"/>
        <pt x="1094" y="-437" on="0"/>
        <pt x="951" y="-437" on="1"/>
        <pt x="920" y="-437" on="0"/>
        <pt x="868" y="-427" on="0"/>
        <pt x="839" y="-418" on="1"/>
        <pt x="853" y="-319" on="1"/>
        <pt x="868" y="-325" on="0"/>
        <pt x="930" y="-335" on="0"/>
        <pt x="951" y="-335" on="1"/>
        <pt x="1038" y="-335" on="0"/>
        <pt x="1136" y="-205" on="0"/>
        <pt x="1136" y="-89" on="1"/>
        <pt x="1136" y="0" on="1"/>
        <pt x="308" y="1245" on="1"/>
        <pt x="302" y="1244" on="1"/>
        <pt x="302" y="0" on="1"/>
        <pt x="182" y="0" on="1"/>
        <pt x="182" y="1456" on="1"/>
        <pt x="302" y="1456" on="1"/>
        <pt x="1130" y="210" on="1"/>
        <pt x="1136" y="211" on="1"/>
        <pt x="1136" y="1456" on="1"/>
      </contour>
    </TTGlyph>
    <TTGlyph name="Eogonek" xMin="191" yMin="-392" xMax="1113" yMax="1456">
      <component glyphName="E" x="0" y="0" flags="0x204"/>
      <component glyphName="ogonek" x="336" y="0" flags="0x4"/>
    </TTGlyph>
    <TTGlyph name="Eogonek.smcp" xMin="168" yMin="-392" xMax="959" yMax="1165">
      <component glyphName="E.smcp" x="0" y="0" flags="0x204"/>
      <component glyphName="ogonek" x="279" y="0" flags="0x4"/>
    </TTGlyph>
    <TTGlyph name="Epsilon" xMin="191" yMin="0" xMax="1113" yMax="1456">
      <component glyphName="E" x="0" y="0" flags="0x204"/>
    </TTGlyph>
    <TTGlyph name="Epsilontonos" xMin="-12" yMin="0" xMax="1213" yMax="1619">
      <component glyphName="E" x="100" y="0" flags="0x4"/>
      <component glyphName="tonos" x="-204" y="2" flags="0x4"/>
    </TTGlyph>
    <TTGlyph name="Eta" xMin="191" yMin="0" xMax="1257" yMax="1456">
      <component glyphName="H" x="0" y="0" flags="0x204"/>
    </TTGlyph>
    <TTGlyph name="Etatonos" xMin="17" yMin="0" xMax="1357" yMax="1619">
      <component glyphName="H" x="100" y="0" flags="0x4"/>
      <component glyphName="tonos" x="-175" y="2" flags="0x4"/>
    </TTGlyph>
    <TTGlyph name="Eth" xMin="68" yMin="0" xMax="1259" yMax="1456">
      <contour>
        <pt x="221" y="0" on="1"/>
        <pt x="221" y="689" on="1"/>
        <pt x="68" y="689" on="1"/>
        <pt x="68" y="791" on="1"/>
        <pt x="221" y="791" on="1"/>
        <pt x="221" y="1456" on="1"/>
        <pt x="644" y="1456" on="1"/>
        <pt x="911" y="1456" on="0"/>
        <pt x="1259" y="1100" on="0"/>
        <pt x="1259" y="821" on="1"/>
        <pt x="1259" y="634" on="1"/>
        <pt x="1259" y="354" on="0"/>
        <pt x="911" y="0" on="0"/>
        <pt x="644" y="0" on="1"/>
      </contour>
      <contour>
        <pt x="680" y="689" on="1"/>
        <pt x="340" y="689" on="1"/>
        <pt x="340" y="101" on="1"/>
        <pt x="644" y="101" on="1"/>
        <pt x="860" y="101" on="0"/>
        <pt x="1139" y="403" on="0"/>
        <pt x="1139" y="634" on="1"/>
        <pt x="1139" y="824" on="1"/>
        <pt x="1139" y="1052" on="0"/>
        <pt x="859" y="1354" on="0"/>
        <pt x="644" y="1354" on="1"/>
        <pt x="340" y="1354" on="1"/>
        <pt x="340" y="791" on="1"/>
        <pt x="680" y="791" on="1"/>
      </contour>
    </TTGlyph>
    <TTGlyph name="Eth.smcp" xMin="-19" yMin="0" xMax="1043" yMax="1165">
      <component glyphName="D.smcp" x="0" y="0" flags="0x204"/>
      <component glyphName="crossbar" x="-144" y="-143" flags="0x4"/>
    </TTGlyph>
    <TTGlyph name="Euro" xMin="80" yMin="-21" xMax="972" yMax="1477">
      <contour>
        <pt x="915" y="533" on="1"/>
        <pt x="368" y="533" on="1"/>
        <pt x="368" y="514" on="1"/>
        <pt x="368" y="316" on="0"/>
        <pt x="571" y="80" on="0"/>
        <pt x="742" y="80" on="1"/>
        <pt x="799" y="80" on="0"/>
        <pt x="911" y="97" on="0"/>
        <pt x="963" y="114" on="1"/>
        <pt x="972" y="10" on="1"/>
        <pt x="918" y="-5" on="0"/>
        <pt x="801" y="-21" on="0"/>
        <pt x="742" y="-21" on="1"/>
        <pt x="522" y="-21" on="0"/>
        <pt x="249" y="269" on="0"/>
        <pt x="249" y="514" on="1"/>
        <pt x="249" y="533" on="1"/>
        <pt x="80" y="533" on="1"/>
        <pt x="80" y="635" on="1"/>
        <pt x="249" y="635" on="1"/>
        <pt x="249" y="803" on="1"/>
        <pt x="80" y="803" on="1"/>
        <pt x="80" y="905" on="1"/>
        <pt x="249" y="905" on="1"/>
        <pt x="249" y="942" on="1"/>
        <pt x="249" y="1186" on="0"/>
        <pt x="520" y="1477" on="0"/>
        <pt x="740" y="1477" on="1"/>
        <pt x="797" y="1477" on="0"/>
        <pt x="908" y="1461" on="0"/>
        <pt x="972" y="1446" on="1"/>
        <pt x="963" y="1340" on="1"/>
        <pt x="909" y="1356" on="0"/>
        <pt x="796" y="1375" on="0"/>
        <pt x="740" y="1375" on="1"/>
        <pt x="568" y="1375" on="0"/>
        <pt x="368" y="1143" on="0"/>
        <pt x="368" y="944" on="1"/>
        <pt x="368" y="905" on="1"/>
        <pt x="915" y="905" on="1"/>
        <pt x="915" y="803" on="1"/>
        <pt x="368" y="803" on="1"/>
        <pt x="368" y="635" on="1"/>
        <pt x="915" y="635" on="1"/>
      </contour>
    </TTGlyph>
    <TTGlyph name="F" xMin="191" yMin="0" xMax="1120" yMax="1456">
      <contour>
        <pt x="1018" y="682" on="1"/>
        <pt x="310" y="682" on="1"/>
        <pt x="310" y="0" on="1"/>
        <pt x="191" y="0" on="1"/>
        <pt x="191" y="1456" on="1"/>
        <pt x="1120" y="1456" on="1"/>
        <pt x="1120" y="1354" on="1"/>
        <pt x="310" y="1354" on="1"/>
        <pt x="310" y="785" on="1"/>
        <pt x="1018" y="785" on="1"/>
      </contour>
    </TTGlyph>
    <TTGlyph name="F.smcp" xMin="168" yMin="0" xMax="958" yMax="1165">
      <contour>
        <pt x="871" y="535" on="1"/>
        <pt x="288" y="535" on="1"/>
        <pt x="288" y="0" on="1"/>
        <pt x="168" y="0" on="1"/>
        <pt x="168" y="1165" on="1"/>
        <pt x="958" y="1165" on="1"/>
        <pt x="958" y="1064" on="1"/>
        <pt x="288" y="1064" on="1"/>
        <pt x="288" y="637" on="1"/>
        <pt x="871" y="637" on="1"/>
      </contour>
    </TTGlyph>
    <TTGlyph name="G" xMin="146" yMin="-21" xMax="1230" yMax="1477">
      <contour>
        <pt x="1230" y="173" on="1"/>
        <pt x="1181" y="102" on="0"/>
        <pt x="922" y="-21" on="0"/>
        <pt x="725" y="-21" on="1"/>
        <pt x="471" y="-21" on="0"/>
        <pt x="146" y="325" on="0"/>
        <pt x="146" y="600" on="1"/>
        <pt x="146" y="867" on="1"/>
        <pt x="146" y="1137" on="0"/>
        <pt x="455" y="1477" on="0"/>
        <pt x="701" y="1477" on="1"/>
        <pt x="936" y="1477" on="0"/>
        <pt x="1201" y="1242" on="0"/>
        <pt x="1222" y="1054" on="1"/>
        <pt x="1220" y="1048" on="1"/>
        <pt x="1109" y="1048" on="1"/>
        <pt x="1083" y="1194" on="0"/>
        <pt x="889" y="1375" on="0"/>
        <pt x="701" y="1375" on="1"/>
        <pt x="505" y="1375" on="0"/>
        <pt x="266" y="1091" on="0"/>
        <pt x="266" y="869" on="1"/>
        <pt x="266" y="600" on="1"/>
        <pt x="266" y="372" on="0"/>
        <pt x="520" y="80" on="0"/>
        <pt x="725" y="80" on="1"/>
        <pt x="870" y="80" on="0"/>
        <pt x="1073" y="161" on="0"/>
        <pt x="1110" y="209" on="1"/>
        <pt x="1110" y="589" on="1"/>
        <pt x="723" y="589" on="1"/>
        <pt x="723" y="691" on="1"/>
        <pt x="1230" y="691" on="1"/>
      </contour>
    </TTGlyph>
    <TTGlyph name="G.smcp" xMin="127" yMin="-17" xMax="1070" yMax="1181">
      <contour>
        <pt x="1070" y="156" on="1"/>
        <pt x="1027" y="92" on="0"/>
        <pt x="796" y="-17" on="0"/>
        <pt x="625" y="-17" on="1"/>
        <pt x="403" y="-17" on="0"/>
        <pt x="127" y="248" on="0"/>
        <pt x="127" y="461" on="1"/>
        <pt x="127" y="704" on="1"/>
        <pt x="127" y="915" on="0"/>
        <pt x="400" y="1181" on="0"/>
        <pt x="616" y="1181" on="1"/>
        <pt x="830" y="1181" on="0"/>
        <pt x="1057" y="998" on="0"/>
        <pt x="1061" y="838" on="1"/>
        <pt x="1059" y="833" on="1"/>
        <pt x="948" y="829" on="1"/>
        <pt x="939" y="954" on="0"/>
        <pt x="779" y="1080" on="0"/>
        <pt x="616" y="1080" on="1"/>
        <pt x="451" y="1080" on="0"/>
        <pt x="247" y="868" on="0"/>
        <pt x="247" y="705" on="1"/>
        <pt x="247" y="461" on="1"/>
        <pt x="247" y="295" on="0"/>
        <pt x="453" y="84" on="0"/>
        <pt x="625" y="84" on="1"/>
        <pt x="753" y="84" on="0"/>
        <pt x="919" y="148" on="0"/>
        <pt x="951" y="190" on="1"/>
        <pt x="951" y="468" on="1"/>
        <pt x="654" y="468" on="1"/>
        <pt x="654" y="570" on="1"/>
        <pt x="1070" y="570" on="1"/>
      </contour>
    </TTGlyph>
    <TTGlyph name="Gamma" xMin="187" yMin="0" xMax="1063" yMax="1456">
      <contour>
        <pt x="1063" y="1354" on="1"/>
        <pt x="306" y="1354" on="1"/>
        <pt x="306" y="0" on="1"/>
        <pt x="187" y="0" on="1"/>
        <pt x="187" y="1456" on="1"/>
        <pt x="1063" y="1456" on="1"/>
      </contour>
    </TTGlyph>
    <TTGlyph name="Gbreve" xMin="146" yMin="-21" xMax="1230" yMax="1875">
      <component glyphName="G" x="0" y="0" flags="0x204"/>
      <component glyphName="breve" x="260" y="419" flags="0x4"/>
    </TTGlyph>
    <TTGlyph name="Gbreve.smcp" xMin="127" yMin="-17" xMax="1070" yMax="1547">
      <component glyphName="G.smcp" x="0" y="0" flags="0x204"/>
      <component glyphName="breve" x="139" y="91" flags="0x4"/>
    </TTGlyph>
    <TTGlyph name="Gcircumflex" xMin="146" yMin="-21" xMax="1230" yMax="1864">
      <component glyphName="G" x="0" y="0" flags="0x204"/>
      <component glyphName="circumflex" x="251" y="370" flags="0x4"/>
    </TTGlyph>
    <TTGlyph name="Gcircumflex.smcp" xMin="127" yMin="-17" xMax="1070" yMax="1536">
      <component glyphName="G.smcp" x="0" y="0" flags="0x204"/>
      <component glyphName="circumflex" x="130" y="42" flags="0x4"/>
    </TTGlyph>
    <TTGlyph name="Gcommaaccent" xMin="146" yMin="-467" xMax="1230" yMax="1477">
      <component glyphName="G" x="0" y="0" flags="0x204"/>
      <component glyphName="commaaccent" x="454" y="-312" flags="0x4"/>
    </TTGlyph>
    <TTGlyph name="Gcommaaccent.smcp" xMin="127" yMin="-466" xMax="1070" yMax="1181">
      <component glyphName="G.smcp" x="0" y="0" flags="0x204"/>
      <component glyphName="commaaccent" x="348" y="-311" flags="0x4"/>
    </TTGlyph>
    <TTGlyph name="H" xMin="191" yMin="0" xMax="1257" yMax="1456">
      <contour>
        <pt x="1257" y="0" on="1"/>
        <pt x="1138" y="0" on="1"/>
        <pt x="1138" y="670" on="1"/>
        <pt x="310" y="670" on="1"/>
        <pt x="310" y="0" on="1"/>
        <pt x="191" y="0" on="1"/>
        <pt x="191" y="1456" on="1"/>
        <pt x="310" y="1456" on="1"/>
        <pt x="310" y="772" on="1"/>
        <pt x="1138" y="772" on="1"/>
        <pt x="1138" y="1456" on="1"/>
        <pt x="1257" y="1456" on="1"/>
      </contour>
    </TTGlyph>
    <TTGlyph name="H.smcp" xMin="168" yMin="0" xMax="1080" yMax="1165">
      <contour>
        <pt x="1080" y="0" on="1"/>
        <pt x="960" y="0" on="1"/>
        <pt x="960" y="521" on="1"/>
        <pt x="288" y="521" on="1"/>
        <pt x="288" y="0" on="1"/>
        <pt x="168" y="0" on="1"/>
        <pt x="168" y="1165" on="1"/>
        <pt x="288" y="1165" on="1"/>
        <pt x="288" y="622" on="1"/>
        <pt x="960" y="622" on="1"/>
        <pt x="960" y="1165" on="1"/>
        <pt x="1080" y="1165" on="1"/>
      </contour>
    </TTGlyph>
    <TTGlyph name="Hbar" xMin="25" yMin="0" xMax="1384" yMax="1456">
      <contour>
        <pt x="1234" y="1123" on="1"/>
        <pt x="1384" y="1123" on="1"/>
        <pt x="1384" y="1026" on="1"/>
        <pt x="1234" y="1026" on="1"/>
        <pt x="1234" y="0" on="1"/>
        <pt x="1115" y="0" on="1"/>
        <pt x="1115" y="670" on="1"/>
        <pt x="287" y="670" on="1"/>
        <pt x="287" y="0" on="1"/>
        <pt x="168" y="0" on="1"/>
        <pt x="168" y="1026" on="1"/>
        <pt x="25" y="1026" on="1"/>
        <pt x="25" y="1123" on="1"/>
        <pt x="168" y="1123" on="1"/>
        <pt x="168" y="1456" on="1"/>
        <pt x="287" y="1456" on="1"/>
        <pt x="287" y="1123" on="1"/>
        <pt x="1115" y="1123" on="1"/>
        <pt x="1115" y="1456" on="1"/>
        <pt x="1234" y="1456" on="1"/>
      </contour>
      <contour>
        <pt x="287" y="772" on="1"/>
        <pt x="1115" y="772" on="1"/>
        <pt x="1115" y="1026" on="1"/>
        <pt x="287" y="1026" on="1"/>
      </contour>
    </TTGlyph>
    <TTGlyph name="Hcircumflex" xMin="191" yMin="0" xMax="1257" yMax="1843">
      <component glyphName="H" x="0" y="0" flags="0x204"/>
      <component glyphName="circumflex" x="282" y="349" flags="0x4"/>
    </TTGlyph>
    <TTGlyph name="Hcircumflex.smcp" xMin="168" yMin="0" xMax="1080" yMax="1520">
      <component glyphName="H.smcp" x="0" y="0" flags="0x204"/>
      <component glyphName="circumflex" x="156" y="26" flags="0x4"/>
    </TTGlyph>
    <TTGlyph name="I" xMin="217" yMin="0" xMax="337" yMax="1456">
      <contour>
        <pt x="337" y="0" on="1"/>
        <pt x="217" y="0" on="1"/>
        <pt x="217" y="1456" on="1"/>
        <pt x="337" y="1456" on="1"/>
      </contour>
    </TTGlyph>
    <TTGlyph name="I.smcp" xMin="168" yMin="0" xMax="287" yMax="1165">
      <contour>
        <pt x="287" y="0" on="1"/>
        <pt x="168" y="0" on="1"/>
        <pt x="168" y="1165" on="1"/>
        <pt x="287" y="1165" on="1"/>
      </contour>
    </TTGlyph>
    <TTGlyph name="IJ" xMin="217" yMin="-21" xMax="1499" yMax="1456">
      <component glyphName="I" x="0" y="0" flags="0x4"/>
      <component glyphName="J" x="554" y="0" flags="0x4"/>
    </TTGlyph>
    <TTGlyph name="Iacute" xMin="202" yMin="0" xMax="559" yMax="1823">
      <component glyphName="I" x="0" y="0" flags="0x204"/>
      <component glyphName="acute" x="86" y="345" flags="0x4"/>
    </TTGlyph>
    <TTGlyph name="Iacute.smcp" xMin="152" yMin="0" xMax="509" yMax="1500">
      <component glyphName="I.smcp" x="0" y="0" flags="0x204"/>
      <component glyphName="acute" x="36" y="22" flags="0x4"/>
    </TTGlyph>
    <TTGlyph name="Ibreve" xMin="-9" yMin="0" xMax="566" yMax="1854">
      <component glyphName="I" x="0" y="0" flags="0x204"/>
      <component glyphName="breve" x="-148" y="398" flags="0x4"/>
    </TTGlyph>
    <TTGlyph name="Ibreve.smcp" xMin="-59" yMin="0" xMax="516" yMax="1531">
      <component glyphName="I.smcp" x="0" y="0" flags="0x204"/>
      <component glyphName="breve" x="-198" y="75" flags="0x4"/>
    </TTGlyph>
    <TTGlyph name="Icircumflex" xMin="3" yMin="0" xMax="558" yMax="1843">
      <component glyphName="I" x="0" y="0" flags="0x204"/>
      <component glyphName="circumflex" x="-157" y="349" flags="0x4"/>
    </TTGlyph>
    <TTGlyph name="Icircumflex.smcp" xMin="-47" yMin="0" xMax="508" yMax="1520">
      <component glyphName="I.smcp" x="0" y="0" flags="0x204"/>
      <component glyphName="circumflex" x="-207" y="26" flags="0x4"/>
    </TTGlyph>
    <TTGlyph name="Idieresis" xMin="-38" yMin="0" xMax="605" yMax="1798">
      <component glyphName="I" x="0" y="0" flags="0x204"/>
      <component glyphName="dieresis" x="-200" y="342" flags="0x4"/>
    </TTGlyph>
    <TTGlyph name="Idieresis.smcp" xMin="-88" yMin="0" xMax="555" yMax="1475">
      <component glyphName="I.smcp" x="0" y="0" flags="0x204"/>
      <component glyphName="dieresis" x="-250" y="19" flags="0x4"/>
    </TTGlyph>
    <TTGlyph name="Idotaccent" xMin="200" yMin="0" xMax="351" yMax="1805">
      <component glyphName="I" x="0" y="0" flags="0x204"/>
      <component glyphName="dotaccent" x="43" y="349" flags="0x4"/>
    </TTGlyph>
    <TTGlyph name="Idotaccent.smcp" xMin="152" yMin="0" xMax="303" yMax="1482">
      <component glyphName="I.smcp" x="0" y="0" flags="0x204"/>
      <component glyphName="dotaccent" x="-5" y="26" flags="0x4"/>
    </TTGlyph>
    <TTGlyph name="Igrave" xMin="-9" yMin="0" xMax="349" yMax="1827">
      <component glyphName="I" x="0" y="0" flags="0x204"/>
      <component glyphName="grave" x="-102" y="351" flags="0x4"/>
    </TTGlyph>
    <TTGlyph name="Igrave.smcp" xMin="-59" yMin="0" xMax="299" yMax="1504">
      <component glyphName="I.smcp" x="0" y="0" flags="0x204"/>
      <component glyphName="grave" x="-152" y="28" flags="0x4"/>
    </TTGlyph>
    <TTGlyph name="Imacron" xMin="-58" yMin="0" xMax="612" yMax="1786">
      <component glyphName="I" x="0" y="0" flags="0x204"/>
      <component glyphName="macron" x="-164" y="330" flags="0x4"/>
    </TTGlyph>
    <TTGlyph name="Imacron.smcp" xMin="-108" yMin="0" xMax="562" yMax="1463">
      <component glyphName="I.smcp" x="0" y="0" flags="0x204"/>
      <component glyphName="macron" x="-214" y="7" flags="0x4"/>
    </TTGlyph>
    <TTGlyph name="Iogonek" xMin="67" yMin="-392" xMax="393" yMax="1456">
      <component glyphName="I" x="0" y="0" flags="0x204"/>
      <component glyphName="ogonek" x="-24" y="0" flags="0x4"/>
    </TTGlyph>
    <TTGlyph name="Iogonek.smcp" xMin="17" yMin="-392" xMax="343" yMax="1165">
      <component glyphName="I.smcp" x="0" y="0" flags="0x204"/>
      <component glyphName="ogonek" x="-74" y="0" flags="0x4"/>
    </TTGlyph>
    <TTGlyph name="Iota" xMin="217" yMin="0" xMax="337" yMax="1456">
      <component glyphName="I" x="0" y="0" flags="0x204"/>
    </TTGlyph>
    <TTGlyph name="Iotadieresis" xMin="-38" yMin="0" xMax="605" yMax="1798">
      <component glyphName="I" x="0" y="0" flags="0x204"/>
      <component glyphName="dieresis" x="-200" y="342" flags="0x4"/>
    </TTGlyph>
    <TTGlyph name="Iotatonos" xMin="33" yMin="0" xMax="437" yMax="1617">
      <component glyphName="I" x="100" y="0" flags="0x4"/>
      <component glyphName="tonos" x="-159" y="0" flags="0x4"/>
    </TTGlyph>
    <TTGlyph name="Itilde" xMin="-66" yMin="0" xMax="599" yMax="1842">
      <component glyphName="I" x="0" y="0" flags="0x204"/>
      <component glyphName="tilde" x="-168" y="341" flags="0x4"/>
    </TTGlyph>
    <TTGlyph name="Itilde.smcp" xMin="-116" yMin="0" xMax="549" yMax="1519">
      <component glyphName="I.smcp" x="0" y="0" flags="0x204"/>
      <component glyphName="tilde" x="-218" y="18" flags="0x4"/>
    </TTGlyph>
    <TTGlyph name="J" xMin="77" yMin="-21" xMax="945" yMax="1456">
      <contour>
        <pt x="825" y="1456" on="1"/>
        <pt x="945" y="1456" on="1"/>
        <pt x="945" y="413" on="1"/>
        <pt x="945" y="214" on="0"/>
        <pt x="708" y="-21" on="0"/>
        <pt x="520" y="-21" on="1"/>
        <pt x="315" y="-21" on="0"/>
        <pt x="77" y="191" on="0"/>
        <pt x="82" y="395" on="1"/>
        <pt x="84" y="401" on="1"/>
        <pt x="196" y="401" on="1"/>
        <pt x="196" y="243" on="0"/>
        <pt x="364" y="80" on="0"/>
        <pt x="520" y="80" on="1"/>
        <pt x="653" y="80" on="0"/>
        <pt x="825" y="261" on="0"/>
        <pt x="825" y="413" on="1"/>
      </contour>
    </TTGlyph>
    <TTGlyph name="J.smcp" xMin="79" yMin="-17" xMax="849" yMax="1165">
      <contour>
        <pt x="729" y="1165" on="1"/>
        <pt x="849" y="1165" on="1"/>
        <pt x="849" y="345" on="1"/>
        <pt x="849" y="179" on="0"/>
        <pt x="637" y="-17" on="0"/>
        <pt x="473" y="-17" on="1"/>
        <pt x="291" y="-17" on="0"/>
        <pt x="79" y="157" on="0"/>
        <pt x="84" y="322" on="1"/>
        <pt x="87" y="328" on="1"/>
        <pt x="198" y="328" on="1"/>
        <pt x="198" y="203" on="0"/>
        <pt x="339" y="84" on="0"/>
        <pt x="473" y="84" on="1"/>
        <pt x="583" y="84" on="0"/>
        <pt x="729" y="226" on="0"/>
        <pt x="729" y="345" on="1"/>
      </contour>
    </TTGlyph>
    <TTGlyph name="Jcircumflex" xMin="77" yMin="-21" xMax="1160" yMax="1821">
      <component glyphName="J" x="0" y="0" flags="0x204"/>
      <component glyphName="circumflex" x="445" y="327" flags="0x4"/>
    </TTGlyph>
    <TTGlyph name="Jcircumflex.smcp" xMin="79" yMin="-17" xMax="1060" yMax="1503">
      <component glyphName="J.smcp" x="0" y="0" flags="0x204"/>
      <component glyphName="circumflex" x="345" y="9" flags="0x4"/>
    </TTGlyph>
    <TTGlyph name="K" xMin="191" yMin="0" xMax="1262" yMax="1456">
      <contour>
        <pt x="510" y="685" on="1"/>
        <pt x="310" y="685" on="1"/>
        <pt x="310" y="0" on="1"/>
        <pt x="191" y="0" on="1"/>
        <pt x="191" y="1456" on="1"/>
        <pt x="310" y="1456" on="1"/>
        <pt x="310" y="786" on="1"/>
        <pt x="509" y="786" on="1"/>
        <pt x="1082" y="1456" on="1"/>
        <pt x="1217" y="1456" on="1"/>
        <pt x="1219" y="1451" on="1"/>
        <pt x="617" y="740" on="1"/>
        <pt x="1262" y="5" on="1"/>
        <pt x="1260" y="0" on="1"/>
        <pt x="1118" y="0" on="1"/>
      </contour>
    </TTGlyph>
    <TTGlyph name="K.smcp" xMin="168" yMin="0" xMax="1055" yMax="1165">
      <contour>
        <pt x="425" y="537" on="1"/>
        <pt x="288" y="537" on="1"/>
        <pt x="288" y="0" on="1"/>
        <pt x="168" y="0" on="1"/>
        <pt x="168" y="1165" on="1"/>
        <pt x="288" y="1165" on="1"/>
        <pt x="288" y="640" on="1"/>
        <pt x="422" y="640" on="1"/>
        <pt x="866" y="1165" on="1"/>
        <pt x="1004" y="1165" on="1"/>
        <pt x="1006" y="1160" on="1"/>
        <pt x="526" y="598" on="1"/>
        <pt x="1055" y="5" on="1"/>
        <pt x="1053" y="0" on="1"/>
        <pt x="908" y="0" on="1"/>
      </contour>
    </TTGlyph>
    <TTGlyph name="Kappa" xMin="191" yMin="0" xMax="1262" yMax="1456">
      <component glyphName="K" x="0" y="0" flags="0x204"/>
    </TTGlyph>
    <TTGlyph name="Kcommaaccent" xMin="191" yMin="-455" xMax="1262" yMax="1456">
      <component glyphName="K" x="0" y="0" flags="0x204"/>
      <component glyphName="commaaccent" x="381" y="-300" flags="0x4"/>
    </TTGlyph>
    <TTGlyph name="Kcommaaccent.smcp" xMin="168" yMin="-457" xMax="1055" yMax="1165">
      <component glyphName="K.smcp" x="0" y="0" flags="0x204"/>
      <component glyphName="commaaccent" x="265" y="-302" flags="0x4"/>
    </TTGlyph>
    <TTGlyph name="L" xMin="191" yMin="0" xMax="1031" yMax="1456">
      <contour>
        <pt x="311" y="101" on="1"/>
        <pt x="1031" y="101" on="1"/>
        <pt x="1031" y="0" on="1"/>
        <pt x="191" y="0" on="1"/>
        <pt x="191" y="1456" on="1"/>
        <pt x="311" y="1456" on="1"/>
      </contour>
    </TTGlyph>
    <TTGlyph name="L.smcp" xMin="168" yMin="0" xMax="866" yMax="1165">
      <contour>
        <pt x="288" y="100" on="1"/>
        <pt x="866" y="100" on="1"/>
        <pt x="866" y="0" on="1"/>
        <pt x="168" y="0" on="1"/>
        <pt x="168" y="1165" on="1"/>
        <pt x="288" y="1165" on="1"/>
      </contour>
    </TTGlyph>
    <TTGlyph name="Lacute" xMin="177" yMin="0" xMax="1031" yMax="1760">
      <component glyphName="L" x="0" y="0" flags="0x204"/>
      <component glyphName="acute" x="61" y="282" flags="0x4"/>
    </TTGlyph>
    <TTGlyph name="Lacute.smcp" xMin="153" yMin="0" xMax="866" yMax="1477">
      <component glyphName="L.smcp" x="0" y="0" flags="0x204"/>
      <component glyphName="acute" x="37" y="-1" flags="0x4"/>
    </TTGlyph>
    <TTGlyph name="Lambda" xMin="69" yMin="0" xMax="1251" yMax="1456">
      <contour>
        <pt x="662" y="1283" on="1"/>
        <pt x="656" y="1283" on="1"/>
        <pt x="194" y="0" on="1"/>
        <pt x="69" y="0" on="1"/>
        <pt x="603" y="1456" on="1"/>
        <pt x="717" y="1456" on="1"/>
        <pt x="1251" y="0" on="1"/>
        <pt x="1127" y="0" on="1"/>
      </contour>
    </TTGlyph>
    <TTGlyph name="Lcaron" xMin="191" yMin="0" xMax="1031" yMax="1456">
      <component glyphName="L" x="0" y="0" flags="0x204"/>
      <component glyphName="commaaccent" x="431" y="1280" flags="0x4"/>
    </TTGlyph>
    <TTGlyph name="Lcaron.smcp" xMin="168" yMin="0" xMax="866" yMax="1165">
      <component glyphName="L.smcp" x="0" y="0" flags="0x204"/>
      <component glyphName="commaaccent" x="292" y="989" flags="0x4"/>
    </TTGlyph>
    <TTGlyph name="Lcommaaccent" xMin="191" yMin="-453" xMax="1031" yMax="1456">
      <component glyphName="L" x="0" y="0" flags="0x204"/>
      <component glyphName="commaaccent" x="379" y="-298" flags="0x4"/>
    </TTGlyph>
    <TTGlyph name="Lcommaaccent.smcp" xMin="168" yMin="-455" xMax="866" yMax="1165">
      <component glyphName="L.smcp" x="0" y="0" flags="0x204"/>
      <component glyphName="commaaccent" x="233" y="-300" flags="0x4"/>
    </TTGlyph>
    <TTGlyph name="Ldot" xMin="191" yMin="0" xMax="1031" yMax="1456">
      <component glyphName="L" x="0" y="0" flags="0x204"/>
      <component glyphName="dotaccent" x="451" y="-600" flags="0x4"/>
    </TTGlyph>
    <TTGlyph name="Ldot.smcp" xMin="168" yMin="0" xMax="866" yMax="1165">
      <component glyphName="L.smcp" x="0" y="0" flags="0x204"/>
      <component glyphName="dotaccent" x="309" y="-755" flags="0x4"/>
    </TTGlyph>
    <TTGlyph name="Lslash" xMin="23" yMin="0" xMax="1019" yMax="1456">
      <contour>
        <pt x="299" y="815" on="1"/>
        <pt x="612" y="915" on="1"/>
        <pt x="612" y="806" on="1"/>
        <pt x="299" y="706" on="1"/>
        <pt x="299" y="101" on="1"/>
        <pt x="1019" y="101" on="1"/>
        <pt x="1019" y="0" on="1"/>
        <pt x="179" y="0" on="1"/>
        <pt x="179" y="668" on="1"/>
        <pt x="23" y="619" on="1"/>
        <pt x="23" y="728" on="1"/>
        <pt x="179" y="777" on="1"/>
        <pt x="179" y="1456" on="1"/>
        <pt x="299" y="1456" on="1"/>
      </contour>
    </TTGlyph>
    <TTGlyph name="M" xMin="191" yMin="0" xMax="1584" yMax="1456">
      <contour>
        <pt x="348" y="1456" on="1"/>
        <pt x="883" y="174" on="1"/>
        <pt x="889" y="174" on="1"/>
        <pt x="1426" y="1456" on="1"/>
        <pt x="1584" y="1456" on="1"/>
        <pt x="1584" y="0" on="1"/>
        <pt x="1465" y="0" on="1"/>
        <pt x="1465" y="643" on="1"/>
        <pt x="1475" y="1280" on="1"/>
        <pt x="1469" y="1282" on="1"/>
        <pt x="928" y="0" on="1"/>
        <pt x="845" y="0" on="1"/>
        <pt x="305" y="1276" on="1"/>
        <pt x="299" y="1275" on="1"/>
        <pt x="310" y="643" on="1"/>
        <pt x="310" y="0" on="1"/>
        <pt x="191" y="0" on="1"/>
        <pt x="191" y="1456" on="1"/>
      </contour>
    </TTGlyph>
    <TTGlyph name="M.smcp" xMin="168" yMin="0" xMax="1332" yMax="1165">
      <contour>
        <pt x="751" y="169" on="1"/>
        <pt x="757" y="169" on="1"/>
        <pt x="1184" y="1165" on="1"/>
        <pt x="1332" y="1165" on="1"/>
        <pt x="1332" y="0" on="1"/>
        <pt x="1212" y="0" on="1"/>
        <pt x="1212" y="941" on="1"/>
        <pt x="1206" y="943" on="1"/>
        <pt x="796" y="0" on="1"/>
        <pt x="711" y="0" on="1"/>
        <pt x="294" y="962" on="1"/>
        <pt x="288" y="961" on="1"/>
        <pt x="288" y="0" on="1"/>
        <pt x="168" y="0" on="1"/>
        <pt x="168" y="1165" on="1"/>
        <pt x="325" y="1165" on="1"/>
      </contour>
    </TTGlyph>
    <TTGlyph name="Mu" xMin="191" yMin="0" xMax="1584" yMax="1456">
      <component glyphName="M" x="0" y="0" flags="0x204"/>
    </TTGlyph>
    <TTGlyph name="N" xMin="191" yMin="0" xMax="1263" yMax="1456">
      <contour>
        <pt x="1263" y="0" on="1"/>
        <pt x="1144" y="0" on="1"/>
        <pt x="317" y="1252" on="1"/>
        <pt x="311" y="1251" on="1"/>
        <pt x="311" y="0" on="1"/>
        <pt x="191" y="0" on="1"/>
        <pt x="191" y="1456" on="1"/>
        <pt x="311" y="1456" on="1"/>
        <pt x="1138" y="206" on="1"/>
        <pt x="1144" y="207" on="1"/>
        <pt x="1144" y="1456" on="1"/>
        <pt x="1263" y="1456" on="1"/>
      </contour>
    </TTGlyph>
    <TTGlyph name="N.smcp" xMin="168" yMin="0" xMax="1115" yMax="1165">
      <contour>
        <pt x="1115" y="0" on="1"/>
        <pt x="996" y="0" on="1"/>
        <pt x="294" y="973" on="1"/>
        <pt x="288" y="971" on="1"/>
        <pt x="288" y="0" on="1"/>
        <pt x="168" y="0" on="1"/>
        <pt x="168" y="1165" on="1"/>
        <pt x="288" y="1165" on="1"/>
        <pt x="990" y="193" on="1"/>
        <pt x="996" y="195" on="1"/>
        <pt x="996" y="1165" on="1"/>
        <pt x="1115" y="1165" on="1"/>
      </contour>
    </TTGlyph>
    <TTGlyph name="Nacute" xMin="191" yMin="0" xMax="1263" yMax="1823">
      <component glyphName="N" x="0" y="0" flags="0x204"/>
      <component glyphName="acute" x="536" y="345" flags="0x4"/>
    </TTGlyph>
    <TTGlyph name="Nacute.smcp" xMin="168" yMin="0" xMax="1115" yMax="1500">
      <component glyphName="N.smcp" x="0" y="0" flags="0x204"/>
      <component glyphName="acute" x="429" y="22" flags="0x4"/>
    </TTGlyph>
    <TTGlyph name="Ncaron" xMin="191" yMin="0" xMax="1263" yMax="1845">
      <component glyphName="N" x="0" y="0" flags="0x204"/>
      <component glyphName="caron" x="309" y="351" flags="0x4"/>
    </TTGlyph>
    <TTGlyph name="Ncaron.smcp" xMin="168" yMin="0" xMax="1115" yMax="1522">
      <component glyphName="N.smcp" x="0" y="0" flags="0x204"/>
      <component glyphName="caron" x="202" y="28" flags="0x4"/>
    </TTGlyph>
    <TTGlyph name="Ncommaaccent" xMin="191" yMin="-453" xMax="1263" yMax="1456">
      <component glyphName="N" x="0" y="0" flags="0x204"/>
      <component glyphName="commaaccent" x="480" y="-298" flags="0x4"/>
    </TTGlyph>
    <TTGlyph name="Ncommaaccent.smcp" xMin="168" yMin="-455" xMax="1115" yMax="1165">
      <component glyphName="N.smcp" x="0" y="0" flags="0x204"/>
      <component glyphName="commaaccent" x="373" y="-300" flags="0x4"/>
    </TTGlyph>
    <TTGlyph name="Ntilde" xMin="191" yMin="0" xMax="1263" yMax="1842">
      <component glyphName="N" x="0" y="0" flags="0x204"/>
      <component glyphName="tilde" x="280" y="341" flags="0x4"/>
    </TTGlyph>
    <TTGlyph name="Ntilde.smcp" xMin="168" yMin="0" xMax="1115" yMax="1519">
      <component glyphName="N.smcp" x="0" y="0" flags="0x204"/>
      <component glyphName="tilde" x="173" y="18" flags="0x4"/>
    </TTGlyph>
    <TTGlyph name="Nu" xMin="191" yMin="0" xMax="1263" yMax="1456">
      <component glyphName="N" x="0" y="0" flags="0x204"/>
    </TTGlyph>
    <TTGlyph name="O" xMin="124" yMin="-21" xMax="1254" yMax="1477">
      <contour>
        <pt x="1254" y="609" on="1"/>
        <pt x="1254" y="327" on="0"/>
        <pt x="945" y="-21" on="0"/>
        <pt x="685" y="-21" on="1"/>
        <pt x="429" y="-21" on="0"/>
        <pt x="124" y="327" on="0"/>
        <pt x="124" y="609" on="1"/>
        <pt x="124" y="846" on="1"/>
        <pt x="124" y="1127" on="0"/>
        <pt x="428" y="1477" on="0"/>
        <pt x="684" y="1477" on="1"/>
        <pt x="944" y="1477" on="0"/>
        <pt x="1254" y="1127" on="0"/>
        <pt x="1254" y="846" on="1"/>
      </contour>
      <contour>
        <pt x="1135" y="848" on="1"/>
        <pt x="1135" y="1084" on="0"/>
        <pt x="896" y="1372" on="0"/>
        <pt x="684" y="1372" on="1"/>
        <pt x="476" y="1372" on="0"/>
        <pt x="244" y="1084" on="0"/>
        <pt x="244" y="848" on="1"/>
        <pt x="244" y="609" on="1"/>
        <pt x="244" y="371" on="0"/>
        <pt x="477" y="83" on="0"/>
        <pt x="685" y="83" on="1"/>
        <pt x="898" y="83" on="0"/>
        <pt x="1135" y="370" on="0"/>
        <pt x="1135" y="609" on="1"/>
      </contour>
    </TTGlyph>
    <TTGlyph name="O.smcp" xMin="127" yMin="-17" xMax="1088" yMax="1181">
      <contour>
        <pt x="1088" y="461" on="1"/>
        <pt x="1088" y="243" on="0"/>
        <pt x="823" y="-17" on="0"/>
        <pt x="608" y="-17" on="1"/>
        <pt x="392" y="-17" on="0"/>
        <pt x="127" y="243" on="0"/>
        <pt x="127" y="461" on="1"/>
        <pt x="127" y="704" on="1"/>
        <pt x="127" y="920" on="0"/>
        <pt x="391" y="1181" on="0"/>
        <pt x="606" y="1181" on="1"/>
        <pt x="821" y="1181" on="0"/>
        <pt x="1088" y="920" on="0"/>
        <pt x="1088" y="704" on="1"/>
      </contour>
      <contour>
        <pt x="969" y="705" on="1"/>
        <pt x="969" y="885" on="0"/>
        <pt x="775" y="1080" on="0"/>
        <pt x="606" y="1080" on="1"/>
        <pt x="438" y="1080" on="0"/>
        <pt x="247" y="885" on="0"/>
        <pt x="247" y="705" on="1"/>
        <pt x="247" y="461" on="1"/>
        <pt x="247" y="279" on="0"/>
        <pt x="439" y="84" on="0"/>
        <pt x="608" y="84" on="1"/>
        <pt x="777" y="84" on="0"/>
        <pt x="969" y="278" on="0"/>
        <pt x="969" y="461" on="1"/>
      </contour>
    </TTGlyph>
    <TTGlyph name="OE" xMin="108" yMin="-21" xMax="1824" yMax="1477">
      <contour>
        <pt x="1824" y="0" on="1"/>
        <pt x="957" y="0" on="1"/>
        <pt x="860" y="-10" on="0"/>
        <pt x="719" y="-21" on="0"/>
        <pt x="646" y="-21" on="1"/>
        <pt x="407" y="-21" on="0"/>
        <pt x="108" y="311" on="0"/>
        <pt x="108" y="576" on="1"/>
        <pt x="108" y="880" on="1"/>
        <pt x="108" y="1144" on="0"/>
        <pt x="405" y="1477" on="0"/>
        <pt x="644" y="1477" on="1"/>
        <pt x="719" y="1477" on="0"/>
        <pt x="873" y="1465" on="0"/>
        <pt x="957" y="1456" on="1"/>
        <pt x="1819" y="1456" on="1"/>
        <pt x="1819" y="1354" on="1"/>
        <pt x="1021" y="1354" on="1"/>
        <pt x="1021" y="807" on="1"/>
        <pt x="1722" y="807" on="1"/>
        <pt x="1722" y="705" on="1"/>
        <pt x="1021" y="705" on="1"/>
        <pt x="1021" y="101" on="1"/>
        <pt x="1824" y="101" on="1"/>
      </contour>
      <contour>
        <pt x="646" y="81" on="1"/>
        <pt x="712" y="81" on="0"/>
        <pt x="843" y="88" on="0"/>
        <pt x="902" y="96" on="1"/>
        <pt x="902" y="1360" on="1"/>
        <pt x="842" y="1367" on="0"/>
        <pt x="712" y="1375" on="0"/>
        <pt x="644" y="1375" on="1"/>
        <pt x="452" y="1375" on="0"/>
        <pt x="228" y="1111" on="0"/>
        <pt x="228" y="882" on="1"/>
        <pt x="228" y="576" on="1"/>
        <pt x="228" y="348" on="0"/>
        <pt x="455" y="81" on="0"/>
      </contour>
    </TTGlyph>
    <TTGlyph name="Oacute" xMin="124" yMin="-21" xMax="1254" yMax="1844">
      <component glyphName="O" x="0" y="0" flags="0x204"/>
      <component glyphName="acute" x="495" y="366" flags="0x4"/>
    </TTGlyph>
    <TTGlyph name="Oacute.smcp" xMin="127" yMin="-17" xMax="1088" yMax="1516">
      <component glyphName="O.smcp" x="0" y="0" flags="0x204"/>
      <component glyphName="acute" x="395" y="38" flags="0x4"/>
    </TTGlyph>
    <TTGlyph name="Obreve" xMin="124" yMin="-21" xMax="1254" yMax="1875">
      <component glyphName="O" x="0" y="0" flags="0x204"/>
      <component glyphName="breve" x="259" y="419" flags="0x4"/>
    </TTGlyph>
    <TTGlyph name="Obreve.smcp" xMin="127" yMin="-17" xMax="1088" yMax="1547">
      <component glyphName="O.smcp" x="0" y="0" flags="0x204"/>
      <component glyphName="breve" x="159" y="91" flags="0x4"/>
    </TTGlyph>
    <TTGlyph name="Ocircumflex" xMin="124" yMin="-21" xMax="1254" yMax="1864">
      <component glyphName="O" x="0" y="0" flags="0x204"/>
      <component glyphName="circumflex" x="250" y="370" flags="0x4"/>
    </TTGlyph>
    <TTGlyph name="Ocircumflex.smcp" xMin="127" yMin="-17" xMax="1088" yMax="1536">
      <component glyphName="O.smcp" x="0" y="0" flags="0x204"/>
      <component glyphName="circumflex" x="150" y="42" flags="0x4"/>
    </TTGlyph>
    <TTGlyph name="Odieresis" xMin="124" yMin="-21" xMax="1254" yMax="1819">
      <component glyphName="O" x="0" y="0" flags="0x204"/>
      <component glyphName="dieresis" x="207" y="363" flags="0x4"/>
    </TTGlyph>
    <TTGlyph name="Odieresis.smcp" xMin="127" yMin="-17" xMax="1088" yMax="1491">
      <component glyphName="O.smcp" x="0" y="0" flags="0x204"/>
      <component glyphName="dieresis" x="107" y="35" flags="0x4"/>
    </TTGlyph>
    <TTGlyph name="Ograve" xMin="124" yMin="-21" xMax="1254" yMax="1848">
      <component glyphName="O" x="0" y="0" flags="0x204"/>
      <component glyphName="grave" x="305" y="372" flags="0x4"/>
    </TTGlyph>
    <TTGlyph name="Ograve.smcp" xMin="127" yMin="-17" xMax="1088" yMax="1520">
      <component glyphName="O.smcp" x="0" y="0" flags="0x204"/>
      <component glyphName="grave" x="205" y="44" flags="0x4"/>
    </TTGlyph>
    <TTGlyph name="Ohorn" xMin="139" yMin="-21" xMax="1532" yMax="1626">
      <contour>
        <pt x="1269" y="609" on="1"/>
        <pt x="1269" y="327" on="0"/>
        <pt x="960" y="-21" on="0"/>
        <pt x="700" y="-21" on="1"/>
        <pt x="444" y="-21" on="0"/>
        <pt x="139" y="327" on="0"/>
        <pt x="139" y="609" on="1"/>
        <pt x="139" y="846" on="1"/>
        <pt x="139" y="1127" on="0"/>
        <pt x="443" y="1477" on="0"/>
        <pt x="699" y="1477" on="1"/>
        <pt x="836" y="1477" on="0"/>
        <pt x="1057" y="1373" on="0"/>
        <pt x="1133" y="1279" on="1"/>
        <pt x="1270" y="1288" on="0"/>
        <pt x="1412" y="1467" on="0"/>
        <pt x="1412" y="1626" on="1"/>
        <pt x="1532" y="1626" on="1"/>
        <pt x="1532" y="1436" on="0"/>
        <pt x="1356" y="1208" on="0"/>
        <pt x="1195" y="1183" on="1"/>
        <pt x="1231" y="1111" on="0"/>
        <pt x="1269" y="940" on="0"/>
        <pt x="1269" y="846" on="1"/>
      </contour>
      <contour>
        <pt x="1150" y="848" on="1"/>
        <pt x="1150" y="1084" on="0"/>
        <pt x="911" y="1372" on="0"/>
        <pt x="699" y="1372" on="1"/>
        <pt x="491" y="1372" on="0"/>
        <pt x="259" y="1084" on="0"/>
        <pt x="259" y="848" on="1"/>
        <pt x="259" y="609" on="1"/>
        <pt x="259" y="371" on="0"/>
        <pt x="492" y="83" on="0"/>
        <pt x="700" y="83" on="1"/>
        <pt x="913" y="83" on="0"/>
        <pt x="1150" y="370" on="0"/>
        <pt x="1150" y="609" on="1"/>
      </contour>
    </TTGlyph>
    <TTGlyph name="Ohungarumlaut" xMin="124" yMin="-21" xMax="1254" yMax="1888">
      <component glyphName="O" x="0" y="0" flags="0x204"/>
      <component glyphName="hungarumlaut" x="350" y="370" flags="0x4"/>
    </TTGlyph>
    <TTGlyph name="Ohungarumlaut.smcp" xMin="127" yMin="-17" xMax="1088" yMax="1560">
      <component glyphName="O.smcp" x="0" y="0" flags="0x204"/>
      <component glyphName="hungarumlaut" x="250" y="42" flags="0x4"/>
    </TTGlyph>
    <TTGlyph name="Omacron" xMin="124" yMin="-21" xMax="1254" yMax="1807">
      <component glyphName="O" x="0" y="0" flags="0x204"/>
      <component glyphName="macron" x="243" y="351" flags="0x4"/>
    </TTGlyph>
    <TTGlyph name="Omacron.smcp" xMin="127" yMin="-17" xMax="1088" yMax="1479">
      <component glyphName="O.smcp" x="0" y="0" flags="0x204"/>
      <component glyphName="macron" x="143" y="23" flags="0x4"/>
    </TTGlyph>
    <TTGlyph name="Omega" xMin="120" yMin="0" xMax="1212" yMax="1477">
      <contour>
        <pt x="749" y="116" on="1"/>
        <pt x="893" y="165" on="0"/>
        <pt x="1080" y="467" on="0"/>
        <pt x="1080" y="727" on="1"/>
        <pt x="1080" y="846" on="1"/>
        <pt x="1080" y="1085" on="0"/>
        <pt x="853" y="1375" on="0"/>
        <pt x="662" y="1375" on="1"/>
        <pt x="470" y="1375" on="0"/>
        <pt x="245" y="1085" on="0"/>
        <pt x="245" y="846" on="1"/>
        <pt x="245" y="727" on="1"/>
        <pt x="245" y="466" on="0"/>
        <pt x="436" y="164" on="0"/>
        <pt x="583" y="116" on="1"/>
        <pt x="583" y="0" on="1"/>
        <pt x="120" y="0" on="1"/>
        <pt x="120" y="101" on="1"/>
        <pt x="419" y="101" on="1"/>
        <pt x="287" y="191" on="0"/>
        <pt x="126" y="517" on="0"/>
        <pt x="126" y="727" on="1"/>
        <pt x="126" y="844" on="1"/>
        <pt x="126" y="1127" on="0"/>
        <pt x="422" y="1477" on="0"/>
        <pt x="662" y="1477" on="1"/>
        <pt x="901" y="1477" on="0"/>
        <pt x="1200" y="1126" on="0"/>
        <pt x="1200" y="844" on="1"/>
        <pt x="1200" y="727" on="1"/>
        <pt x="1200" y="518" on="0"/>
        <pt x="1039" y="191" on="0"/>
        <pt x="909" y="101" on="1"/>
        <pt x="1212" y="101" on="1"/>
        <pt x="1212" y="0" on="1"/>
        <pt x="749" y="0" on="1"/>
      </contour>
    </TTGlyph>
    <TTGlyph name="Omegatonos" xMin="88" yMin="0" xMax="1232" yMax="1617">
      <component glyphName="Omega" x="20" y="0" flags="0x4"/>
      <component glyphName="tonos" x="-104" y="0" flags="0x4"/>
    </TTGlyph>
    <TTGlyph name="Omicron" xMin="124" yMin="-21" xMax="1254" yMax="1477">
      <component glyphName="O" x="0" y="0" flags="0x204"/>
    </TTGlyph>
    <TTGlyph name="Omicrontonos" xMin="59" yMin="-21" xMax="1274" yMax="1617">
      <component glyphName="O" x="20" y="0" flags="0x4"/>
      <component glyphName="tonos" x="-133" y="0" flags="0x4"/>
    </TTGlyph>
    <TTGlyph name="Oslash" xMin="124" yMin="-84" xMax="1254" yMax="1505">
      <contour>
        <pt x="1254" y="609" on="1"/>
        <pt x="1254" y="327" on="0"/>
        <pt x="945" y="-21" on="0"/>
        <pt x="685" y="-21" on="1"/>
        <pt x="593" y="-21" on="0"/>
        <pt x="434" y="26" on="0"/>
        <pt x="369" y="71" on="1"/>
        <pt x="273" y="-84" on="1"/>
        <pt x="169" y="-84" on="1"/>
        <pt x="300" y="128" on="1"/>
        <pt x="214" y="212" on="0"/>
        <pt x="124" y="459" on="0"/>
        <pt x="124" y="609" on="1"/>
        <pt x="124" y="846" on="1"/>
        <pt x="124" y="1127" on="0"/>
        <pt x="428" y="1477" on="0"/>
        <pt x="684" y="1477" on="1"/>
        <pt x="793" y="1477" on="0"/>
        <pt x="978" y="1411" on="0"/>
        <pt x="1051" y="1349" on="1"/>
        <pt x="1147" y="1505" on="1"/>
        <pt x="1251" y="1505" on="1"/>
        <pt x="1115" y="1283" on="1"/>
        <pt x="1182" y="1199" on="0"/>
        <pt x="1254" y="976" on="0"/>
        <pt x="1254" y="846" on="1"/>
      </contour>
      <contour>
        <pt x="244" y="609" on="1"/>
        <pt x="244" y="491" on="0"/>
        <pt x="303" y="298" on="0"/>
        <pt x="359" y="234" on="1"/>
        <pt x="365" y="233" on="1"/>
        <pt x="992" y="1254" on="1"/>
        <pt x="934" y="1311" on="0"/>
        <pt x="779" y="1372" on="0"/>
        <pt x="684" y="1372" on="1"/>
        <pt x="476" y="1372" on="0"/>
        <pt x="244" y="1084" on="0"/>
        <pt x="244" y="848" on="1"/>
      </contour>
      <contour>
        <pt x="1135" y="848" on="1"/>
        <pt x="1135" y="945" on="0"/>
        <pt x="1092" y="1112" on="0"/>
        <pt x="1053" y="1173" on="1"/>
        <pt x="1047" y="1173" on="1"/>
        <pt x="426" y="164" on="1"/>
        <pt x="477" y="124" on="0"/>
        <pt x="608" y="83" on="0"/>
        <pt x="685" y="83" on="1"/>
        <pt x="898" y="83" on="0"/>
        <pt x="1135" y="370" on="0"/>
        <pt x="1135" y="609" on="1"/>
      </contour>
    </TTGlyph>
    <TTGlyph name="Oslashacute" xMin="124" yMin="-84" xMax="1254" yMax="1885">
      <component glyphName="Oslash" x="0" y="0" flags="0x204"/>
      <component glyphName="acute" x="515" y="407" flags="0x4"/>
    </TTGlyph>
    <TTGlyph name="Otilde" xMin="124" yMin="-21" xMax="1254" yMax="1863">
      <component glyphName="O" x="0" y="0" flags="0x204"/>
      <component glyphName="tilde" x="239" y="362" flags="0x4"/>
    </TTGlyph>
    <TTGlyph name="Otilde.smcp" xMin="127" yMin="-17" xMax="1088" yMax="1535">
      <component glyphName="O.smcp" x="0" y="0" flags="0x204"/>
      <component glyphName="tilde" x="139" y="34" flags="0x4"/>
    </TTGlyph>
    <TTGlyph name="P" xMin="191" yMin="0" xMax="1172" yMax="1456">
      <contour>
        <pt x="310" y="605" on="1"/>
        <pt x="310" y="0" on="1"/>
        <pt x="191" y="0" on="1"/>
        <pt x="191" y="1456" on="1"/>
        <pt x="692" y="1456" on="1"/>
        <pt x="921" y="1456" on="0"/>
        <pt x="1172" y="1223" on="0"/>
        <pt x="1172" y="1031" on="1"/>
        <pt x="1172" y="837" on="0"/>
        <pt x="921" y="605" on="0"/>
        <pt x="692" y="605" on="1"/>
      </contour>
      <contour>
        <pt x="310" y="707" on="1"/>
        <pt x="692" y="707" on="1"/>
        <pt x="872" y="707" on="0"/>
        <pt x="1053" y="890" on="0"/>
        <pt x="1053" y="1029" on="1"/>
        <pt x="1053" y="1169" on="0"/>
        <pt x="873" y="1354" on="0"/>
        <pt x="692" y="1354" on="1"/>
        <pt x="310" y="1354" on="1"/>
      </contour>
    </TTGlyph>
    <TTGlyph name="P.smcp" xMin="168" yMin="0" xMax="1018" yMax="1165">
      <contour>
        <pt x="288" y="436" on="1"/>
        <pt x="288" y="0" on="1"/>
        <pt x="168" y="0" on="1"/>
        <pt x="168" y="1165" on="1"/>
        <pt x="610" y="1165" on="1"/>
        <pt x="801" y="1165" on="0"/>
        <pt x="1018" y="961" on="0"/>
        <pt x="1018" y="800" on="1"/>
        <pt x="1018" y="638" on="0"/>
        <pt x="801" y="436" on="0"/>
        <pt x="610" y="436" on="1"/>
      </contour>
      <contour>
        <pt x="288" y="537" on="1"/>
        <pt x="610" y="537" on="1"/>
        <pt x="752" y="537" on="0"/>
        <pt x="898" y="688" on="0"/>
        <pt x="898" y="798" on="1"/>
        <pt x="898" y="910" on="0"/>
        <pt x="753" y="1064" on="0"/>
        <pt x="610" y="1064" on="1"/>
        <pt x="288" y="1064" on="1"/>
      </contour>
    </TTGlyph>
    <TTGlyph name="Phi" xMin="89" yMin="0" xMax="1375" yMax="1456">
      <contour>
        <pt x="791" y="1268" on="1"/>
        <pt x="793" y="1268" on="1"/>
        <pt x="1050" y="1268" on="0"/>
        <pt x="1375" y="963" on="0"/>
        <pt x="1375" y="732" on="1"/>
        <pt x="1375" y="498" on="0"/>
        <pt x="1050" y="193" on="0"/>
        <pt x="793" y="193" on="1"/>
        <pt x="791" y="193" on="1"/>
        <pt x="791" y="0" on="1"/>
        <pt x="671" y="0" on="1"/>
        <pt x="671" y="193" on="1"/>
        <pt x="670" y="193" on="1"/>
        <pt x="412" y="193" on="0"/>
        <pt x="89" y="496" on="0"/>
        <pt x="89" y="730" on="1"/>
        <pt x="89" y="962" on="0"/>
        <pt x="412" y="1268" on="0"/>
        <pt x="670" y="1268" on="1"/>
        <pt x="671" y="1268" on="1"/>
        <pt x="671" y="1456" on="1"/>
        <pt x="791" y="1456" on="1"/>
      </contour>
      <contour>
        <pt x="791" y="1166" on="1"/>
        <pt x="791" y="294" on="1"/>
        <pt x="795" y="294" on="1"/>
        <pt x="1008" y="294" on="0"/>
        <pt x="1255" y="537" on="0"/>
        <pt x="1255" y="732" on="1"/>
        <pt x="1255" y="924" on="0"/>
        <pt x="1007" y="1166" on="0"/>
        <pt x="795" y="1166" on="1"/>
      </contour>
      <contour>
        <pt x="670" y="1166" on="1"/>
        <pt x="455" y="1166" on="0"/>
        <pt x="208" y="923" on="0"/>
        <pt x="208" y="730" on="1"/>
        <pt x="208" y="534" on="0"/>
        <pt x="454" y="294" on="0"/>
        <pt x="670" y="294" on="1"/>
        <pt x="671" y="294" on="1"/>
        <pt x="671" y="1166" on="1"/>
      </contour>
    </TTGlyph>
    <TTGlyph name="Pi" xMin="191" yMin="0" xMax="1258" yMax="1456">
      <contour>
        <pt x="1258" y="0" on="1"/>
        <pt x="1139" y="0" on="1"/>
        <pt x="1139" y="1354" on="1"/>
        <pt x="310" y="1354" on="1"/>
        <pt x="310" y="0" on="1"/>
        <pt x="191" y="0" on="1"/>
        <pt x="191" y="1456" on="1"/>
        <pt x="1258" y="1456" on="1"/>
      </contour>
    </TTGlyph>
    <TTGlyph name="Psi" xMin="124" yMin="0" xMax="1289" yMax="1456">
      <contour>
        <pt x="762" y="459" on="1"/>
        <pt x="768" y="457" on="1"/>
        <pt x="947" y="466" on="0"/>
        <pt x="1169" y="702" on="0"/>
        <pt x="1169" y="896" on="1"/>
        <pt x="1169" y="1456" on="1"/>
        <pt x="1289" y="1456" on="1"/>
        <pt x="1289" y="896" on="1"/>
        <pt x="1289" y="650" on="0"/>
        <pt x="998" y="362" on="0"/>
        <pt x="762" y="348" on="1"/>
        <pt x="762" y="0" on="1"/>
        <pt x="641" y="0" on="1"/>
        <pt x="641" y="349" on="1"/>
        <pt x="408" y="364" on="0"/>
        <pt x="124" y="652" on="0"/>
        <pt x="124" y="896" on="1"/>
        <pt x="124" y="1456" on="1"/>
        <pt x="244" y="1456" on="1"/>
        <pt x="244" y="896" on="1"/>
        <pt x="244" y="703" on="0"/>
        <pt x="460" y="468" on="0"/>
        <pt x="635" y="457" on="1"/>
        <pt x="641" y="459" on="1"/>
        <pt x="641" y="1456" on="1"/>
        <pt x="762" y="1456" on="1"/>
      </contour>
    </TTGlyph>
    <TTGlyph name="Q" xMin="124" yMin="-212" xMax="1294" yMax="1477">
      <contour>
        <pt x="1254" y="609" on="1"/>
        <pt x="1254" y="445" on="0"/>
        <pt x="1145" y="182" on="0"/>
        <pt x="1044" y="99" on="1"/>
        <pt x="1294" y="-137" on="1"/>
        <pt x="1211" y="-212" on="1"/>
        <pt x="947" y="37" on="1"/>
        <pt x="888" y="8" on="0"/>
        <pt x="757" y="-21" on="0"/>
        <pt x="685" y="-21" on="1"/>
        <pt x="429" y="-21" on="0"/>
        <pt x="124" y="327" on="0"/>
        <pt x="124" y="609" on="1"/>
        <pt x="124" y="846" on="1"/>
        <pt x="124" y="1127" on="0"/>
        <pt x="428" y="1477" on="0"/>
        <pt x="684" y="1477" on="1"/>
        <pt x="944" y="1477" on="0"/>
        <pt x="1254" y="1127" on="0"/>
        <pt x="1254" y="846" on="1"/>
      </contour>
      <contour>
        <pt x="1135" y="848" on="1"/>
        <pt x="1135" y="1084" on="0"/>
        <pt x="896" y="1372" on="0"/>
        <pt x="684" y="1372" on="1"/>
        <pt x="476" y="1372" on="0"/>
        <pt x="244" y="1084" on="0"/>
        <pt x="244" y="848" on="1"/>
        <pt x="244" y="609" on="1"/>
        <pt x="244" y="371" on="0"/>
        <pt x="477" y="83" on="0"/>
        <pt x="685" y="83" on="1"/>
        <pt x="898" y="83" on="0"/>
        <pt x="1135" y="370" on="0"/>
        <pt x="1135" y="609" on="1"/>
      </contour>
    </TTGlyph>
    <TTGlyph name="Q.smcp" xMin="127" yMin="-111" xMax="1176" yMax="1181">
      <contour>
        <pt x="1088" y="461" on="1"/>
        <pt x="1088" y="365" on="0"/>
        <pt x="1034" y="205" on="0"/>
        <pt x="984" y="144" on="1"/>
        <pt x="1176" y="-37" on="1"/>
        <pt x="1093" y="-111" on="1"/>
        <pt x="900" y="67" on="1"/>
        <pt x="841" y="25" on="0"/>
        <pt x="693" y="-17" on="0"/>
        <pt x="608" y="-17" on="1"/>
        <pt x="392" y="-17" on="0"/>
        <pt x="127" y="243" on="0"/>
        <pt x="127" y="461" on="1"/>
        <pt x="127" y="704" on="1"/>
        <pt x="127" y="920" on="0"/>
        <pt x="391" y="1181" on="0"/>
        <pt x="606" y="1181" on="1"/>
        <pt x="821" y="1181" on="0"/>
        <pt x="1088" y="920" on="0"/>
        <pt x="1088" y="704" on="1"/>
      </contour>
      <contour>
        <pt x="969" y="705" on="1"/>
        <pt x="969" y="885" on="0"/>
        <pt x="775" y="1080" on="0"/>
        <pt x="606" y="1080" on="1"/>
        <pt x="438" y="1080" on="0"/>
        <pt x="247" y="885" on="0"/>
        <pt x="247" y="705" on="1"/>
        <pt x="247" y="461" on="1"/>
        <pt x="247" y="279" on="0"/>
        <pt x="439" y="84" on="0"/>
        <pt x="608" y="84" on="1"/>
        <pt x="777" y="84" on="0"/>
        <pt x="969" y="278" on="0"/>
        <pt x="969" y="461" on="1"/>
      </contour>
    </TTGlyph>
    <TTGlyph name="R" xMin="188" yMin="0" xMax="1232" yMax="1455">
      <contour>
        <pt x="307" y="658" on="1"/>
        <pt x="307" y="0" on="1"/>
        <pt x="188" y="0" on="1"/>
        <pt x="188" y="1455" on="1"/>
        <pt x="681" y="1455" on="1"/>
        <pt x="915" y="1455" on="0"/>
        <pt x="1165" y="1250" on="0"/>
        <pt x="1165" y="1053" on="1"/>
        <pt x="1165" y="937" on="0"/>
        <pt x="1031" y="754" on="0"/>
        <pt x="909" y="712" on="1"/>
        <pt x="1044" y="678" on="0"/>
        <pt x="1163" y="503" on="0"/>
        <pt x="1163" y="371" on="1"/>
        <pt x="1163" y="234" on="1"/>
        <pt x="1163" y="166" on="0"/>
        <pt x="1195" y="58" on="0"/>
        <pt x="1232" y="24" on="1"/>
        <pt x="1232" y="0" on="1"/>
        <pt x="1110" y="0" on="1"/>
        <pt x="1073" y="36" on="0"/>
        <pt x="1043" y="166" on="0"/>
        <pt x="1043" y="236" on="1"/>
        <pt x="1043" y="369" on="1"/>
        <pt x="1043" y="503" on="0"/>
        <pt x="870" y="658" on="0"/>
        <pt x="715" y="658" on="1"/>
      </contour>
      <contour>
        <pt x="307" y="760" on="1"/>
        <pt x="666" y="760" on="1"/>
        <pt x="863" y="760" on="0"/>
        <pt x="1045" y="919" on="0"/>
        <pt x="1045" y="1054" on="1"/>
        <pt x="1045" y="1198" on="0"/>
        <pt x="864" y="1353" on="0"/>
        <pt x="681" y="1353" on="1"/>
        <pt x="307" y="1353" on="1"/>
      </contour>
    </TTGlyph>
    <TTGlyph name="R.smcp" xMin="168" yMin="0" xMax="1038" yMax="1165">
      <contour>
        <pt x="288" y="509" on="1"/>
        <pt x="288" y="0" on="1"/>
        <pt x="168" y="0" on="1"/>
        <pt x="168" y="1165" on="1"/>
        <pt x="611" y="1165" on="1"/>
        <pt x="806" y="1165" on="0"/>
        <pt x="1016" y="995" on="0"/>
        <pt x="1016" y="836" on="1"/>
        <pt x="1016" y="738" on="0"/>
        <pt x="918" y="600" on="0"/>
        <pt x="820" y="565" on="1"/>
        <pt x="924" y="536" on="0"/>
        <pt x="1015" y="396" on="0"/>
        <pt x="1015" y="291" on="1"/>
        <pt x="1015" y="172" on="1"/>
        <pt x="1015" y="122" on="0"/>
        <pt x="1024" y="42" on="0"/>
        <pt x="1038" y="19" on="1"/>
        <pt x="1038" y="0" on="1"/>
        <pt x="913" y="0" on="1"/>
        <pt x="901" y="24" on="0"/>
        <pt x="895" y="121" on="0"/>
        <pt x="895" y="173" on="1"/>
        <pt x="895" y="289" on="1"/>
        <pt x="895" y="393" on="0"/>
        <pt x="765" y="509" on="0"/>
        <pt x="645" y="509" on="1"/>
      </contour>
      <contour>
        <pt x="288" y="610" on="1"/>
        <pt x="611" y="610" on="1"/>
        <pt x="761" y="610" on="0"/>
        <pt x="896" y="722" on="0"/>
        <pt x="896" y="833" on="1"/>
        <pt x="896" y="944" on="0"/>
        <pt x="761" y="1064" on="0"/>
        <pt x="611" y="1064" on="1"/>
        <pt x="288" y="1064" on="1"/>
      </contour>
    </TTGlyph>
    <TTGlyph name="Racute" xMin="188" yMin="0" xMax="1232" yMax="1823">
      <component glyphName="R" x="0" y="0" flags="0x204"/>
      <component glyphName="acute" x="421" y="345" flags="0x4"/>
    </TTGlyph>
    <TTGlyph name="Racute.smcp" xMin="168" yMin="0" xMax="1038" yMax="1500">
      <component glyphName="R.smcp" x="0" y="0" flags="0x204"/>
      <component glyphName="acute" x="303" y="22" flags="0x4"/>
    </TTGlyph>
    <TTGlyph name="Rcaron" xMin="188" yMin="0" xMax="1232" yMax="1845">
      <component glyphName="R" x="0" y="0" flags="0x204"/>
      <component glyphName="caron" x="194" y="351" flags="0x4"/>
    </TTGlyph>
    <TTGlyph name="Rcaron.smcp" xMin="168" yMin="0" xMax="1038" yMax="1522">
      <component glyphName="R.smcp" x="0" y="0" flags="0x204"/>
      <component glyphName="caron" x="76" y="28" flags="0x4"/>
    </TTGlyph>
    <TTGlyph name="Rcommaaccent" xMin="188" yMin="-453" xMax="1232" yMax="1455">
      <component glyphName="R" x="0" y="0" flags="0x204"/>
      <component glyphName="commaaccent" x="365" y="-298" flags="0x4"/>
    </TTGlyph>
    <TTGlyph name="Rcommaaccent.smcp" xMin="168" yMin="-455" xMax="1038" yMax="1165">
      <component glyphName="R.smcp" x="0" y="0" flags="0x204"/>
      <component glyphName="commaaccent" x="247" y="-300" flags="0x4"/>
    </TTGlyph>
    <TTGlyph name="Rho" xMin="191" yMin="0" xMax="1172" yMax="1456">
      <component glyphName="P" x="0" y="0" flags="0x204"/>
    </TTGlyph>
    <TTGlyph name="S" xMin="95" yMin="-21" xMax="1144" yMax="1477">
      <contour>
        <pt x="1024" y="357" on="1"/>
        <pt x="1024" y="476" on="0"/>
        <pt x="846" y="627" on="0"/>
        <pt x="625" y="685" on="1"/>
        <pt x="386" y="745" on="0"/>
        <pt x="140" y="937" on="0"/>
        <pt x="140" y="1100" on="1"/>
        <pt x="140" y="1267" on="0"/>
        <pt x="415" y="1477" on="0"/>
        <pt x="631" y="1477" on="1"/>
        <pt x="856" y="1477" on="0"/>
        <pt x="1132" y="1227" on="0"/>
        <pt x="1128" y="1047" on="1"/>
        <pt x="1125" y="1041" on="1"/>
        <pt x="1015" y="1041" on="1"/>
        <pt x="1015" y="1187" on="0"/>
        <pt x="808" y="1375" on="0"/>
        <pt x="631" y="1375" on="1"/>
        <pt x="456" y="1375" on="0"/>
        <pt x="259" y="1219" on="0"/>
        <pt x="259" y="1103" on="1"/>
        <pt x="259" y="993" on="0"/>
        <pt x="441" y="846" on="0"/>
        <pt x="664" y="790" on="1"/>
        <pt x="899" y="730" on="0"/>
        <pt x="1144" y="526" on="0"/>
        <pt x="1144" y="359" on="1"/>
        <pt x="1144" y="185" on="0"/>
        <pt x="859" y="-21" on="0"/>
        <pt x="638" y="-21" on="1"/>
        <pt x="420" y="-21" on="0"/>
        <pt x="95" y="198" on="0"/>
        <pt x="100" y="408" on="1"/>
        <pt x="102" y="414" on="1"/>
        <pt x="212" y="414" on="1"/>
        <pt x="212" y="244" on="0"/>
        <pt x="466" y="80" on="0"/>
        <pt x="638" y="80" on="1"/>
        <pt x="811" y="80" on="0"/>
        <pt x="1024" y="232" on="0"/>
      </contour>
    </TTGlyph>
    <TTGlyph name="S.smcp" xMin="105" yMin="-17" xMax="1013" yMax="1181">
      <contour>
        <pt x="893" y="291" on="1"/>
        <pt x="893" y="377" on="0"/>
        <pt x="750" y="480" on="0"/>
        <pt x="558" y="531" on="1"/>
        <pt x="342" y="588" on="0"/>
        <pt x="144" y="732" on="0"/>
        <pt x="144" y="873" on="1"/>
        <pt x="144" y="1013" on="0"/>
        <pt x="375" y="1181" on="0"/>
        <pt x="570" y="1181" on="1"/>
        <pt x="770" y="1181" on="0"/>
        <pt x="995" y="998" on="0"/>
        <pt x="990" y="834" on="1"/>
        <pt x="988" y="828" on="1"/>
        <pt x="877" y="828" on="1"/>
        <pt x="877" y="940" on="0"/>
        <pt x="715" y="1080" on="0"/>
        <pt x="570" y="1080" on="1"/>
        <pt x="419" y="1080" on="0"/>
        <pt x="264" y="962" on="0"/>
        <pt x="264" y="874" on="1"/>
        <pt x="264" y="786" on="0"/>
        <pt x="395" y="685" on="0"/>
        <pt x="596" y="634" on="1"/>
        <pt x="810" y="577" on="0"/>
        <pt x="1013" y="430" on="0"/>
        <pt x="1013" y="292" on="1"/>
        <pt x="1013" y="147" on="0"/>
        <pt x="767" y="-17" on="0"/>
        <pt x="558" y="-17" on="1"/>
        <pt x="366" y="-17" on="0"/>
        <pt x="105" y="150" on="0"/>
        <pt x="110" y="330" on="1"/>
        <pt x="112" y="336" on="1"/>
        <pt x="223" y="336" on="1"/>
        <pt x="223" y="203" on="0"/>
        <pt x="419" y="84" on="0"/>
        <pt x="558" y="84" on="1"/>
        <pt x="714" y="84" on="0"/>
        <pt x="893" y="202" on="0"/>
      </contour>
    </TTGlyph>
    <TTGlyph name="Sacute" xMin="95" yMin="-21" xMax="1144" yMax="1844">
      <component glyphName="S" x="0" y="0" flags="0x204"/>
      <component glyphName="acute" x="430" y="366" flags="0x4"/>
    </TTGlyph>
    <TTGlyph name="Sacute.smcp" xMin="105" yMin="-17" xMax="1013" yMax="1516">
      <component glyphName="S.smcp" x="0" y="0" flags="0x204"/>
      <component glyphName="acute" x="365" y="38" flags="0x4"/>
    </TTGlyph>
    <TTGlyph name="Scaron" xMin="95" yMin="-21" xMax="1144" yMax="1866">
      <component glyphName="S" x="0" y="0" flags="0x204"/>
      <component glyphName="caron" x="203" y="372" flags="0x4"/>
    </TTGlyph>
    <TTGlyph name="Scaron.smcp" xMin="105" yMin="-17" xMax="1013" yMax="1538">
      <component glyphName="S.smcp" x="0" y="0" flags="0x204"/>
      <component glyphName="caron" x="138" y="44" flags="0x4"/>
    </TTGlyph>
    <TTGlyph name="Scedilla" xMin="95" yMin="-443" xMax="1144" yMax="1477">
      <component glyphName="S" x="0" y="0" flags="0x204"/>
      <component glyphName="cedilla" x="425" y="-8" flags="0x4"/>
    </TTGlyph>
    <TTGlyph name="Scedilla.smcp" xMin="105" yMin="-440" xMax="1013" yMax="1181">
      <component glyphName="S.smcp" x="0" y="0" flags="0x204"/>
      <component glyphName="cedilla" x="360" y="-5" flags="0x4"/>
    </TTGlyph>
    <TTGlyph name="Scircumflex" xMin="95" yMin="-21" xMax="1144" yMax="1864">
      <component glyphName="S" x="0" y="0" flags="0x204"/>
      <component glyphName="circumflex" x="185" y="370" flags="0x4"/>
    </TTGlyph>
    <TTGlyph name="Scircumflex.smcp" xMin="105" yMin="-17" xMax="1013" yMax="1536">
      <component glyphName="S.smcp" x="0" y="0" flags="0x204"/>
      <component glyphName="circumflex" x="120" y="42" flags="0x4"/>
    </TTGlyph>
    <TTGlyph name="Sigma" xMin="63" yMin="0" xMax="1070" yMax="1456">
      <contour>
        <pt x="703" y="743" on="1"/>
        <pt x="213" y="102" on="1"/>
        <pt x="1070" y="102" on="1"/>
        <pt x="1070" y="0" on="1"/>
        <pt x="63" y="0" on="1"/>
        <pt x="63" y="93" on="1"/>
        <pt x="579" y="759" on="1"/>
        <pt x="63" y="1363" on="1"/>
        <pt x="63" y="1456" on="1"/>
        <pt x="1015" y="1456" on="1"/>
        <pt x="1015" y="1354" on="1"/>
        <pt x="227" y="1354" on="1"/>
        <pt x="225" y="1349" on="1"/>
        <pt x="703" y="779" on="1"/>
      </contour>
    </TTGlyph>
    <TTGlyph name="T" xMin="45" yMin="0" xMax="1167" yMax="1456">
      <contour>
        <pt x="1167" y="1354" on="1"/>
        <pt x="666" y="1354" on="1"/>
        <pt x="666" y="0" on="1"/>
        <pt x="546" y="0" on="1"/>
        <pt x="546" y="1354" on="1"/>
        <pt x="45" y="1354" on="1"/>
        <pt x="45" y="1456" on="1"/>
        <pt x="1167" y="1456" on="1"/>
      </contour>
    </TTGlyph>
    <TTGlyph name="T.smcp" xMin="72" yMin="0" xMax="965" yMax="1165">
      <contour>
        <pt x="965" y="1064" on="1"/>
        <pt x="571" y="1064" on="1"/>
        <pt x="571" y="0" on="1"/>
        <pt x="451" y="0" on="1"/>
        <pt x="451" y="1064" on="1"/>
        <pt x="72" y="1064" on="1"/>
        <pt x="72" y="1165" on="1"/>
        <pt x="965" y="1165" on="1"/>
      </contour>
    </TTGlyph>
    <TTGlyph name="Tau" xMin="45" yMin="0" xMax="1167" yMax="1456">
      <component glyphName="T" x="0" y="0" flags="0x204"/>
    </TTGlyph>
    <TTGlyph name="Tbar" xMin="45" yMin="0" xMax="1167" yMax="1456">
      <contour>
        <pt x="901" y="834" on="1"/>
        <pt x="666" y="834" on="1"/>
        <pt x="666" y="0" on="1"/>
        <pt x="546" y="0" on="1"/>
        <pt x="546" y="834" on="1"/>
        <pt x="289" y="834" on="1"/>
        <pt x="289" y="936" on="1"/>
        <pt x="546" y="936" on="1"/>
        <pt x="546" y="1354" on="1"/>
        <pt x="45" y="1354" on="1"/>
        <pt x="45" y="1456" on="1"/>
        <pt x="1167" y="1456" on="1"/>
        <pt x="1167" y="1354" on="1"/>
        <pt x="666" y="1354" on="1"/>
        <pt x="666" y="936" on="1"/>
        <pt x="901" y="936" on="1"/>
      </contour>
    </TTGlyph>
    <TTGlyph name="Tbar.smcp" xMin="72" yMin="0" xMax="965" yMax="1165">
      <component glyphName="T.smcp" x="0" y="0" flags="0x204"/>
      <component glyphName="crossbar" x="75" y="-28" flags="0x4"/>
    </TTGlyph>
    <TTGlyph name="Tcaron" xMin="45" yMin="0" xMax="1167" yMax="1840">
      <component glyphName="T" x="0" y="0" flags="0x204"/>
      <component glyphName="caron" x="188" y="346" flags="0x4"/>
    </TTGlyph>
    <TTGlyph name="Tcaron.smcp" xMin="72" yMin="0" xMax="965" yMax="1518">
      <component glyphName="T.smcp" x="0" y="0" flags="0x204"/>
      <component glyphName="caron" x="96" y="24" flags="0x4"/>
    </TTGlyph>
    <TTGlyph name="Tcommaaccent.smcp" xMin="72" yMin="-455" xMax="965" yMax="1165">
      <component glyphName="T.smcp" x="0" y="0" flags="0x204"/>
      <component glyphName="commaaccent" x="268" y="-300" flags="0x4"/>
    </TTGlyph>
    <TTGlyph name="Theta" xMin="124" yMin="-21" xMax="1254" yMax="1477">
      <contour>
        <pt x="966" y="676" on="1"/>
        <pt x="412" y="676" on="1"/>
        <pt x="412" y="777" on="1"/>
        <pt x="966" y="777" on="1"/>
      </contour>
      <contour>
        <pt x="1254" y="609" on="1"/>
        <pt x="1254" y="327" on="0"/>
        <pt x="945" y="-21" on="0"/>
        <pt x="685" y="-21" on="1"/>
        <pt x="429" y="-21" on="0"/>
        <pt x="124" y="327" on="0"/>
        <pt x="124" y="609" on="1"/>
        <pt x="124" y="846" on="1"/>
        <pt x="124" y="1127" on="0"/>
        <pt x="428" y="1477" on="0"/>
        <pt x="684" y="1477" on="1"/>
        <pt x="944" y="1477" on="0"/>
        <pt x="1254" y="1127" on="0"/>
        <pt x="1254" y="846" on="1"/>
      </contour>
      <contour>
        <pt x="1135" y="848" on="1"/>
        <pt x="1135" y="1084" on="0"/>
        <pt x="896" y="1372" on="0"/>
        <pt x="684" y="1372" on="1"/>
        <pt x="476" y="1372" on="0"/>
        <pt x="244" y="1084" on="0"/>
        <pt x="244" y="848" on="1"/>
        <pt x="244" y="609" on="1"/>
        <pt x="244" y="371" on="0"/>
        <pt x="477" y="83" on="0"/>
        <pt x="685" y="83" on="1"/>
        <pt x="898" y="83" on="0"/>
        <pt x="1135" y="370" on="0"/>
        <pt x="1135" y="609" on="1"/>
      </contour>
    </TTGlyph>
    <TTGlyph name="Thorn" xMin="183" yMin="0" xMax="1096" yMax="1456">
      <contour>
        <pt x="303" y="1456" on="1"/>
        <pt x="303" y="1152" on="1"/>
        <pt x="627" y="1152" on="1"/>
        <pt x="848" y="1152" on="0"/>
        <pt x="1096" y="921" on="0"/>
        <pt x="1096" y="738" on="1"/>
        <pt x="1096" y="553" on="0"/>
        <pt x="848" y="324" on="0"/>
        <pt x="627" y="324" on="1"/>
        <pt x="303" y="324" on="1"/>
        <pt x="303" y="0" on="1"/>
        <pt x="183" y="0" on="1"/>
        <pt x="183" y="1456" on="1"/>
      </contour>
      <contour>
        <pt x="303" y="1051" on="1"/>
        <pt x="303" y="425" on="1"/>
        <pt x="627" y="425" on="1"/>
        <pt x="800" y="425" on="0"/>
        <pt x="976" y="609" on="0"/>
        <pt x="976" y="736" on="1"/>
        <pt x="976" y="866" on="0"/>
        <pt x="800" y="1051" on="0"/>
        <pt x="627" y="1051" on="1"/>
      </contour>
    </TTGlyph>
    <TTGlyph name="U" xMin="167" yMin="-21" xMax="1209" yMax="1456">
      <contour>
        <pt x="1209" y="1456" on="1"/>
        <pt x="1209" y="469" on="1"/>
        <pt x="1209" y="231" on="0"/>
        <pt x="918" y="-21" on="0"/>
        <pt x="684" y="-21" on="1"/>
        <pt x="453" y="-21" on="0"/>
        <pt x="167" y="232" on="0"/>
        <pt x="167" y="469" on="1"/>
        <pt x="167" y="1456" on="1"/>
        <pt x="287" y="1456" on="1"/>
        <pt x="287" y="469" on="1"/>
        <pt x="287" y="283" on="0"/>
        <pt x="507" y="80" on="0"/>
        <pt x="684" y="80" on="1"/>
        <pt x="864" y="80" on="0"/>
        <pt x="1090" y="282" on="0"/>
        <pt x="1090" y="469" on="1"/>
        <pt x="1090" y="1456" on="1"/>
      </contour>
    </TTGlyph>
    <TTGlyph name="U.smcp" xMin="156" yMin="-17" xMax="1117" yMax="1165">
      <contour>
        <pt x="1117" y="1165" on="1"/>
        <pt x="1117" y="394" on="1"/>
        <pt x="1117" y="201" on="0"/>
        <pt x="849" y="-17" on="0"/>
        <pt x="637" y="-17" on="1"/>
        <pt x="424" y="-17" on="0"/>
        <pt x="156" y="201" on="0"/>
        <pt x="156" y="394" on="1"/>
        <pt x="156" y="1165" on="1"/>
        <pt x="275" y="1165" on="1"/>
        <pt x="275" y="394" on="1"/>
        <pt x="275" y="251" on="0"/>
        <pt x="478" y="84" on="0"/>
        <pt x="637" y="84" on="1"/>
        <pt x="796" y="84" on="0"/>
        <pt x="998" y="251" on="0"/>
        <pt x="998" y="394" on="1"/>
        <pt x="998" y="1165" on="1"/>
      </contour>
    </TTGlyph>
    <TTGlyph name="Uacute" xMin="167" yMin="-21" xMax="1209" yMax="1823">
      <component glyphName="U" x="0" y="0" flags="0x204"/>
      <component glyphName="acute" x="506" y="345" flags="0x4"/>
    </TTGlyph>
    <TTGlyph name="Uacute.smcp" xMin="156" yMin="-17" xMax="1117" yMax="1501">
      <component glyphName="U.smcp" x="0" y="0" flags="0x204"/>
      <component glyphName="acute" x="440" y="23" flags="0x4"/>
    </TTGlyph>
    <TTGlyph name="Ubreve" xMin="167" yMin="-21" xMax="1209" yMax="1854">
      <component glyphName="U" x="0" y="0" flags="0x204"/>
      <component glyphName="breve" x="270" y="398" flags="0x4"/>
    </TTGlyph>
    <TTGlyph name="Ubreve.smcp" xMin="156" yMin="-17" xMax="1117" yMax="1532">
      <component glyphName="U.smcp" x="0" y="0" flags="0x204"/>
      <component glyphName="breve" x="204" y="76" flags="0x4"/>
    </TTGlyph>
    <TTGlyph name="Ucircumflex" xMin="167" yMin="-21" xMax="1209" yMax="1843">
      <component glyphName="U" x="0" y="0" flags="0x204"/>
      <component glyphName="circumflex" x="261" y="349" flags="0x4"/>
    </TTGlyph>
    <TTGlyph name="Ucircumflex.smcp" xMin="156" yMin="-17" xMax="1117" yMax="1521">
      <component glyphName="U.smcp" x="0" y="0" flags="0x204"/>
      <component glyphName="circumflex" x="195" y="27" flags="0x4"/>
    </TTGlyph>
    <TTGlyph name="Udieresis" xMin="167" yMin="-21" xMax="1209" yMax="1798">
      <component glyphName="U" x="0" y="0" flags="0x204"/>
      <component glyphName="dieresis" x="218" y="342" flags="0x4"/>
    </TTGlyph>
    <TTGlyph name="Udieresis.smcp" xMin="156" yMin="-17" xMax="1117" yMax="1476">
      <component glyphName="U.smcp" x="0" y="0" flags="0x204"/>
      <component glyphName="dieresis" x="152" y="20" flags="0x4"/>
    </TTGlyph>
    <TTGlyph name="Ugrave" xMin="167" yMin="-21" xMax="1209" yMax="1827">
      <component glyphName="U" x="0" y="0" flags="0x204"/>
      <component glyphName="grave" x="316" y="351" flags="0x4"/>
    </TTGlyph>
    <TTGlyph name="Ugrave.smcp" xMin="156" yMin="-17" xMax="1117" yMax="1505">
      <component glyphName="U.smcp" x="0" y="0" flags="0x204"/>
      <component glyphName="grave" x="250" y="29" flags="0x4"/>
    </TTGlyph>
    <TTGlyph name="Uhorn" xMin="167" yMin="-21" xMax="1587" yMax="1590">
      <contour>
        <pt x="1209" y="1456" on="1"/>
        <pt x="1209" y="1250" on="1"/>
        <pt x="1215" y="1248" on="1"/>
        <pt x="1338" y="1262" on="0"/>
        <pt x="1469" y="1439" on="0"/>
        <pt x="1469" y="1590" on="1"/>
        <pt x="1582" y="1590" on="1"/>
        <pt x="1584" y="1585" on="1"/>
        <pt x="1587" y="1393" on="0"/>
        <pt x="1391" y="1165" on="0"/>
        <pt x="1209" y="1144" on="1"/>
        <pt x="1209" y="469" on="1"/>
        <pt x="1209" y="231" on="0"/>
        <pt x="918" y="-21" on="0"/>
        <pt x="684" y="-21" on="1"/>
        <pt x="453" y="-21" on="0"/>
        <pt x="167" y="232" on="0"/>
        <pt x="167" y="469" on="1"/>
        <pt x="167" y="1456" on="1"/>
        <pt x="287" y="1456" on="1"/>
        <pt x="287" y="469" on="1"/>
        <pt x="287" y="283" on="0"/>
        <pt x="507" y="80" on="0"/>
        <pt x="684" y="80" on="1"/>
        <pt x="864" y="80" on="0"/>
        <pt x="1090" y="282" on="0"/>
        <pt x="1090" y="469" on="1"/>
        <pt x="1090" y="1456" on="1"/>
      </contour>
    </TTGlyph>
    <TTGlyph name="Uhungarumlaut" xMin="167" yMin="-21" xMax="1209" yMax="1867">
      <component glyphName="U" x="0" y="0" flags="0x204"/>
      <component glyphName="hungarumlaut" x="361" y="349" flags="0x4"/>
    </TTGlyph>
    <TTGlyph name="Uhungarumlaut.smcp" xMin="156" yMin="-17" xMax="1117" yMax="1545">
      <component glyphName="U.smcp" x="0" y="0" flags="0x204"/>
      <component glyphName="hungarumlaut" x="295" y="27" flags="0x4"/>
    </TTGlyph>
    <TTGlyph name="Umacron" xMin="167" yMin="-21" xMax="1209" yMax="1786">
      <component glyphName="U" x="0" y="0" flags="0x204"/>
      <component glyphName="macron" x="254" y="330" flags="0x4"/>
    </TTGlyph>
    <TTGlyph name="Umacron.smcp" xMin="156" yMin="-17" xMax="1117" yMax="1464">
      <component glyphName="U.smcp" x="0" y="0" flags="0x204"/>
      <component glyphName="macron" x="188" y="8" flags="0x4"/>
    </TTGlyph>
    <TTGlyph name="Uogonek" xMin="167" yMin="-392" xMax="1209" yMax="1456">
      <component glyphName="U" x="0" y="0" flags="0x204"/>
      <component glyphName="ogonek" x="433" y="0" flags="0x4"/>
    </TTGlyph>
    <TTGlyph name="Uogonek.smcp" xMin="156" yMin="-392" xMax="1117" yMax="1165">
      <component glyphName="U.smcp" x="0" y="0" flags="0x204"/>
      <component glyphName="ogonek" x="382" y="0" flags="0x4"/>
    </TTGlyph>
    <TTGlyph name="Upsilon" xMin="33" yMin="0" xMax="1210" yMax="1456">
      <component glyphName="Y" x="0" y="0" flags="0x204"/>
    </TTGlyph>
    <TTGlyph name="Upsilondieresis" xMin="33" yMin="0" xMax="1210" yMax="1791">
      <component glyphName="Y" x="0" y="0" flags="0x204"/>
      <component glyphName="dieresis" x="141" y="335" flags="0x4"/>
    </TTGlyph>
    <TTGlyph name="Upsilontonos" xMin="-107" yMin="0" xMax="1310" yMax="1617">
      <component glyphName="Y" x="100" y="0" flags="0x4"/>
      <component glyphName="tonos" x="-299" y="0" flags="0x4"/>
    </TTGlyph>
    <TTGlyph name="Uring" xMin="167" yMin="-21" xMax="1209" yMax="1896">
      <component glyphName="U" x="0" y="0" flags="0x204"/>
      <component glyphName="ring" x="355" y="406" flags="0x4"/>
    </TTGlyph>
    <TTGlyph name="Uring.smcp" xMin="156" yMin="-17" xMax="1117" yMax="1574">
      <component glyphName="U.smcp" x="0" y="0" flags="0x204"/>
      <component glyphName="ring" x="289" y="84" flags="0x4"/>
    </TTGlyph>
    <TTGlyph name="Utilde" xMin="167" yMin="-21" xMax="1209" yMax="1842">
      <component glyphName="U" x="0" y="0" flags="0x204"/>
      <component glyphName="tilde" x="250" y="341" flags="0x4"/>
    </TTGlyph>
    <TTGlyph name="Utilde.smcp" xMin="156" yMin="-17" xMax="1117" yMax="1520">
      <component glyphName="U.smcp" x="0" y="0" flags="0x204"/>
      <component glyphName="tilde" x="184" y="19" flags="0x4"/>
    </TTGlyph>
    <TTGlyph name="V" xMin="32" yMin="0" xMax="1231" yMax="1456">
      <contour>
        <pt x="600" y="246" on="1"/>
        <pt x="629" y="149" on="1"/>
        <pt x="635" y="149" on="1"/>
        <pt x="664" y="246" on="1"/>
        <pt x="1101" y="1456" on="1"/>
        <pt x="1231" y="1456" on="1"/>
        <pt x="688" y="0" on="1"/>
        <pt x="575" y="0" on="1"/>
        <pt x="32" y="1456" on="1"/>
        <pt x="162" y="1456" on="1"/>
      </contour>
    </TTGlyph>
    <TTGlyph name="V.smcp" xMin="58" yMin="0" xMax="1117" yMax="1165">
      <contour>
        <pt x="563" y="208" on="1"/>
        <pt x="585" y="133" on="1"/>
        <pt x="591" y="133" on="1"/>
        <pt x="613" y="207" on="1"/>
        <pt x="989" y="1165" on="1"/>
        <pt x="1117" y="1165" on="1"/>
        <pt x="646" y="0" on="1"/>
        <pt x="529" y="0" on="1"/>
        <pt x="58" y="1165" on="1"/>
        <pt x="187" y="1165" on="1"/>
      </contour>
    </TTGlyph>
    <TTGlyph name="W" xMin="57" yMin="0" xMax="1770" yMax="1456">
      <contour>
        <pt x="445" y="412" on="1"/>
        <pt x="489" y="189" on="1"/>
        <pt x="495" y="188" on="1"/>
        <pt x="550" y="412" on="1"/>
        <pt x="858" y="1456" on="1"/>
        <pt x="971" y="1456" on="1"/>
        <pt x="1279" y="412" on="1"/>
        <pt x="1332" y="187" on="1"/>
        <pt x="1338" y="188" on="1"/>
        <pt x="1385" y="412" on="1"/>
        <pt x="1648" y="1456" on="1"/>
        <pt x="1770" y="1456" on="1"/>
        <pt x="1396" y="0" on="1"/>
        <pt x="1283" y="0" on="1"/>
        <pt x="956" y="1117" on="1"/>
        <pt x="918" y="1270" on="1"/>
        <pt x="912" y="1270" on="1"/>
        <pt x="875" y="1117" on="1"/>
        <pt x="545" y="0" on="1"/>
        <pt x="431" y="0" on="1"/>
        <pt x="57" y="1456" on="1"/>
        <pt x="180" y="1456" on="1"/>
      </contour>
    </TTGlyph>
    <TTGlyph name="W.smcp" xMin="78" yMin="0" xMax="1472" yMax="1165">
      <contour>
        <pt x="426" y="278" on="1"/>
        <pt x="450" y="158" on="1"/>
        <pt x="456" y="158" on="1"/>
        <pt x="479" y="279" on="1"/>
        <pt x="717" y="1165" on="1"/>
        <pt x="834" y="1165" on="1"/>
        <pt x="1073" y="278" on="1"/>
        <pt x="1094" y="157" on="1"/>
        <pt x="1100" y="157" on="1"/>
        <pt x="1127" y="279" on="1"/>
        <pt x="1345" y="1165" on="1"/>
        <pt x="1472" y="1165" on="1"/>
        <pt x="1158" y="0" on="1"/>
        <pt x="1043" y="0" on="1"/>
        <pt x="793" y="916" on="1"/>
        <pt x="778" y="987" on="1"/>
        <pt x="772" y="987" on="1"/>
        <pt x="759" y="916" on="1"/>
        <pt x="506" y="0" on="1"/>
        <pt x="391" y="0" on="1"/>
        <pt x="78" y="1165" on="1"/>
        <pt x="204" y="1165" on="1"/>
      </contour>
    </TTGlyph>
    <TTGlyph name="Wacute" xMin="57" yMin="0" xMax="1770" yMax="1823">
      <component glyphName="W" x="0" y="0" flags="0x204"/>
      <component glyphName="acute" x="722" y="345" flags="0x4"/>
    </TTGlyph>
    <TTGlyph name="Wcircumflex" xMin="57" yMin="0" xMax="1770" yMax="1843">
      <component glyphName="W" x="0" y="0" flags="0x204"/>
      <component glyphName="circumflex" x="477" y="349" flags="0x4"/>
    </TTGlyph>
    <TTGlyph name="Wcircumflex.smcp" xMin="78" yMin="0" xMax="1472" yMax="1520">
      <component glyphName="W.smcp" x="0" y="0" flags="0x204"/>
      <component glyphName="circumflex" x="328" y="26" flags="0x4"/>
    </TTGlyph>
    <TTGlyph name="Wdieresis" xMin="57" yMin="0" xMax="1770" yMax="1798">
      <component glyphName="W" x="0" y="0" flags="0x204"/>
      <component glyphName="dieresis" x="434" y="342" flags="0x4"/>
    </TTGlyph>
    <TTGlyph name="Wgrave" xMin="57" yMin="0" xMax="1770" yMax="1827">
      <component glyphName="W" x="0" y="0" flags="0x204"/>
      <component glyphName="grave" x="532" y="351" flags="0x4"/>
    </TTGlyph>
    <TTGlyph name="X" xMin="59" yMin="0" xMax="1200" yMax="1456">
      <contour>
        <pt x="628" y="834" on="1"/>
        <pt x="1039" y="1456" on="1"/>
        <pt x="1184" y="1456" on="1"/>
        <pt x="700" y="738" on="1"/>
        <pt x="1200" y="0" on="1"/>
        <pt x="1057" y="0" on="1"/>
        <pt x="630" y="642" on="1"/>
        <pt x="204" y="0" on="1"/>
        <pt x="59" y="0" on="1"/>
        <pt x="559" y="738" on="1"/>
        <pt x="74" y="1456" on="1"/>
        <pt x="219" y="1456" on="1"/>
      </contour>
    </TTGlyph>
    <TTGlyph name="X.smcp" xMin="60" yMin="0" xMax="1063" yMax="1165">
      <contour>
        <pt x="561" y="685" on="1"/>
        <pt x="907" y="1165" on="1"/>
        <pt x="1049" y="1165" on="1"/>
        <pt x="633" y="590" on="1"/>
        <pt x="1063" y="0" on="1"/>
        <pt x="921" y="0" on="1"/>
        <pt x="562" y="495" on="1"/>
        <pt x="204" y="0" on="1"/>
        <pt x="60" y="0" on="1"/>
        <pt x="490" y="590" on="1"/>
        <pt x="73" y="1165" on="1"/>
        <pt x="216" y="1165" on="1"/>
      </contour>
    </TTGlyph>
    <TTGlyph name="Xi" xMin="117" yMin="0" xMax="1036" yMax="1456">
      <contour>
        <pt x="117" y="101" on="1"/>
        <pt x="1036" y="101" on="1"/>
        <pt x="1036" y="0" on="1"/>
        <pt x="117" y="0" on="1"/>
      </contour>
      <contour>
        <pt x="213" y="784" on="1"/>
        <pt x="931" y="784" on="1"/>
        <pt x="931" y="682" on="1"/>
        <pt x="213" y="682" on="1"/>
      </contour>
      <contour>
        <pt x="128" y="1456" on="1"/>
        <pt x="1010" y="1456" on="1"/>
        <pt x="1010" y="1354" on="1"/>
        <pt x="128" y="1354" on="1"/>
      </contour>
    </TTGlyph>
    <TTGlyph name="Y" xMin="33" yMin="0" xMax="1210" yMax="1456">
      <contour>
        <pt x="620" y="647" on="1"/>
        <pt x="1071" y="1456" on="1"/>
        <pt x="1210" y="1456" on="1"/>
        <pt x="679" y="532" on="1"/>
        <pt x="679" y="0" on="1"/>
        <pt x="560" y="0" on="1"/>
        <pt x="560" y="539" on="1"/>
        <pt x="33" y="1456" on="1"/>
        <pt x="172" y="1456" on="1"/>
      </contour>
    </TTGlyph>
    <TTGlyph name="Y.smcp" xMin="45" yMin="0" xMax="1050" yMax="1165">
      <contour>
        <pt x="547" y="532" on="1"/>
        <pt x="913" y="1165" on="1"/>
        <pt x="1050" y="1165" on="1"/>
        <pt x="605" y="421" on="1"/>
        <pt x="605" y="0" on="1"/>
        <pt x="486" y="0" on="1"/>
        <pt x="486" y="427" on="1"/>
        <pt x="45" y="1165" on="1"/>
        <pt x="181" y="1165" on="1"/>
      </contour>
    </TTGlyph>
    <TTGlyph name="Yacute" xMin="33" yMin="0" xMax="1210" yMax="1816">
      <component glyphName="Y" x="0" y="0" flags="0x204"/>
      <component glyphName="acute" x="429" y="338" flags="0x4"/>
    </TTGlyph>
    <TTGlyph name="Yacute.smcp" xMin="45" yMin="0" xMax="1050" yMax="1495">
      <component glyphName="Y.smcp" x="0" y="0" flags="0x204"/>
      <component glyphName="acute" x="349" y="17" flags="0x4"/>
    </TTGlyph>
    <TTGlyph name="Ycircumflex" xMin="33" yMin="0" xMax="1210" yMax="1836">
      <component glyphName="Y" x="0" y="0" flags="0x204"/>
      <component glyphName="circumflex" x="184" y="342" flags="0x4"/>
    </TTGlyph>
    <TTGlyph name="Ycircumflex.smcp" xMin="45" yMin="0" xMax="1050" yMax="1515">
      <component glyphName="Y.smcp" x="0" y="0" flags="0x204"/>
      <component glyphName="circumflex" x="104" y="21" flags="0x4"/>
    </TTGlyph>
    <TTGlyph name="Ydieresis" xMin="33" yMin="0" xMax="1210" yMax="1791">
      <component glyphName="Y" x="0" y="0" flags="0x204"/>
      <component glyphName="dieresis" x="141" y="335" flags="0x4"/>
    </TTGlyph>
    <TTGlyph name="Ydieresis.smcp" xMin="45" yMin="0" xMax="1050" yMax="1470">
      <component glyphName="Y.smcp" x="0" y="0" flags="0x204"/>
      <component glyphName="dieresis" x="61" y="14" flags="0x4"/>
    </TTGlyph>
    <TTGlyph name="Ygrave" xMin="33" yMin="0" xMax="1210" yMax="1820">
      <component glyphName="Y" x="0" y="0" flags="0x204"/>
      <component glyphName="grave" x="239" y="344" flags="0x4"/>
    </TTGlyph>
    <TTGlyph name="Z" xMin="95" yMin="0" xMax="1131" yMax="1456">
      <contour>
        <pt x="238" y="101" on="1"/>
        <pt x="1131" y="101" on="1"/>
        <pt x="1131" y="0" on="1"/>
        <pt x="95" y="0" on="1"/>
        <pt x="95" y="92" on="1"/>
        <pt x="953" y="1354" on="1"/>
        <pt x="122" y="1354" on="1"/>
        <pt x="122" y="1456" on="1"/>
        <pt x="1099" y="1456" on="1"/>
        <pt x="1099" y="1369" on="1"/>
      </contour>
    </TTGlyph>
    <TTGlyph name="Z.smcp" xMin="75" yMin="0" xMax="985" yMax="1165">
      <contour>
        <pt x="229" y="100" on="1"/>
        <pt x="985" y="100" on="1"/>
        <pt x="985" y="0" on="1"/>
        <pt x="75" y="0" on="1"/>
        <pt x="75" y="80" on="1"/>
        <pt x="804" y="1064" on="1"/>
        <pt x="109" y="1064" on="1"/>
        <pt x="109" y="1165" on="1"/>
        <pt x="959" y="1165" on="1"/>
        <pt x="959" y="1089" on="1"/>
      </contour>
    </TTGlyph>
    <TTGlyph name="Zacute" xMin="95" yMin="0" xMax="1131" yMax="1823">
      <component glyphName="Z" x="0" y="0" flags="0x204"/>
      <component glyphName="acute" x="418" y="345" flags="0x4"/>
    </TTGlyph>
    <TTGlyph name="Zacute.smcp" xMin="75" yMin="0" xMax="985" yMax="1500">
      <component glyphName="Z.smcp" x="0" y="0" flags="0x204"/>
      <component glyphName="acute" x="322" y="22" flags="0x4"/>
    </TTGlyph>
    <TTGlyph name="Zcaron" xMin="95" yMin="0" xMax="1131" yMax="1845">
      <component glyphName="Z" x="0" y="0" flags="0x204"/>
      <component glyphName="caron" x="191" y="351" flags="0x4"/>
    </TTGlyph>
    <TTGlyph name="Zcaron.smcp" xMin="75" yMin="0" xMax="985" yMax="1522">
      <component glyphName="Z.smcp" x="0" y="0" flags="0x204"/>
      <component glyphName="caron" x="95" y="28" flags="0x4"/>
    </TTGlyph>
    <TTGlyph name="Zdotaccent" xMin="95" yMin="0" xMax="1131" yMax="1805">
      <component glyphName="Z" x="0" y="0" flags="0x204"/>
      <component glyphName="dotaccent" x="375" y="349" flags="0x4"/>
    </TTGlyph>
    <TTGlyph name="Zdotaccent.smcp" xMin="75" yMin="0" xMax="985" yMax="1482">
      <component glyphName="Z.smcp" x="0" y="0" flags="0x204"/>
      <component glyphName="dotaccent" x="279" y="26" flags="0x4"/>
    </TTGlyph>
    <TTGlyph name="Zeta" xMin="95" yMin="0" xMax="1131" yMax="1456">
      <component glyphName="Z" x="0" y="0" flags="0x204"/>
    </TTGlyph>
    <TTGlyph name="a" xMin="103" yMin="-21" xMax="968" yMax="1102">
      <contour>
        <pt x="843" y="0" on="1"/>
        <pt x="831" y="55" on="0"/>
        <pt x="821" y="135" on="0"/>
        <pt x="821" y="176" on="1"/>
        <pt x="761" y="91" on="0"/>
        <pt x="561" y="-21" on="0"/>
        <pt x="436" y="-21" on="1"/>
        <pt x="278" y="-21" on="0"/>
        <pt x="103" y="147" on="0"/>
        <pt x="103" y="288" on="1"/>
        <pt x="103" y="438" on="0"/>
        <pt x="362" y="618" on="0"/>
        <pt x="582" y="618" on="1"/>
        <pt x="821" y="618" on="1"/>
        <pt x="821" y="752" on="1"/>
        <pt x="821" y="868" on="0"/>
        <pt x="672" y="1000" on="0"/>
        <pt x="538" y="1000" on="1"/>
        <pt x="413" y="1000" on="0"/>
        <pt x="248" y="874" on="0"/>
        <pt x="248" y="783" on="1"/>
        <pt x="138" y="784" on="1"/>
        <pt x="136" y="790" on="1"/>
        <pt x="130" y="911" on="0"/>
        <pt x="363" y="1102" on="0"/>
        <pt x="543" y="1102" on="1"/>
        <pt x="722" y="1102" on="0"/>
        <pt x="940" y="920" on="0"/>
        <pt x="940" y="750" on="1"/>
        <pt x="940" y="218" on="1"/>
        <pt x="940" y="161" on="0"/>
        <pt x="953" y="53" on="0"/>
        <pt x="968" y="0" on="1"/>
      </contour>
      <contour>
        <pt x="450" y="85" on="1"/>
        <pt x="579" y="85" on="0"/>
        <pt x="777" y="206" on="0"/>
        <pt x="821" y="300" on="1"/>
        <pt x="821" y="526" on="1"/>
        <pt x="580" y="526" on="1"/>
        <pt x="417" y="526" on="0"/>
        <pt x="222" y="387" on="0"/>
        <pt x="222" y="284" on="1"/>
        <pt x="222" y="196" on="0"/>
        <pt x="343" y="85" on="0"/>
      </contour>
    </TTGlyph>
    <TTGlyph name="aacute" xMin="103" yMin="-21" xMax="968" yMax="1502">
      <component glyphName="a" x="0" y="0" flags="0x204"/>
      <component glyphName="acute" x="352" y="24" flags="0x4"/>
    </TTGlyph>
    <TTGlyph name="abreve" xMin="103" yMin="-21" xMax="968" yMax="1533">
      <component glyphName="a" x="0" y="0" flags="0x204"/>
      <component glyphName="breve" x="116" y="77" flags="0x4"/>
    </TTGlyph>
    <TTGlyph name="acircumflex" xMin="103" yMin="-21" xMax="968" yMax="1522">
      <component glyphName="a" x="0" y="0" flags="0x204"/>
      <component glyphName="circumflex" x="107" y="28" flags="0x4"/>
    </TTGlyph>
    <TTGlyph name="acute" xMin="116" yMin="1212" xMax="473" yMax="1478">
      <contour>
        <pt x="323" y="1478" on="1"/>
        <pt x="470" y="1478" on="1"/>
        <pt x="473" y="1472" on="1"/>
        <pt x="224" y="1212" on="1"/>
        <pt x="116" y="1212" on="1"/>
      </contour>
    </TTGlyph>
    <TTGlyph name="acutecomb" xMin="-608" yMin="1215" xMax="-348" yMax="1533">
      <contour>
        <pt x="-468" y="1533" on="1"/>
        <pt x="-348" y="1533" on="1"/>
        <pt x="-520" y="1215" on="1"/>
        <pt x="-608" y="1215" on="1"/>
      </contour>
    </TTGlyph>
    <TTGlyph name="adieresis" xMin="103" yMin="-21" xMax="968" yMax="1477">
      <component glyphName="a" x="0" y="0" flags="0x204"/>
      <component glyphName="dieresis" x="64" y="21" flags="0x4"/>
    </TTGlyph>
    <TTGlyph name="ae" xMin="77" yMin="-21" xMax="1658" yMax="1102">
      <contour>
        <pt x="1265" y="-21" on="1"/>
        <pt x="1127" y="-21" on="0"/>
        <pt x="921" y="90" on="0"/>
        <pt x="861" y="192" on="1"/>
        <pt x="812" y="105" on="0"/>
        <pt x="591" y="-21" on="0"/>
        <pt x="432" y="-21" on="1"/>
        <pt x="262" y="-21" on="0"/>
        <pt x="77" y="148" on="0"/>
        <pt x="77" y="293" on="1"/>
        <pt x="77" y="451" on="0"/>
        <pt x="303" y="632" on="0"/>
        <pt x="516" y="632" on="1"/>
        <pt x="778" y="632" on="1"/>
        <pt x="778" y="720" on="1"/>
        <pt x="778" y="854" on="0"/>
        <pt x="652" y="1000" on="0"/>
        <pt x="528" y="1000" on="1"/>
        <pt x="393" y="1000" on="0"/>
        <pt x="236" y="866" on="0"/>
        <pt x="236" y="765" on="1"/>
        <pt x="126" y="777" on="1"/>
        <pt x="124" y="783" on="1"/>
        <pt x="119" y="921" on="0"/>
        <pt x="342" y="1102" on="0"/>
        <pt x="528" y="1102" on="1"/>
        <pt x="652" y="1102" on="0"/>
        <pt x="829" y="994" on="0"/>
        <pt x="869" y="891" on="1"/>
        <pt x="930" y="990" on="0"/>
        <pt x="1121" y="1102" on="0"/>
        <pt x="1235" y="1102" on="1"/>
        <pt x="1435" y="1102" on="0"/>
        <pt x="1658" y="854" on="0"/>
        <pt x="1658" y="638" on="1"/>
        <pt x="1658" y="538" on="1"/>
        <pt x="904" y="538" on="1"/>
        <pt x="904" y="509" on="1"/>
        <pt x="904" y="318" on="0"/>
        <pt x="1083" y="80" on="0"/>
        <pt x="1265" y="80" on="1"/>
        <pt x="1368" y="80" on="0"/>
        <pt x="1525" y="145" on="0"/>
        <pt x="1589" y="199" on="1"/>
        <pt x="1636" y="112" on="1"/>
        <pt x="1576" y="57" on="0"/>
        <pt x="1399" y="-21" on="0"/>
      </contour>
      <contour>
        <pt x="449" y="79" on="1"/>
        <pt x="551" y="79" on="0"/>
        <pt x="742" y="186" on="0"/>
        <pt x="778" y="248" on="1"/>
        <pt x="778" y="536" on="1"/>
        <pt x="518" y="536" on="1"/>
        <pt x="363" y="536" on="0"/>
        <pt x="197" y="394" on="0"/>
        <pt x="197" y="289" on="1"/>
        <pt x="197" y="192" on="0"/>
        <pt x="327" y="79" on="0"/>
      </contour>
      <contour>
        <pt x="1235" y="1000" on="1"/>
        <pt x="1097" y="1000" on="0"/>
        <pt x="925" y="797" on="0"/>
        <pt x="912" y="641" on="1"/>
        <pt x="914" y="636" on="1"/>
        <pt x="1539" y="636" on="1"/>
        <pt x="1539" y="667" on="1"/>
        <pt x="1539" y="813" on="0"/>
        <pt x="1384" y="1000" on="0"/>
      </contour>
    </TTGlyph>
    <TTGlyph name="aeacute" xMin="77" yMin="-21" xMax="1658" yMax="1502">
      <component glyphName="ae" x="0" y="0" flags="0x204"/>
      <component glyphName="acute" x="668" y="24" flags="0x4"/>
    </TTGlyph>
    <TTGlyph name="agrave" xMin="103" yMin="-21" xMax="968" yMax="1506">
      <component glyphName="a" x="0" y="0" flags="0x204"/>
      <component glyphName="grave" x="162" y="30" flags="0x4"/>
    </TTGlyph>
    <TTGlyph name="alpha" xMin="111" yMin="-21" xMax="1146" yMax="1102">
      <contour>
        <pt x="978" y="1082" on="1"/>
        <pt x="978" y="274" on="1"/>
        <pt x="978" y="170" on="0"/>
        <pt x="1031" y="87" on="0"/>
        <pt x="1079" y="87" on="1"/>
        <pt x="1091" y="87" on="0"/>
        <pt x="1114" y="91" on="0"/>
        <pt x="1129" y="95" on="1"/>
        <pt x="1146" y="2" on="1"/>
        <pt x="1123" y="-11" on="0"/>
        <pt x="1075" y="-21" on="0"/>
        <pt x="1048" y="-21" on="1"/>
        <pt x="968" y="-21" on="0"/>
        <pt x="876" y="72" on="0"/>
        <pt x="863" y="176" on="1"/>
        <pt x="810" y="81" on="0"/>
        <pt x="640" y="-21" on="0"/>
        <pt x="524" y="-21" on="1"/>
        <pt x="330" y="-21" on="0"/>
        <pt x="111" y="268" on="0"/>
        <pt x="111" y="511" on="1"/>
        <pt x="111" y="532" on="1"/>
        <pt x="111" y="791" on="0"/>
        <pt x="330" y="1102" on="0"/>
        <pt x="526" y="1102" on="1"/>
        <pt x="640" y="1102" on="0"/>
        <pt x="808" y="995" on="0"/>
        <pt x="861" y="897" on="1"/>
        <pt x="875" y="1082" on="1"/>
      </contour>
      <contour>
        <pt x="231" y="511" on="1"/>
        <pt x="231" y="315" on="0"/>
        <pt x="388" y="80" on="0"/>
        <pt x="546" y="80" on="1"/>
        <pt x="663" y="80" on="0"/>
        <pt x="815" y="208" on="0"/>
        <pt x="858" y="321" on="1"/>
        <pt x="858" y="737" on="1"/>
        <pt x="816" y="853" on="0"/>
        <pt x="664" y="1000" on="0"/>
        <pt x="548" y="1000" on="1"/>
        <pt x="390" y="1000" on="0"/>
        <pt x="231" y="739" on="0"/>
        <pt x="231" y="532" on="1"/>
      </contour>
    </TTGlyph>
    <TTGlyph name="alpha.alt" xMin="111" yMin="-21" xMax="1076" yMax="1102">
      <contour>
        <pt x="909" y="310" on="1"/>
        <pt x="863" y="157" on="0"/>
        <pt x="668" y="-21" on="0"/>
        <pt x="524" y="-21" on="1"/>
        <pt x="330" y="-21" on="0"/>
        <pt x="111" y="268" on="0"/>
        <pt x="111" y="511" on="1"/>
        <pt x="111" y="532" on="1"/>
        <pt x="111" y="791" on="0"/>
        <pt x="330" y="1102" on="0"/>
        <pt x="526" y="1102" on="1"/>
        <pt x="667" y="1102" on="0"/>
        <pt x="858" y="924" on="0"/>
        <pt x="906" y="769" on="1"/>
        <pt x="951" y="1082" on="1"/>
        <pt x="1069" y="1082" on="1"/>
        <pt x="972" y="540" on="1"/>
        <pt x="1076" y="0" on="1"/>
        <pt x="958" y="0" on="1"/>
      </contour>
      <contour>
        <pt x="231" y="511" on="1"/>
        <pt x="231" y="315" on="0"/>
        <pt x="388" y="80" on="0"/>
        <pt x="546" y="80" on="1"/>
        <pt x="673" y="80" on="0"/>
        <pt x="838" y="311" on="0"/>
        <pt x="867" y="494" on="1"/>
        <pt x="867" y="573" on="1"/>
        <pt x="841" y="745" on="0"/>
        <pt x="685" y="1000" on="0"/>
        <pt x="548" y="1000" on="1"/>
        <pt x="390" y="1000" on="0"/>
        <pt x="231" y="739" on="0"/>
        <pt x="231" y="532" on="1"/>
      </contour>
    </TTGlyph>
    <TTGlyph name="alphatonos" xMin="111" yMin="-21" xMax="1146" yMax="1579">
      <component glyphName="alpha" x="0" y="0" flags="0x204"/>
      <component glyphName="tonos" x="372" y="-38" flags="0x4"/>
    </TTGlyph>
    <TTGlyph name="amacron" xMin="103" yMin="-21" xMax="968" yMax="1465">
      <component glyphName="a" x="0" y="0" flags="0x204"/>
      <component glyphName="macron" x="100" y="9" flags="0x4"/>
    </TTGlyph>
    <TTGlyph name="ampersand" xMin="91" yMin="-21" xMax="1209" yMax="1477">
      <contour>
        <pt x="388" y="795" on="1"/>
        <pt x="307" y="895" on="0"/>
        <pt x="229" y="1060" on="0"/>
        <pt x="229" y="1147" on="1"/>
        <pt x="229" y="1305" on="0"/>
        <pt x="407" y="1477" on="0"/>
        <pt x="562" y="1477" on="1"/>
        <pt x="706" y="1477" on="0"/>
        <pt x="875" y="1315" on="0"/>
        <pt x="875" y="1192" on="1"/>
        <pt x="875" y="1102" on="0"/>
        <pt x="785" y="972" on="0"/>
        <pt x="700" y="907" on="1"/>
        <pt x="541" y="785" on="1"/>
        <pt x="953" y="304" on="1"/>
        <pt x="1002" y="375" on="0"/>
        <pt x="1056" y="551" on="0"/>
        <pt x="1056" y="651" on="1"/>
        <pt x="1166" y="651" on="1"/>
        <pt x="1166" y="523" on="0"/>
        <pt x="1093" y="308" on="0"/>
        <pt x="1024" y="221" on="1"/>
        <pt x="1209" y="5" on="1"/>
        <pt x="1207" y="0" on="1"/>
        <pt x="1070" y="0" on="1"/>
        <pt x="948" y="141" on="1"/>
        <pt x="863" y="63" on="0"/>
        <pt x="661" y="-21" on="0"/>
        <pt x="544" y="-21" on="1"/>
        <pt x="335" y="-21" on="0"/>
        <pt x="91" y="193" on="0"/>
        <pt x="91" y="371" on="1"/>
        <pt x="91" y="491" on="0"/>
        <pt x="236" y="684" on="0"/>
        <pt x="373" y="784" on="1"/>
      </contour>
      <contour>
        <pt x="544" y="80" on="1"/>
        <pt x="636" y="80" on="0"/>
        <pt x="811" y="152" on="0"/>
        <pt x="881" y="219" on="1"/>
        <pt x="467" y="701" on="1"/>
        <pt x="462" y="706" on="0"/>
        <pt x="455" y="713" on="0"/>
        <pt x="453" y="717" on="1"/>
        <pt x="406" y="681" on="1"/>
        <pt x="290" y="587" on="0"/>
        <pt x="211" y="435" on="0"/>
        <pt x="211" y="371" on="1"/>
        <pt x="211" y="247" on="0"/>
        <pt x="382" y="80" on="0"/>
      </contour>
      <contour>
        <pt x="349" y="1149" on="1"/>
        <pt x="349" y="1083" on="0"/>
        <pt x="412" y="941" on="0"/>
        <pt x="477" y="861" on="1"/>
        <pt x="654" y="993" on="1"/>
        <pt x="712" y="1038" on="0"/>
        <pt x="761" y="1136" on="0"/>
        <pt x="761" y="1192" on="1"/>
        <pt x="761" y="1271" on="0"/>
        <pt x="656" y="1375" on="0"/>
        <pt x="562" y="1375" on="1"/>
        <pt x="460" y="1375" on="0"/>
        <pt x="349" y="1245" on="0"/>
      </contour>
    </TTGlyph>
    <TTGlyph name="anoteleia" xMin="166" yMin="624" xMax="321" yMax="804">
      <component glyphName="periodcentered" x="0" y="0" flags="0x204"/>
    </TTGlyph>
    <TTGlyph name="aogonek" xMin="103" yMin="-392" xMax="1022" yMax="1102">
      <component glyphName="a" x="0" y="0" flags="0x204"/>
      <component glyphName="ogonek" x="605" y="0" flags="0x4"/>
    </TTGlyph>
    <TTGlyph name="approxequal" xMin="101" yMin="330" xMax="1043" yMax="1004">
      <contour>
        <pt x="111" y="854" on="1"/>
        <pt x="158" y="922" on="0"/>
        <pt x="282" y="1000" on="0"/>
        <pt x="347" y="1000" on="1"/>
        <pt x="416" y="1001" on="0"/>
        <pt x="480" y="977" on="0"/>
        <pt x="581" y="927" on="1"/>
        <pt x="671" y="881" on="0"/>
        <pt x="736" y="856" on="0"/>
        <pt x="801" y="856" on="1"/>
        <pt x="865" y="856" on="0"/>
        <pt x="986" y="934" on="0"/>
        <pt x="1035" y="1004" on="1"/>
        <pt x="1043" y="887" on="1"/>
        <pt x="995" y="818" on="0"/>
        <pt x="871" y="741" on="0"/>
        <pt x="807" y="741" on="1"/>
        <pt x="741" y="741" on="0"/>
        <pt x="675" y="766" on="0"/>
        <pt x="589" y="810" on="1"/>
        <pt x="483" y="862" on="0"/>
        <pt x="421" y="886" on="0"/>
        <pt x="353" y="885" on="1"/>
        <pt x="288" y="885" on="0"/>
        <pt x="167" y="806" on="0"/>
        <pt x="119" y="737" on="1"/>
      </contour>
      <contour>
        <pt x="101" y="447" on="1"/>
        <pt x="148" y="515" on="0"/>
        <pt x="272" y="593" on="0"/>
        <pt x="337" y="593" on="1"/>
        <pt x="406" y="594" on="0"/>
        <pt x="470" y="570" on="0"/>
        <pt x="571" y="520" on="1"/>
        <pt x="665" y="472" on="0"/>
        <pt x="726" y="448" on="0"/>
        <pt x="791" y="448" on="1"/>
        <pt x="854" y="448" on="0"/>
        <pt x="976" y="527" on="0"/>
        <pt x="1025" y="597" on="1"/>
        <pt x="1032" y="480" on="1"/>
        <pt x="984" y="411" on="0"/>
        <pt x="860" y="334" on="0"/>
        <pt x="796" y="334" on="1"/>
        <pt x="730" y="334" on="0"/>
        <pt x="664" y="359" on="0"/>
        <pt x="578" y="403" on="1"/>
        <pt x="468" y="457" on="0"/>
        <pt x="410" y="480" on="0"/>
        <pt x="342" y="479" on="1"/>
        <pt x="278" y="479" on="0"/>
        <pt x="156" y="399" on="0"/>
        <pt x="108" y="330" on="1"/>
      </contour>
    </TTGlyph>
    <TTGlyph name="aring" xMin="103" yMin="-21" xMax="968" yMax="1575">
      <component glyphName="a" x="0" y="0" flags="0x204"/>
      <component glyphName="ring" x="201" y="85" flags="0x4"/>
    </TTGlyph>
    <TTGlyph name="aringacute" xMin="103" yMin="-21" xMax="968" yMax="1762">
      <component glyphName="a" x="0" y="0" flags="0x204"/>
      <component glyphName="ringacute" x="213" y="71" flags="0x4"/>
    </TTGlyph>
    <TTGlyph name="asciicircum" xMin="77" yMin="729" xMax="764" yMax="1456">
      <contour>
        <pt x="193" y="729" on="1"/>
        <pt x="77" y="729" on="1"/>
        <pt x="376" y="1456" on="1"/>
        <pt x="466" y="1456" on="1"/>
        <pt x="764" y="729" on="1"/>
        <pt x="648" y="729" on="1"/>
        <pt x="452" y="1213" on="1"/>
        <pt x="422" y="1319" on="1"/>
        <pt x="416" y="1319" on="1"/>
        <pt x="386" y="1213" on="1"/>
      </contour>
    </TTGlyph>
    <TTGlyph name="asciitilde" xMin="143" yMin="423" xMax="1257" yMax="787">
      <contour>
        <pt x="1257" y="740" on="1"/>
        <pt x="1257" y="611" on="0"/>
        <pt x="1095" y="423" on="0"/>
        <pt x="974" y="423" on="1"/>
        <pt x="886" y="423" on="0"/>
        <pt x="741" y="494" on="0"/>
        <pt x="653" y="573" on="1"/>
        <pt x="589" y="627" on="0"/>
        <pt x="480" y="680" on="0"/>
        <pt x="424" y="680" on="1"/>
        <pt x="345" y="680" on="0"/>
        <pt x="240" y="559" on="0"/>
        <pt x="240" y="459" on="1"/>
        <pt x="143" y="474" on="1"/>
        <pt x="143" y="605" on="0"/>
        <pt x="301" y="787" on="0"/>
        <pt x="424" y="787" on="1"/>
        <pt x="511" y="787" on="0"/>
        <pt x="658" y="713" on="0"/>
        <pt x="747" y="637" on="1"/>
        <pt x="810" y="580" on="0"/>
        <pt x="917" y="529" on="0"/>
        <pt x="974" y="529" on="1"/>
        <pt x="1051" y="529" on="0"/>
        <pt x="1159" y="657" on="0"/>
        <pt x="1159" y="755" on="1"/>
      </contour>
    </TTGlyph>
    <TTGlyph name="asterisk" xMin="29" yMin="637" xMax="842" yMax="1456">
      <contour>
        <pt x="361" y="1000" on="1"/>
        <pt x="29" y="1108" on="1"/>
        <pt x="61" y="1209" on="1"/>
        <pt x="393" y="1086" on="1"/>
        <pt x="389" y="1456" on="1"/>
        <pt x="493" y="1456" on="1"/>
        <pt x="485" y="1083" on="1"/>
        <pt x="809" y="1210" on="1"/>
        <pt x="842" y="1109" on="1"/>
        <pt x="509" y="994" on="1"/>
        <pt x="732" y="700" on="1"/>
        <pt x="647" y="637" on="1"/>
        <pt x="433" y="942" on="1"/>
        <pt x="229" y="639" on="1"/>
        <pt x="144" y="700" on="1"/>
      </contour>
    </TTGlyph>
    <TTGlyph name="at" xMin="103" yMin="-453" xMax="1768" yMax="1420">
      <contour>
        <pt x="1751" y="513" on="1"/>
        <pt x="1741" y="297" on="0"/>
        <pt x="1527" y="-21" on="0"/>
        <pt x="1321" y="-21" on="1"/>
        <pt x="1243" y="-21" on="0"/>
        <pt x="1138" y="81" on="0"/>
        <pt x="1121" y="172" on="1"/>
        <pt x="1068" y="76" on="0"/>
        <pt x="912" y="-21" on="0"/>
        <pt x="810" y="-21" on="1"/>
        <pt x="679" y="-21" on="0"/>
        <pt x="543" y="219" on="0"/>
        <pt x="562" y="416" on="1"/>
        <pt x="585" y="670" on="0"/>
        <pt x="821" y="977" on="0"/>
        <pt x="989" y="977" on="1"/>
        <pt x="1083" y="977" on="0"/>
        <pt x="1197" y="924" on="0"/>
        <pt x="1266" y="869" on="1"/>
        <pt x="1264" y="867" on="1"/>
        <pt x="1267" y="867" on="1"/>
        <pt x="1217" y="293" on="1"/>
        <pt x="1207" y="161" on="0"/>
        <pt x="1287" y="65" on="0"/>
        <pt x="1342" y="65" on="1"/>
        <pt x="1484" y="65" on="0"/>
        <pt x="1649" y="314" on="0"/>
        <pt x="1660" y="513" on="1"/>
        <pt x="1678" y="902" on="0"/>
        <pt x="1342" y="1333" on="0"/>
        <pt x="980" y="1333" on="1"/>
        <pt x="657" y="1333" on="0"/>
        <pt x="237" y="862" on="0"/>
        <pt x="220" y="478" on="1"/>
        <pt x="201" y="99" on="0"/>
        <pt x="566" y="-368" on="0"/>
        <pt x="903" y="-368" on="1"/>
        <pt x="991" y="-368" on="0"/>
        <pt x="1171" y="-324" on="0"/>
        <pt x="1233" y="-289" on="1"/>
        <pt x="1264" y="-364" on="1"/>
        <pt x="1200" y="-405" on="0"/>
        <pt x="994" y="-453" on="0"/>
        <pt x="899" y="-453" on="1"/>
        <pt x="519" y="-453" on="0"/>
        <pt x="103" y="46" on="0"/>
        <pt x="122" y="478" on="1"/>
        <pt x="140" y="902" on="0"/>
        <pt x="609" y="1420" on="0"/>
        <pt x="984" y="1420" on="1"/>
        <pt x="1375" y="1420" on="0"/>
        <pt x="1768" y="937" on="0"/>
      </contour>
      <contour>
        <pt x="672" y="416" on="1"/>
        <pt x="656" y="261" on="0"/>
        <pt x="740" y="77" on="0"/>
        <pt x="836" y="77" on="1"/>
        <pt x="922" y="77" on="0"/>
        <pt x="1063" y="163" on="0"/>
        <pt x="1115" y="277" on="1"/>
        <pt x="1115" y="282" on="0"/>
        <pt x="1115" y="289" on="0"/>
        <pt x="1116" y="293" on="1"/>
        <pt x="1163" y="837" on="1"/>
        <pt x="1131" y="860" on="0"/>
        <pt x="1053" y="886" on="0"/>
        <pt x="1005" y="886" on="1"/>
        <pt x="871" y="886" on="0"/>
        <pt x="695" y="648" on="0"/>
      </contour>
    </TTGlyph>
    <TTGlyph name="atilde" xMin="103" yMin="-21" xMax="968" yMax="1521">
      <component glyphName="a" x="0" y="0" flags="0x204"/>
      <component glyphName="tilde" x="96" y="20" flags="0x4"/>
    </TTGlyph>
    <TTGlyph name="b" xMin="157" yMin="-21" xMax="1030" yMax="1560">
      <contour>
        <pt x="1030" y="511" on="1"/>
        <pt x="1030" y="268" on="0"/>
        <pt x="810" y="-21" on="0"/>
        <pt x="617" y="-21" on="1"/>
        <pt x="498" y="-21" on="0"/>
        <pt x="326" y="74" on="0"/>
        <pt x="273" y="163" on="1"/>
        <pt x="260" y="0" on="1"/>
        <pt x="157" y="0" on="1"/>
        <pt x="157" y="1560" on="1"/>
        <pt x="277" y="1560" on="1"/>
        <pt x="277" y="912" on="1"/>
        <pt x="331" y="1003" on="0"/>
        <pt x="499" y="1102" on="0"/>
        <pt x="615" y="1102" on="1"/>
        <pt x="810" y="1102" on="0"/>
        <pt x="1030" y="791" on="0"/>
        <pt x="1030" y="532" on="1"/>
      </contour>
      <contour>
        <pt x="909" y="532" on="1"/>
        <pt x="909" y="739" on="0"/>
        <pt x="749" y="998" on="0"/>
        <pt x="592" y="998" on="1"/>
        <pt x="467" y="998" on="0"/>
        <pt x="314" y="874" on="0"/>
        <pt x="277" y="777" on="1"/>
        <pt x="277" y="288" on="1"/>
        <pt x="317" y="194" on="0"/>
        <pt x="476" y="83" on="0"/>
        <pt x="594" y="83" on="1"/>
        <pt x="751" y="83" on="0"/>
        <pt x="909" y="315" on="0"/>
        <pt x="909" y="511" on="1"/>
      </contour>
    </TTGlyph>
    <TTGlyph name="backslash" xMin="48" yMin="-125" xMax="773" yMax="1456">
      <contour>
        <pt x="48" y="1456" on="1"/>
        <pt x="165" y="1456" on="1"/>
        <pt x="773" y="-125" on="1"/>
        <pt x="656" y="-125" on="1"/>
      </contour>
    </TTGlyph>
    <TTGlyph name="bar" xMin="178" yMin="-270" xMax="279" yMax="1456">
      <contour>
        <pt x="279" y="-270" on="1"/>
        <pt x="178" y="-270" on="1"/>
        <pt x="178" y="1456" on="1"/>
        <pt x="279" y="1456" on="1"/>
      </contour>
    </TTGlyph>
    <TTGlyph name="beta" xMin="177" yMin="-399" xMax="1090" yMax="1477">
      <contour>
        <pt x="594" y="1477" on="1"/>
        <pt x="778" y="1477" on="0"/>
        <pt x="1003" y="1262" on="0"/>
        <pt x="1003" y="1093" on="1"/>
        <pt x="1003" y="992" on="0"/>
        <pt x="898" y="827" on="0"/>
        <pt x="804" y="782" on="1"/>
        <pt x="942" y="743" on="0"/>
        <pt x="1090" y="542" on="0"/>
        <pt x="1090" y="404" on="1"/>
        <pt x="1090" y="204" on="0"/>
        <pt x="842" y="-21" on="0"/>
        <pt x="640" y="-21" on="1"/>
        <pt x="544" y="-21" on="0"/>
        <pt x="359" y="44" on="0"/>
        <pt x="297" y="108" on="1"/>
        <pt x="297" y="-399" on="1"/>
        <pt x="177" y="-399" on="1"/>
        <pt x="177" y="1063" on="1"/>
        <pt x="177" y="1237" on="0"/>
        <pt x="422" y="1477" on="0"/>
      </contour>
      <contour>
        <pt x="590" y="823" on="1"/>
        <pt x="741" y="823" on="0"/>
        <pt x="884" y="967" on="0"/>
        <pt x="884" y="1098" on="1"/>
        <pt x="884" y="1210" on="0"/>
        <pt x="733" y="1375" on="0"/>
        <pt x="594" y="1375" on="1"/>
        <pt x="468" y="1375" on="0"/>
        <pt x="297" y="1197" on="0"/>
        <pt x="297" y="1063" on="1"/>
        <pt x="297" y="238" on="1"/>
        <pt x="342" y="165" on="0"/>
        <pt x="521" y="80" on="0"/>
        <pt x="631" y="80" on="1"/>
        <pt x="792" y="80" on="0"/>
        <pt x="970" y="252" on="0"/>
        <pt x="970" y="400" on="1"/>
        <pt x="970" y="540" on="0"/>
        <pt x="795" y="721" on="0"/>
        <pt x="639" y="721" on="1"/>
        <pt x="496" y="721" on="1"/>
        <pt x="496" y="823" on="1"/>
      </contour>
    </TTGlyph>
    <TTGlyph name="braceleft" xMin="68" yMin="-404" xMax="666" yMax="1597">
      <contour>
        <pt x="637" y="-404" on="1"/>
        <pt x="454" y="-349" on="0"/>
        <pt x="299" y="-112" on="0"/>
        <pt x="299" y="58" on="1"/>
        <pt x="299" y="284" on="1"/>
        <pt x="299" y="406" on="0"/>
        <pt x="186" y="543" on="0"/>
        <pt x="68" y="543" on="1"/>
        <pt x="68" y="647" on="1"/>
        <pt x="186" y="647" on="0"/>
        <pt x="299" y="781" on="0"/>
        <pt x="299" y="904" on="1"/>
        <pt x="299" y="1132" on="1"/>
        <pt x="299" y="1303" on="0"/>
        <pt x="454" y="1542" on="0"/>
        <pt x="637" y="1597" on="1"/>
        <pt x="663" y="1518" on="1"/>
        <pt x="536" y="1477" on="0"/>
        <pt x="419" y="1275" on="0"/>
        <pt x="419" y="1132" on="1"/>
        <pt x="419" y="904" on="1"/>
        <pt x="419" y="794" on="0"/>
        <pt x="328" y="632" on="0"/>
        <pt x="235" y="595" on="1"/>
        <pt x="328" y="556" on="0"/>
        <pt x="419" y="393" on="0"/>
        <pt x="419" y="284" on="1"/>
        <pt x="419" y="58" on="1"/>
        <pt x="419" y="-85" on="0"/>
        <pt x="538" y="-282" on="0"/>
        <pt x="666" y="-324" on="1"/>
      </contour>
    </TTGlyph>
    <TTGlyph name="braceright" xMin="9" yMin="-404" xMax="607" yMax="1597">
      <contour>
        <pt x="9" y="-324" on="1"/>
        <pt x="136" y="-282" on="0"/>
        <pt x="256" y="-85" on="0"/>
        <pt x="256" y="58" on="1"/>
        <pt x="256" y="284" on="1"/>
        <pt x="256" y="396" on="0"/>
        <pt x="350" y="558" on="0"/>
        <pt x="449" y="594" on="1"/>
        <pt x="350" y="629" on="0"/>
        <pt x="256" y="791" on="0"/>
        <pt x="256" y="904" on="1"/>
        <pt x="256" y="1132" on="1"/>
        <pt x="256" y="1276" on="0"/>
        <pt x="139" y="1477" on="0"/>
        <pt x="12" y="1518" on="1"/>
        <pt x="38" y="1597" on="1"/>
        <pt x="220" y="1542" on="0"/>
        <pt x="376" y="1303" on="0"/>
        <pt x="376" y="1132" on="1"/>
        <pt x="376" y="904" on="1"/>
        <pt x="376" y="782" on="0"/>
        <pt x="488" y="647" on="0"/>
        <pt x="607" y="647" on="1"/>
        <pt x="607" y="543" on="1"/>
        <pt x="488" y="543" on="0"/>
        <pt x="376" y="406" on="0"/>
        <pt x="376" y="284" on="1"/>
        <pt x="376" y="58" on="1"/>
        <pt x="376" y="-112" on="0"/>
        <pt x="221" y="-349" on="0"/>
        <pt x="38" y="-404" on="1"/>
      </contour>
    </TTGlyph>
    <TTGlyph name="bracketleft" xMin="163" yMin="-312" xMax="493" yMax="1664">
      <contour>
        <pt x="493" y="1562" on="1"/>
        <pt x="283" y="1562" on="1"/>
        <pt x="283" y="-210" on="1"/>
        <pt x="493" y="-210" on="1"/>
        <pt x="493" y="-312" on="1"/>
        <pt x="163" y="-312" on="1"/>
        <pt x="163" y="1664" on="1"/>
        <pt x="493" y="1664" on="1"/>
      </contour>
    </TTGlyph>
    <TTGlyph name="bracketright" xMin="0" yMin="-312" xMax="331" yMax="1664">
      <contour>
        <pt x="0" y="1664" on="1"/>
        <pt x="331" y="1664" on="1"/>
        <pt x="331" y="-312" on="1"/>
        <pt x="0" y="-312" on="1"/>
        <pt x="0" y="-210" on="1"/>
        <pt x="211" y="-210" on="1"/>
        <pt x="211" y="1562" on="1"/>
        <pt x="0" y="1562" on="1"/>
      </contour>
    </TTGlyph>
    <TTGlyph name="breve" xMin="139" yMin="1198" xMax="714" yMax="1456">
      <contour>
        <pt x="708" y="1456" on="1"/>
        <pt x="710" y="1450" on="1"/>
        <pt x="714" y="1338" on="0"/>
        <pt x="560" y="1198" on="0"/>
        <pt x="427" y="1198" on="1"/>
        <pt x="294" y="1198" on="0"/>
        <pt x="139" y="1339" on="0"/>
        <pt x="144" y="1450" on="1"/>
        <pt x="146" y="1456" on="1"/>
        <pt x="240" y="1456" on="1"/>
        <pt x="240" y="1379" on="0"/>
        <pt x="330" y="1285" on="0"/>
        <pt x="427" y="1285" on="1"/>
        <pt x="521" y="1285" on="0"/>
        <pt x="614" y="1381" on="0"/>
        <pt x="614" y="1456" on="1"/>
      </contour>
    </TTGlyph>
    <TTGlyph name="breveacutecomb" xMin="139" yMin="1247" xMax="721" yMax="1655">
      <contour>
        <pt x="713" y="1456" on="1"/>
        <pt x="715" y="1450" on="1"/>
        <pt x="721" y="1361" on="0"/>
        <pt x="565" y="1247" on="0"/>
        <pt x="431" y="1247" on="1"/>
        <pt x="296" y="1247" on="0"/>
        <pt x="139" y="1361" on="0"/>
        <pt x="146" y="1450" on="1"/>
        <pt x="148" y="1456" on="1"/>
        <pt x="241" y="1456" on="1"/>
        <pt x="241" y="1394" on="0"/>
        <pt x="333" y="1316" on="0"/>
        <pt x="431" y="1316" on="1"/>
        <pt x="525" y="1316" on="0"/>
        <pt x="619" y="1395" on="0"/>
        <pt x="619" y="1456" on="1"/>
      </contour>
      <contour>
        <pt x="509" y="1655" on="1"/>
        <pt x="611" y="1655" on="1"/>
        <pt x="614" y="1650" on="1"/>
        <pt x="448" y="1449" on="1"/>
        <pt x="369" y="1449" on="1"/>
      </contour>
    </TTGlyph>
    <TTGlyph name="brevegravecomb" xMin="118" yMin="1210" xMax="734" yMax="1682">
      <contour>
        <pt x="727" y="1456" on="1"/>
        <pt x="729" y="1450" on="1"/>
        <pt x="734" y="1344" on="0"/>
        <pt x="569" y="1210" on="0"/>
        <pt x="427" y="1210" on="1"/>
        <pt x="284" y="1210" on="0"/>
        <pt x="118" y="1345" on="0"/>
        <pt x="124" y="1450" on="1"/>
        <pt x="126" y="1456" on="1"/>
        <pt x="220" y="1456" on="1"/>
        <pt x="220" y="1384" on="0"/>
        <pt x="319" y="1296" on="0"/>
        <pt x="427" y="1296" on="1"/>
        <pt x="531" y="1296" on="0"/>
        <pt x="634" y="1386" on="0"/>
        <pt x="634" y="1456" on="1"/>
      </contour>
      <contour>
        <pt x="503" y="1466" on="1"/>
        <pt x="386" y="1466" on="1"/>
        <pt x="198" y="1677" on="1"/>
        <pt x="200" y="1682" on="1"/>
        <pt x="348" y="1682" on="1"/>
      </contour>
    </TTGlyph>
    <TTGlyph name="brevehookcomb" xMin="139" yMin="1250" xMax="702" yMax="1798">
      <contour>
        <pt x="694" y="1456" on="1"/>
        <pt x="696" y="1450" on="1"/>
        <pt x="702" y="1362" on="0"/>
        <pt x="551" y="1250" on="0"/>
        <pt x="421" y="1250" on="1"/>
        <pt x="290" y="1250" on="0"/>
        <pt x="139" y="1362" on="0"/>
        <pt x="146" y="1450" on="1"/>
        <pt x="148" y="1456" on="1"/>
        <pt x="237" y="1456" on="1"/>
        <pt x="237" y="1395" on="0"/>
        <pt x="326" y="1319" on="0"/>
        <pt x="421" y="1319" on="1"/>
        <pt x="512" y="1319" on="0"/>
        <pt x="603" y="1396" on="0"/>
        <pt x="603" y="1456" on="1"/>
      </contour>
      <contour>
        <pt x="387" y="1473" on="1"/>
        <pt x="387" y="1580" on="1"/>
        <pt x="473" y="1584" on="0"/>
        <pt x="546" y="1618" on="0"/>
        <pt x="541" y="1656" on="1"/>
        <pt x="541" y="1662" on="1"/>
        <pt x="545" y="1700" on="0"/>
        <pt x="435" y="1737" on="0"/>
        <pt x="354" y="1737" on="1"/>
        <pt x="361" y="1798" on="1"/>
        <pt x="493" y="1798" on="0"/>
        <pt x="644" y="1722" on="0"/>
        <pt x="644" y="1657" on="1"/>
        <pt x="644" y="1596" on="0"/>
        <pt x="550" y="1534" on="0"/>
        <pt x="475" y="1528" on="1"/>
        <pt x="474" y="1473" on="1"/>
      </contour>
    </TTGlyph>
    <TTGlyph name="brevetildecomb" xMin="139" yMin="1243" xMax="715" yMax="1731">
      <contour>
        <pt x="707" y="1456" on="1"/>
        <pt x="709" y="1450" on="1"/>
        <pt x="715" y="1359" on="0"/>
        <pt x="560" y="1243" on="0"/>
        <pt x="428" y="1243" on="1"/>
        <pt x="294" y="1243" on="0"/>
        <pt x="139" y="1359" on="0"/>
        <pt x="146" y="1450" on="1"/>
        <pt x="148" y="1456" on="1"/>
        <pt x="240" y="1456" on="1"/>
        <pt x="240" y="1393" on="0"/>
        <pt x="330" y="1314" on="0"/>
        <pt x="428" y="1314" on="1"/>
        <pt x="522" y="1314" on="0"/>
        <pt x="614" y="1394" on="0"/>
        <pt x="614" y="1456" on="1"/>
      </contour>
      <contour>
        <pt x="713" y="1714" on="1"/>
        <pt x="713" y="1640" on="0"/>
        <pt x="620" y="1542" on="0"/>
        <pt x="552" y="1542" on="1"/>
        <pt x="490" y="1542" on="0"/>
        <pt x="359" y="1635" on="0"/>
        <pt x="314" y="1635" on="1"/>
        <pt x="274" y="1635" on="0"/>
        <pt x="220" y="1577" on="0"/>
        <pt x="220" y="1531" on="1"/>
        <pt x="154" y="1546" on="1"/>
        <pt x="154" y="1618" on="0"/>
        <pt x="245" y="1717" on="0"/>
        <pt x="314" y="1716" on="1"/>
        <pt x="369" y="1717" on="0"/>
        <pt x="507" y="1622" on="0"/>
        <pt x="552" y="1623" on="1"/>
        <pt x="591" y="1622" on="0"/>
        <pt x="647" y="1683" on="0"/>
        <pt x="647" y="1731" on="1"/>
      </contour>
    </TTGlyph>
    <TTGlyph name="brokenbar" xMin="159" yMin="-270" xMax="279" yMax="1456">
      <contour>
        <pt x="159" y="-270" on="1"/>
        <pt x="159" y="501" on="1"/>
        <pt x="279" y="501" on="1"/>
        <pt x="279" y="-270" on="1"/>
      </contour>
      <contour>
        <pt x="279" y="698" on="1"/>
        <pt x="159" y="698" on="1"/>
        <pt x="159" y="1456" on="1"/>
        <pt x="279" y="1456" on="1"/>
      </contour>
    </TTGlyph>
    <TTGlyph name="bullet" xMin="146" yMin="540" xMax="517" yMax="961">
      <contour>
        <pt x="146" y="782" on="1"/>
        <pt x="146" y="860" on="0"/>
        <pt x="247" y="961" on="0"/>
        <pt x="331" y="961" on="1"/>
        <pt x="416" y="961" on="0"/>
        <pt x="517" y="860" on="0"/>
        <pt x="517" y="782" on="1"/>
        <pt x="517" y="717" on="1"/>
        <pt x="517" y="638" on="0"/>
        <pt x="416" y="540" on="0"/>
        <pt x="332" y="540" on="1"/>
        <pt x="247" y="540" on="0"/>
        <pt x="146" y="638" on="0"/>
        <pt x="146" y="717" on="1"/>
      </contour>
    </TTGlyph>
    <TTGlyph name="c" xMin="97" yMin="-21" xMax="973" yMax="1102">
      <contour>
        <pt x="559" y="80" on="1"/>
        <pt x="678" y="80" on="0"/>
        <pt x="860" y="216" on="0"/>
        <pt x="860" y="337" on="1"/>
        <pt x="966" y="337" on="1"/>
        <pt x="968" y="331" on="1"/>
        <pt x="973" y="181" on="0"/>
        <pt x="723" y="-21" on="0"/>
        <pt x="559" y="-21" on="1"/>
        <pt x="338" y="-21" on="0"/>
        <pt x="97" y="282" on="0"/>
        <pt x="97" y="520" on="1"/>
        <pt x="97" y="562" on="1"/>
        <pt x="97" y="798" on="0"/>
        <pt x="339" y="1102" on="0"/>
        <pt x="558" y="1102" on="1"/>
        <pt x="736" y="1102" on="0"/>
        <pt x="973" y="892" on="0"/>
        <pt x="969" y="721" on="1"/>
        <pt x="967" y="715" on="1"/>
        <pt x="860" y="715" on="1"/>
        <pt x="860" y="845" on="0"/>
        <pt x="685" y="1000" on="0"/>
        <pt x="558" y="1000" on="1"/>
        <pt x="384" y="1000" on="0"/>
        <pt x="217" y="751" on="0"/>
        <pt x="217" y="562" on="1"/>
        <pt x="217" y="520" on="1"/>
        <pt x="217" y="328" on="0"/>
        <pt x="383" y="80" on="0"/>
      </contour>
    </TTGlyph>
    <TTGlyph name="cacute" xMin="97" yMin="-21" xMax="973" yMax="1501">
      <component glyphName="c" x="0" y="0" flags="0x204"/>
      <component glyphName="acute" x="351" y="23" flags="0x4"/>
    </TTGlyph>
    <TTGlyph name="caron" xMin="136" yMin="1252" xMax="698" yMax="1494">
      <contour>
        <pt x="417" y="1325" on="1"/>
        <pt x="583" y="1494" on="1"/>
        <pt x="698" y="1494" on="1"/>
        <pt x="698" y="1477" on="1"/>
        <pt x="465" y="1252" on="1"/>
        <pt x="368" y="1252" on="1"/>
        <pt x="136" y="1477" on="1"/>
        <pt x="136" y="1494" on="1"/>
        <pt x="250" y="1494" on="1"/>
      </contour>
    </TTGlyph>
    <TTGlyph name="ccaron" xMin="97" yMin="-21" xMax="973" yMax="1523">
      <component glyphName="c" x="0" y="0" flags="0x204"/>
      <component glyphName="caron" x="124" y="29" flags="0x4"/>
    </TTGlyph>
    <TTGlyph name="ccedilla" xMin="97" yMin="-443" xMax="973" yMax="1102">
      <component glyphName="c" x="0" y="0" flags="0x204"/>
      <component glyphName="cedilla" x="346" y="-8" flags="0x4"/>
    </TTGlyph>
    <TTGlyph name="ccircumflex" xMin="97" yMin="-21" xMax="973" yMax="1521">
      <component glyphName="c" x="0" y="0" flags="0x204"/>
      <component glyphName="circumflex" x="106" y="27" flags="0x4"/>
    </TTGlyph>
    <TTGlyph name="cedilla" xMin="98" yMin="-435" xMax="410" yMax="0">
      <contour>
        <pt x="246" y="0" on="1"/>
        <pt x="234" y="-64" on="1"/>
        <pt x="313" y="-73" on="0"/>
        <pt x="410" y="-152" on="0"/>
        <pt x="410" y="-235" on="1"/>
        <pt x="410" y="-326" on="0"/>
        <pt x="252" y="-435" on="0"/>
        <pt x="105" y="-435" on="1"/>
        <pt x="98" y="-357" on="1"/>
        <pt x="188" y="-357" on="0"/>
        <pt x="311" y="-296" on="0"/>
        <pt x="311" y="-237" on="1"/>
        <pt x="311" y="-180" on="0"/>
        <pt x="228" y="-135" on="0"/>
        <pt x="124" y="-127" on="1"/>
        <pt x="153" y="0" on="1"/>
      </contour>
    </TTGlyph>
    <TTGlyph name="cent" xMin="122" yMin="-245" xMax="998" yMax="1318">
      <contour>
        <pt x="584" y="80" on="1"/>
        <pt x="703" y="80" on="0"/>
        <pt x="885" y="216" on="0"/>
        <pt x="885" y="337" on="1"/>
        <pt x="992" y="337" on="1"/>
        <pt x="994" y="331" on="1"/>
        <pt x="998" y="194" on="0"/>
        <pt x="786" y="0" on="0"/>
        <pt x="637" y="-18" on="1"/>
        <pt x="637" y="-245" on="1"/>
        <pt x="517" y="-245" on="1"/>
        <pt x="517" y="-17" on="1"/>
        <pt x="327" y="6" on="0"/>
        <pt x="122" y="301" on="0"/>
        <pt x="122" y="520" on="1"/>
        <pt x="122" y="562" on="1"/>
        <pt x="122" y="779" on="0"/>
        <pt x="328" y="1074" on="0"/>
        <pt x="517" y="1098" on="1"/>
        <pt x="517" y="1318" on="1"/>
        <pt x="637" y="1318" on="1"/>
        <pt x="637" y="1099" on="1"/>
        <pt x="795" y="1082" on="0"/>
        <pt x="998" y="878" on="0"/>
        <pt x="995" y="721" on="1"/>
        <pt x="992" y="715" on="1"/>
        <pt x="885" y="715" on="1"/>
        <pt x="885" y="845" on="0"/>
        <pt x="710" y="1000" on="0"/>
        <pt x="583" y="1000" on="1"/>
        <pt x="409" y="1000" on="0"/>
        <pt x="242" y="751" on="0"/>
        <pt x="242" y="562" on="1"/>
        <pt x="242" y="520" on="1"/>
        <pt x="242" y="328" on="0"/>
        <pt x="408" y="80" on="0"/>
      </contour>
    </TTGlyph>
    <TTGlyph name="chi" xMin="64" yMin="-427" xMax="1076" yMax="1093">
      <contour>
        <pt x="154" y="1093" on="1"/>
        <pt x="264" y="1093" on="0"/>
        <pt x="387" y="949" on="0"/>
        <pt x="436" y="839" on="1"/>
        <pt x="581" y="504" on="1"/>
        <pt x="587" y="504" on="1"/>
        <pt x="888" y="1082" on="1"/>
        <pt x="1013" y="1082" on="1"/>
        <pt x="641" y="367" on="1"/>
        <pt x="856" y="-127" on="1"/>
        <pt x="907" y="-232" on="0"/>
        <pt x="966" y="-318" on="0"/>
        <pt x="1014" y="-318" on="1"/>
        <pt x="1027" y="-318" on="0"/>
        <pt x="1058" y="-314" on="0"/>
        <pt x="1073" y="-312" on="1"/>
        <pt x="1076" y="-415" on="1"/>
        <pt x="1065" y="-420" on="0"/>
        <pt x="1022" y="-427" on="0"/>
        <pt x="1007" y="-427" on="1"/>
        <pt x="915" y="-427" on="0"/>
        <pt x="805" y="-306" on="0"/>
        <pt x="743" y="-163" on="1"/>
        <pt x="573" y="225" on="1"/>
        <pt x="567" y="225" on="1"/>
        <pt x="235" y="-414" on="1"/>
        <pt x="108" y="-414" on="1"/>
        <pt x="513" y="362" on="1"/>
        <pt x="323" y="797" on="1"/>
        <pt x="276" y="898" on="0"/>
        <pt x="204" y="988" on="0"/>
        <pt x="137" y="988" on="1"/>
        <pt x="125" y="988" on="0"/>
        <pt x="80" y="984" on="0"/>
        <pt x="69" y="982" on="1"/>
        <pt x="64" y="1081" on="1"/>
        <pt x="78" y="1085" on="0"/>
        <pt x="133" y="1093" on="0"/>
      </contour>
    </TTGlyph>
    <TTGlyph name="circumflex" xMin="160" yMin="1252" xMax="715" yMax="1494">
      <contour>
        <pt x="715" y="1270" on="1"/>
        <pt x="715" y="1252" on="1"/>
        <pt x="603" y="1252" on="1"/>
        <pt x="436" y="1420" on="1"/>
        <pt x="270" y="1252" on="1"/>
        <pt x="160" y="1252" on="1"/>
        <pt x="160" y="1273" on="1"/>
        <pt x="387" y="1494" on="1"/>
        <pt x="485" y="1494" on="1"/>
      </contour>
    </TTGlyph>
    <TTGlyph name="circumflexacutecomb" xMin="98" yMin="1252" xMax="969" yMax="1633">
      <contour>
        <pt x="362" y="1494" on="1"/>
        <pt x="478" y="1494" on="1"/>
        <pt x="741" y="1258" on="1"/>
        <pt x="739" y="1252" on="1"/>
        <pt x="607" y="1252" on="1"/>
        <pt x="420" y="1424" on="1"/>
        <pt x="233" y="1252" on="1"/>
        <pt x="100" y="1252" on="1"/>
        <pt x="98" y="1258" on="1"/>
      </contour>
      <contour>
        <pt x="832" y="1633" on="1"/>
        <pt x="969" y="1633" on="1"/>
        <pt x="787" y="1402" on="1"/>
        <pt x="685" y="1402" on="1"/>
      </contour>
    </TTGlyph>
    <TTGlyph name="circumflexgravecomb" xMin="-111" yMin="1252" xMax="758" yMax="1633">
      <contour>
        <pt x="758" y="1258" on="1"/>
        <pt x="756" y="1252" on="1"/>
        <pt x="623" y="1252" on="1"/>
        <pt x="436" y="1424" on="1"/>
        <pt x="249" y="1252" on="1"/>
        <pt x="117" y="1252" on="1"/>
        <pt x="115" y="1258" on="1"/>
        <pt x="378" y="1494" on="1"/>
        <pt x="494" y="1494" on="1"/>
      </contour>
      <contour>
        <pt x="171" y="1402" on="1"/>
        <pt x="70" y="1402" on="1"/>
        <pt x="-111" y="1633" on="1"/>
        <pt x="24" y="1633" on="1"/>
      </contour>
    </TTGlyph>
    <TTGlyph name="circumflexhookcomb" xMin="115" yMin="1252" xMax="976" yMax="1713">
      <contour>
        <pt x="758" y="1258" on="1"/>
        <pt x="756" y="1252" on="1"/>
        <pt x="637" y="1252" on="1"/>
        <pt x="436" y="1438" on="1"/>
        <pt x="236" y="1252" on="1"/>
        <pt x="117" y="1252" on="1"/>
        <pt x="115" y="1258" on="1"/>
        <pt x="369" y="1494" on="1"/>
        <pt x="503" y="1494" on="1"/>
      </contour>
      <contour>
        <pt x="747" y="1378" on="1"/>
        <pt x="746" y="1490" on="1"/>
        <pt x="823" y="1495" on="0"/>
        <pt x="883" y="1524" on="0"/>
        <pt x="883" y="1562" on="1"/>
        <pt x="883" y="1602" on="0"/>
        <pt x="790" y="1639" on="0"/>
        <pt x="719" y="1639" on="1"/>
        <pt x="724" y="1713" on="1"/>
        <pt x="840" y="1713" on="0"/>
        <pt x="976" y="1632" on="0"/>
        <pt x="976" y="1565" on="1"/>
        <pt x="976" y="1501" on="0"/>
        <pt x="894" y="1437" on="0"/>
        <pt x="827" y="1430" on="1"/>
        <pt x="827" y="1378" on="1"/>
      </contour>
    </TTGlyph>
    <TTGlyph name="circumflextildecomb" xMin="115" yMin="1252" xMax="758" yMax="1727">
      <contour>
        <pt x="758" y="1258" on="1"/>
        <pt x="756" y="1252" on="1"/>
        <pt x="637" y="1252" on="1"/>
        <pt x="436" y="1433" on="1"/>
        <pt x="236" y="1252" on="1"/>
        <pt x="117" y="1252" on="1"/>
        <pt x="115" y="1258" on="1"/>
        <pt x="384" y="1494" on="1"/>
        <pt x="489" y="1494" on="1"/>
      </contour>
      <contour>
        <pt x="696" y="1712" on="1"/>
        <pt x="696" y="1646" on="0"/>
        <pt x="611" y="1555" on="0"/>
        <pt x="551" y="1555" on="1"/>
        <pt x="497" y="1555" on="0"/>
        <pt x="382" y="1643" on="0"/>
        <pt x="342" y="1641" on="1"/>
        <pt x="308" y="1643" on="0"/>
        <pt x="262" y="1581" on="0"/>
        <pt x="262" y="1540" on="1"/>
        <pt x="198" y="1553" on="1"/>
        <pt x="198" y="1618" on="0"/>
        <pt x="283" y="1721" on="0"/>
        <pt x="342" y="1722" on="1"/>
        <pt x="390" y="1721" on="0"/>
        <pt x="512" y="1634" on="0"/>
        <pt x="551" y="1636" on="1"/>
        <pt x="585" y="1634" on="0"/>
        <pt x="632" y="1686" on="0"/>
        <pt x="632" y="1727" on="1"/>
      </contour>
    </TTGlyph>
    <TTGlyph name="colon" xMin="154" yMin="0" xMax="291" yMax="1080">
      <component glyphName="period" x="-13" y="0" flags="0x4"/>
      <component glyphName="period" x="-13" y="916" flags="0x4"/>
    </TTGlyph>
    <TTGlyph name="comma" xMin="83" yMin="-258" xMax="271" yMax="188">
      <contour>
        <pt x="271" y="18" on="1"/>
        <pt x="165" y="-258" on="1"/>
        <pt x="83" y="-258" on="1"/>
        <pt x="152" y="21" on="1"/>
        <pt x="152" y="188" on="1"/>
        <pt x="271" y="188" on="1"/>
      </contour>
    </TTGlyph>
    <TTGlyph name="commaaccent" xMin="141" yMin="-155" xMax="295" yMax="176">
      <contour>
        <pt x="295" y="54" on="1"/>
        <pt x="212" y="-155" on="1"/>
        <pt x="141" y="-155" on="1"/>
        <pt x="193" y="56" on="1"/>
        <pt x="193" y="176" on="1"/>
        <pt x="295" y="176" on="1"/>
      </contour>
    </TTGlyph>
    <TTGlyph name="commaaccentrotate" xMin="151" yMin="1206" xMax="310" yMax="1559">
      <contour>
        <pt x="151" y="1343" on="1"/>
        <pt x="238" y="1559" on="1"/>
        <pt x="310" y="1559" on="1"/>
        <pt x="270" y="1341" on="1"/>
        <pt x="270" y="1206" on="1"/>
        <pt x="151" y="1206" on="1"/>
      </contour>
    </TTGlyph>
    <TTGlyph name="copyright" xMin="107" yMin="-21" xMax="1526" yMax="1476">
      <contour>
        <pt x="1113" y="596" on="1"/>
        <pt x="1115" y="590" on="1"/>
        <pt x="1119" y="440" on="0"/>
        <pt x="954" y="282" on="0"/>
        <pt x="807" y="282" on="1"/>
        <pt x="656" y="282" on="0"/>
        <pt x="474" y="495" on="0"/>
        <pt x="474" y="669" on="1"/>
        <pt x="474" y="788" on="1"/>
        <pt x="474" y="960" on="0"/>
        <pt x="656" y="1175" on="0"/>
        <pt x="807" y="1175" on="1"/>
        <pt x="954" y="1175" on="0"/>
        <pt x="1120" y="1017" on="0"/>
        <pt x="1116" y="868" on="1"/>
        <pt x="1114" y="862" on="1"/>
        <pt x="1023" y="862" on="1"/>
        <pt x="1023" y="975" on="0"/>
        <pt x="913" y="1085" on="0"/>
        <pt x="807" y="1085" on="1"/>
        <pt x="697" y="1085" on="0"/>
        <pt x="573" y="918" on="0"/>
        <pt x="573" y="789" on="1"/>
        <pt x="573" y="669" on="1"/>
        <pt x="573" y="537" on="0"/>
        <pt x="696" y="372" on="0"/>
        <pt x="807" y="372" on="1"/>
        <pt x="914" y="372" on="0"/>
        <pt x="1022" y="480" on="0"/>
        <pt x="1022" y="596" on="1"/>
      </contour>
      <contour>
        <pt x="192" y="729" on="1"/>
        <pt x="192" y="450" on="0"/>
        <pt x="557" y="65" on="0"/>
        <pt x="817" y="65" on="1"/>
        <pt x="1074" y="65" on="0"/>
        <pt x="1441" y="450" on="0"/>
        <pt x="1441" y="729" on="1"/>
        <pt x="1441" y="1006" on="0"/>
        <pt x="1075" y="1389" on="0"/>
        <pt x="817" y="1389" on="1"/>
        <pt x="557" y="1389" on="0"/>
        <pt x="192" y="1006" on="0"/>
      </contour>
      <contour>
        <pt x="107" y="729" on="1"/>
        <pt x="107" y="1044" on="0"/>
        <pt x="521" y="1476" on="0"/>
        <pt x="817" y="1476" on="1"/>
        <pt x="1112" y="1476" on="0"/>
        <pt x="1526" y="1044" on="0"/>
        <pt x="1526" y="729" on="1"/>
        <pt x="1526" y="413" on="0"/>
        <pt x="1111" y="-21" on="0"/>
        <pt x="817" y="-21" on="1"/>
        <pt x="521" y="-21" on="0"/>
        <pt x="107" y="413" on="0"/>
      </contour>
    </TTGlyph>
    <TTGlyph name="crossbar" xMin="125" yMin="686" xMax="737" yMax="788">
      <contour>
        <pt x="737" y="686" on="1"/>
        <pt x="125" y="686" on="1"/>
        <pt x="125" y="788" on="1"/>
        <pt x="737" y="788" on="1"/>
      </contour>
    </TTGlyph>
    <TTGlyph name="currency" xMin="109" yMin="-27" xMax="1375" yMax="1265">
      <contour>
        <pt x="1131" y="133" on="1"/>
        <pt x="1051" y="59" on="0"/>
        <pt x="850" y="-20" on="0"/>
        <pt x="740" y="-20" on="1"/>
        <pt x="629" y="-20" on="0"/>
        <pt x="428" y="59" on="0"/>
        <pt x="349" y="132" on="1"/>
        <pt x="194" y="-26" on="1"/>
        <pt x="109" y="60" on="1"/>
        <pt x="268" y="221" on="1"/>
        <pt x="208" y="302" on="0"/>
        <pt x="144" y="498" on="0"/>
        <pt x="144" y="608" on="1"/>
        <pt x="144" y="720" on="0"/>
        <pt x="213" y="924" on="0"/>
        <pt x="277" y="1006" on="1"/>
        <pt x="109" y="1177" on="1"/>
        <pt x="194" y="1264" on="1"/>
        <pt x="361" y="1094" on="1"/>
        <pt x="439" y="1161" on="0"/>
        <pt x="633" y="1234" on="0"/>
        <pt x="740" y="1234" on="1"/>
        <pt x="846" y="1234" on="0"/>
        <pt x="1040" y="1159" on="0"/>
        <pt x="1119" y="1092" on="1"/>
        <pt x="1289" y="1265" on="1"/>
        <pt x="1375" y="1177" on="1"/>
        <pt x="1204" y="1002" on="1"/>
        <pt x="1266" y="920" on="0"/>
        <pt x="1334" y="719" on="0"/>
        <pt x="1334" y="608" on="1"/>
        <pt x="1334" y="500" on="0"/>
        <pt x="1270" y="304" on="0"/>
        <pt x="1212" y="224" on="1"/>
        <pt x="1375" y="60" on="1"/>
        <pt x="1289" y="-27" on="1"/>
      </contour>
      <contour>
        <pt x="257" y="608" on="1"/>
        <pt x="257" y="393" on="0"/>
        <pt x="540" y="91" on="0"/>
        <pt x="740" y="91" on="1"/>
        <pt x="938" y="91" on="0"/>
        <pt x="1221" y="393" on="0"/>
        <pt x="1221" y="608" on="1"/>
        <pt x="1221" y="821" on="0"/>
        <pt x="938" y="1122" on="0"/>
        <pt x="740" y="1122" on="1"/>
        <pt x="540" y="1122" on="0"/>
        <pt x="257" y="821" on="0"/>
      </contour>
    </TTGlyph>
    <TTGlyph name="cyrillicbreve" xMin="139" yMin="1198" xMax="714" yMax="1456">
      <component glyphName="breve" x="0" y="0" flags="0x204"/>
    </TTGlyph>
    <TTGlyph name="cyrillichook" xMin="-115" yMin="-437" xMax="299" yMax="135">
      <contour>
        <pt x="299" y="135" on="1"/>
        <pt x="299" y="-89" on="1"/>
        <pt x="299" y="-256" on="0"/>
        <pt x="139" y="-437" on="0"/>
        <pt x="-3" y="-437" on="1"/>
        <pt x="-33" y="-437" on="0"/>
        <pt x="-86" y="-427" on="0"/>
        <pt x="-115" y="-418" on="1"/>
        <pt x="-102" y="-315" on="1"/>
        <pt x="-86" y="-320" on="0"/>
        <pt x="-24" y="-330" on="0"/>
        <pt x="-3" y="-330" on="1"/>
        <pt x="84" y="-330" on="0"/>
        <pt x="180" y="-205" on="0"/>
        <pt x="180" y="-89" on="1"/>
        <pt x="180" y="135" on="1"/>
      </contour>
    </TTGlyph>
    <TTGlyph name="cyrillichookleft" xMin="69" yMin="-383" xMax="412" yMax="42">
      <contour>
        <pt x="246" y="42" on="1"/>
        <pt x="323" y="-9" on="0"/>
        <pt x="412" y="-145" on="0"/>
        <pt x="412" y="-214" on="1"/>
        <pt x="412" y="-294" on="0"/>
        <pt x="309" y="-383" on="0"/>
        <pt x="230" y="-383" on="1"/>
        <pt x="176" y="-383" on="0"/>
        <pt x="99" y="-358" on="0"/>
        <pt x="69" y="-339" on="1"/>
        <pt x="92" y="-256" on="1"/>
        <pt x="119" y="-270" on="0"/>
        <pt x="171" y="-288" on="0"/>
        <pt x="206" y="-288" on="1"/>
        <pt x="261" y="-288" on="0"/>
        <pt x="305" y="-234" on="0"/>
        <pt x="305" y="-203" on="1"/>
        <pt x="305" y="-149" on="0"/>
        <pt x="238" y="-57" on="0"/>
        <pt x="176" y="0" on="1"/>
      </contour>
    </TTGlyph>
    <TTGlyph name="cyrillictic" xMin="142" yMin="-355" xMax="262" yMax="124">
      <contour>
        <pt x="262" y="-355" on="1"/>
        <pt x="142" y="-355" on="1"/>
        <pt x="142" y="124" on="1"/>
        <pt x="262" y="124" on="1"/>
      </contour>
    </TTGlyph>
    <TTGlyph name="d" xMin="111" yMin="-21" xMax="979" yMax="1560">
      <contour>
        <pt x="111" y="532" on="1"/>
        <pt x="111" y="791" on="0"/>
        <pt x="330" y="1102" on="0"/>
        <pt x="526" y="1102" on="1"/>
        <pt x="639" y="1102" on="0"/>
        <pt x="805" y="1006" on="0"/>
        <pt x="860" y="918" on="1"/>
        <pt x="860" y="1560" on="1"/>
        <pt x="979" y="1560" on="1"/>
        <pt x="979" y="0" on="1"/>
        <pt x="873" y="0" on="1"/>
        <pt x="863" y="157" on="1"/>
        <pt x="809" y="71" on="0"/>
        <pt x="639" y="-21" on="0"/>
        <pt x="524" y="-21" on="1"/>
        <pt x="330" y="-21" on="0"/>
        <pt x="111" y="268" on="0"/>
        <pt x="111" y="511" on="1"/>
      </contour>
      <contour>
        <pt x="231" y="511" on="1"/>
        <pt x="231" y="315" on="0"/>
        <pt x="388" y="83" on="0"/>
        <pt x="546" y="83" on="1"/>
        <pt x="662" y="83" on="0"/>
        <pt x="817" y="187" on="0"/>
        <pt x="860" y="279" on="1"/>
        <pt x="860" y="787" on="1"/>
        <pt x="819" y="881" on="0"/>
        <pt x="669" y="998" on="0"/>
        <pt x="548" y="998" on="1"/>
        <pt x="390" y="998" on="0"/>
        <pt x="231" y="739" on="0"/>
        <pt x="231" y="532" on="1"/>
      </contour>
    </TTGlyph>
    <TTGlyph name="dagger" xMin="67" yMin="0" xMax="1057" yMax="1456">
      <contour>
        <pt x="1057" y="977" on="1"/>
        <pt x="625" y="977" on="1"/>
        <pt x="625" y="0" on="1"/>
        <pt x="505" y="0" on="1"/>
        <pt x="505" y="977" on="1"/>
        <pt x="67" y="977" on="1"/>
        <pt x="67" y="1082" on="1"/>
        <pt x="505" y="1082" on="1"/>
        <pt x="505" y="1456" on="1"/>
        <pt x="625" y="1456" on="1"/>
        <pt x="625" y="1082" on="1"/>
        <pt x="1057" y="1082" on="1"/>
      </contour>
    </TTGlyph>
    <TTGlyph name="daggerdbl" xMin="84" yMin="-416" xMax="1073" yMax="1456">
      <contour>
        <pt x="1073" y="0" on="1"/>
        <pt x="630" y="0" on="1"/>
        <pt x="630" y="-416" on="1"/>
        <pt x="509" y="-416" on="1"/>
        <pt x="509" y="0" on="1"/>
        <pt x="84" y="0" on="1"/>
        <pt x="84" y="101" on="1"/>
        <pt x="509" y="101" on="1"/>
        <pt x="509" y="979" on="1"/>
        <pt x="84" y="979" on="1"/>
        <pt x="84" y="1082" on="1"/>
        <pt x="509" y="1082" on="1"/>
        <pt x="509" y="1456" on="1"/>
        <pt x="630" y="1456" on="1"/>
        <pt x="630" y="1082" on="1"/>
        <pt x="1073" y="1082" on="1"/>
        <pt x="1073" y="979" on="1"/>
        <pt x="630" y="979" on="1"/>
        <pt x="630" y="101" on="1"/>
        <pt x="1073" y="101" on="1"/>
      </contour>
    </TTGlyph>
    <TTGlyph name="dasiaoxia" xMin="126" yMin="1135" xMax="646" yMax="1477">
      <contour>
        <pt x="379" y="1164" on="1"/>
        <pt x="481" y="1477" on="1"/>
        <pt x="646" y="1477" on="1"/>
        <pt x="646" y="1456" on="1"/>
        <pt x="439" y="1137" on="1"/>
        <pt x="379" y="1137" on="1"/>
      </contour>
      <contour>
        <pt x="126" y="1278" on="1"/>
        <pt x="255" y="1476" on="1"/>
        <pt x="347" y="1476" on="1"/>
        <pt x="265" y="1272" on="1"/>
        <pt x="265" y="1135" on="1"/>
        <pt x="126" y="1135" on="1"/>
      </contour>
    </TTGlyph>
    <TTGlyph name="dcaron" xMin="111" yMin="-21" xMax="1260" yMax="1560">
      <component glyphName="d" x="0" y="0" flags="0x4"/>
      <component glyphName="commaaccent" x="965" y="1383" flags="0x4"/>
    </TTGlyph>
    <TTGlyph name="dcroat" xMin="111" yMin="-21" xMax="1156" yMax="1560">
      <contour>
        <pt x="1156" y="1257" on="1"/>
        <pt x="979" y="1257" on="1"/>
        <pt x="979" y="0" on="1"/>
        <pt x="873" y="0" on="1"/>
        <pt x="863" y="157" on="1"/>
        <pt x="809" y="71" on="0"/>
        <pt x="639" y="-21" on="0"/>
        <pt x="524" y="-21" on="1"/>
        <pt x="330" y="-21" on="0"/>
        <pt x="111" y="268" on="0"/>
        <pt x="111" y="511" on="1"/>
        <pt x="111" y="532" on="1"/>
        <pt x="111" y="791" on="0"/>
        <pt x="330" y="1102" on="0"/>
        <pt x="526" y="1102" on="1"/>
        <pt x="639" y="1102" on="0"/>
        <pt x="805" y="1006" on="0"/>
        <pt x="860" y="918" on="1"/>
        <pt x="860" y="1257" on="1"/>
        <pt x="544" y="1257" on="1"/>
        <pt x="544" y="1359" on="1"/>
        <pt x="860" y="1359" on="1"/>
        <pt x="860" y="1560" on="1"/>
        <pt x="979" y="1560" on="1"/>
        <pt x="979" y="1359" on="1"/>
        <pt x="1156" y="1359" on="1"/>
      </contour>
      <contour>
        <pt x="231" y="511" on="1"/>
        <pt x="231" y="315" on="0"/>
        <pt x="388" y="83" on="0"/>
        <pt x="546" y="83" on="1"/>
        <pt x="662" y="83" on="0"/>
        <pt x="817" y="187" on="0"/>
        <pt x="860" y="279" on="1"/>
        <pt x="860" y="787" on="1"/>
        <pt x="819" y="881" on="0"/>
        <pt x="669" y="998" on="0"/>
        <pt x="548" y="998" on="1"/>
        <pt x="390" y="998" on="0"/>
        <pt x="231" y="739" on="0"/>
        <pt x="231" y="532" on="1"/>
      </contour>
    </TTGlyph>
    <TTGlyph name="degree" xMin="143" yMin="980" xMax="630" yMax="1477">
      <contour>
        <pt x="143" y="1227" on="1"/>
        <pt x="143" y="1329" on="0"/>
        <pt x="287" y="1477" on="0"/>
        <pt x="388" y="1477" on="1"/>
        <pt x="487" y="1477" on="0"/>
        <pt x="630" y="1329" on="0"/>
        <pt x="630" y="1227" on="1"/>
        <pt x="630" y="1123" on="0"/>
        <pt x="488" y="980" on="0"/>
        <pt x="388" y="980" on="1"/>
        <pt x="287" y="980" on="0"/>
        <pt x="143" y="1124" on="0"/>
      </contour>
      <contour>
        <pt x="233" y="1227" on="1"/>
        <pt x="233" y="1159" on="0"/>
        <pt x="322" y="1071" on="0"/>
        <pt x="388" y="1071" on="1"/>
        <pt x="453" y="1071" on="0"/>
        <pt x="540" y="1159" on="0"/>
        <pt x="540" y="1227" on="1"/>
        <pt x="540" y="1295" on="0"/>
        <pt x="453" y="1386" on="0"/>
        <pt x="388" y="1386" on="1"/>
        <pt x="322" y="1386" on="0"/>
        <pt x="233" y="1294" on="0"/>
      </contour>
    </TTGlyph>
    <TTGlyph name="delta" xMin="91" yMin="-21" xMax="1048" yMax="1456">
      <contour>
        <pt x="948" y="1456" on="1"/>
        <pt x="948" y="1356" on="1"/>
        <pt x="418" y="1356" on="1"/>
        <pt x="415" y="1351" on="1"/>
        <pt x="717" y="1179" on="0"/>
        <pt x="1048" y="776" on="0"/>
        <pt x="1048" y="557" on="1"/>
        <pt x="1048" y="524" on="1"/>
        <pt x="1048" y="284" on="0"/>
        <pt x="787" y="-21" on="0"/>
        <pt x="571" y="-21" on="1"/>
        <pt x="353" y="-21" on="0"/>
        <pt x="91" y="284" on="0"/>
        <pt x="91" y="524" on="1"/>
        <pt x="91" y="557" on="1"/>
        <pt x="91" y="777" on="0"/>
        <pt x="340" y="1072" on="0"/>
        <pt x="547" y="1085" on="1"/>
        <pt x="559" y="1085" on="0"/>
        <pt x="604" y="1081" on="0"/>
        <pt x="620" y="1076" on="1"/>
        <pt x="622" y="1082" on="1"/>
        <pt x="554" y="1146" on="0"/>
        <pt x="347" y="1292" on="0"/>
        <pt x="231" y="1363" on="1"/>
        <pt x="231" y="1456" on="1"/>
      </contour>
      <contour>
        <pt x="211" y="524" on="1"/>
        <pt x="211" y="336" on="0"/>
        <pt x="401" y="80" on="0"/>
        <pt x="571" y="80" on="1"/>
        <pt x="738" y="80" on="0"/>
        <pt x="929" y="336" on="0"/>
        <pt x="929" y="524" on="1"/>
        <pt x="929" y="557" on="1"/>
        <pt x="929" y="701" on="0"/>
        <pt x="792" y="923" on="0"/>
        <pt x="709" y="981" on="1"/>
        <pt x="679" y="988" on="0"/>
        <pt x="598" y="1000" on="0"/>
        <pt x="569" y="1000" on="1"/>
        <pt x="401" y="1000" on="0"/>
        <pt x="211" y="742" on="0"/>
        <pt x="211" y="557" on="1"/>
      </contour>
    </TTGlyph>
    <TTGlyph name="dieresis" xMin="162" yMin="1299" xMax="805" yMax="1456">
      <contour>
        <pt x="805" y="1299" on="1"/>
        <pt x="632" y="1299" on="1"/>
        <pt x="632" y="1456" on="1"/>
        <pt x="805" y="1456" on="1"/>
      </contour>
      <contour>
        <pt x="336" y="1299" on="1"/>
        <pt x="162" y="1299" on="1"/>
        <pt x="162" y="1456" on="1"/>
        <pt x="336" y="1456" on="1"/>
      </contour>
    </TTGlyph>
    <TTGlyph name="dieresistonos" xMin="163" yMin="1304" xMax="815" yMax="1691">
      <contour>
        <pt x="815" y="1304" on="1"/>
        <pt x="656" y="1304" on="1"/>
        <pt x="656" y="1456" on="1"/>
        <pt x="815" y="1456" on="1"/>
      </contour>
      <contour>
        <pt x="323" y="1304" on="1"/>
        <pt x="163" y="1304" on="1"/>
        <pt x="163" y="1456" on="1"/>
        <pt x="323" y="1456" on="1"/>
      </contour>
      <contour>
        <pt x="480" y="1691" on="1"/>
        <pt x="654" y="1691" on="1"/>
        <pt x="532" y="1472" on="1"/>
        <pt x="444" y="1472" on="1"/>
      </contour>
    </TTGlyph>
    <TTGlyph name="divide" xMin="72" yMin="212" xMax="1070" yMax="1170">
      <contour>
        <pt x="1070" y="644" on="1"/>
        <pt x="72" y="644" on="1"/>
        <pt x="72" y="760" on="1"/>
        <pt x="1070" y="760" on="1"/>
      </contour>
      <contour>
        <pt x="648" y="1010" on="1"/>
        <pt x="506" y="1010" on="1"/>
        <pt x="506" y="1170" on="1"/>
        <pt x="648" y="1170" on="1"/>
      </contour>
      <contour>
        <pt x="648" y="212" on="1"/>
        <pt x="506" y="212" on="1"/>
        <pt x="506" y="372" on="1"/>
        <pt x="648" y="372" on="1"/>
      </contour>
    </TTGlyph>
    <TTGlyph name="dollar" xMin="116" yMin="-208" xMax="1021" yMax="1677">
      <contour>
        <pt x="901" y="359" on="1"/>
        <pt x="901" y="469" on="0"/>
        <pt x="757" y="609" on="0"/>
        <pt x="575" y="674" on="1"/>
        <pt x="367" y="740" on="0"/>
        <pt x="167" y="926" on="0"/>
        <pt x="167" y="1095" on="1"/>
        <pt x="167" y="1257" on="0"/>
        <pt x="367" y="1461" on="0"/>
        <pt x="539" y="1475" on="1"/>
        <pt x="539" y="1677" on="1"/>
        <pt x="641" y="1677" on="1"/>
        <pt x="641" y="1475" on="1"/>
        <pt x="816" y="1459" on="0"/>
        <pt x="1008" y="1229" on="0"/>
        <pt x="1006" y="1033" on="1"/>
        <pt x="1003" y="1028" on="1"/>
        <pt x="891" y="1028" on="1"/>
        <pt x="891" y="1180" on="0"/>
        <pt x="731" y="1370" on="0"/>
        <pt x="587" y="1370" on="1"/>
        <pt x="439" y="1370" on="0"/>
        <pt x="286" y="1215" on="0"/>
        <pt x="286" y="1097" on="1"/>
        <pt x="286" y="983" on="0"/>
        <pt x="422" y="844" on="0"/>
        <pt x="615" y="780" on="1"/>
        <pt x="822" y="711" on="0"/>
        <pt x="1021" y="528" on="0"/>
        <pt x="1021" y="361" on="1"/>
        <pt x="1021" y="195" on="0"/>
        <pt x="813" y="-4" on="0"/>
        <pt x="637" y="-18" on="1"/>
        <pt x="637" y="-208" on="1"/>
        <pt x="536" y="-208" on="1"/>
        <pt x="536" y="-19" on="1"/>
        <pt x="355" y="-8" on="0"/>
        <pt x="116" y="201" on="0"/>
        <pt x="120" y="412" on="1"/>
        <pt x="123" y="418" on="1"/>
        <pt x="235" y="418" on="1"/>
        <pt x="235" y="241" on="0"/>
        <pt x="437" y="85" on="0"/>
        <pt x="580" y="85" on="1"/>
        <pt x="728" y="85" on="0"/>
        <pt x="901" y="240" on="0"/>
      </contour>
    </TTGlyph>
    <TTGlyph name="dotaccent" xMin="157" yMin="1288" xMax="308" yMax="1456">
      <contour>
        <pt x="308" y="1288" on="1"/>
        <pt x="157" y="1288" on="1"/>
        <pt x="157" y="1456" on="1"/>
        <pt x="308" y="1456" on="1"/>
      </contour>
    </TTGlyph>
    <TTGlyph name="dotbelow" xMin="-663" yMin="-315" xMax="-512" yMax="-147">
      <contour>
        <pt x="-512" y="-315" on="1"/>
        <pt x="-663" y="-315" on="1"/>
        <pt x="-663" y="-147" on="1"/>
        <pt x="-512" y="-147" on="1"/>
      </contour>
    </TTGlyph>
    <TTGlyph name="dotlessi" xMin="168" yMin="0" xMax="288" yMax="1082">
      <contour>
        <pt x="288" y="0" on="1"/>
        <pt x="168" y="0" on="1"/>
        <pt x="168" y="1082" on="1"/>
        <pt x="288" y="1082" on="1"/>
      </contour>
    </TTGlyph>
    <TTGlyph name="e" xMin="92" yMin="-21" xMax="976" yMax="1102">
      <contour>
        <pt x="564" y="-21" on="1"/>
        <pt x="361" y="-21" on="0"/>
        <pt x="92" y="279" on="0"/>
        <pt x="92" y="509" on="1"/>
        <pt x="92" y="564" on="1"/>
        <pt x="92" y="796" on="0"/>
        <pt x="359" y="1102" on="0"/>
        <pt x="549" y="1102" on="1"/>
        <pt x="748" y="1102" on="0"/>
        <pt x="976" y="850" on="0"/>
        <pt x="976" y="640" on="1"/>
        <pt x="976" y="538" on="1"/>
        <pt x="212" y="538" on="1"/>
        <pt x="212" y="509" on="1"/>
        <pt x="212" y="326" on="0"/>
        <pt x="406" y="80" on="0"/>
        <pt x="564" y="80" on="1"/>
        <pt x="676" y="80" on="0"/>
        <pt x="834" y="142" on="0"/>
        <pt x="890" y="200" on="1"/>
        <pt x="941" y="118" on="1"/>
        <pt x="880" y="54" on="0"/>
        <pt x="693" y="-21" on="0"/>
      </contour>
      <contour>
        <pt x="549" y="1000" on="1"/>
        <pt x="416" y="1000" on="0"/>
        <pt x="236" y="797" on="0"/>
        <pt x="221" y="644" on="1"/>
        <pt x="223" y="639" on="1"/>
        <pt x="857" y="639" on="1"/>
        <pt x="857" y="669" on="1"/>
        <pt x="857" y="810" on="0"/>
        <pt x="691" y="1000" on="0"/>
      </contour>
    </TTGlyph>
    <TTGlyph name="eacute" xMin="92" yMin="-21" xMax="976" yMax="1502">
      <component glyphName="e" x="0" y="0" flags="0x204"/>
      <component glyphName="acute" x="371" y="24" flags="0x4"/>
    </TTGlyph>
    <TTGlyph name="ebreve" xMin="92" yMin="-21" xMax="976" yMax="1533">
      <component glyphName="e" x="0" y="0" flags="0x204"/>
      <component glyphName="breve" x="135" y="77" flags="0x4"/>
    </TTGlyph>
    <TTGlyph name="ecaron" xMin="92" yMin="-21" xMax="976" yMax="1524">
      <component glyphName="e" x="0" y="0" flags="0x204"/>
      <component glyphName="caron" x="144" y="30" flags="0x4"/>
    </TTGlyph>
    <TTGlyph name="ecircumflex" xMin="92" yMin="-21" xMax="976" yMax="1522">
      <component glyphName="e" x="0" y="0" flags="0x204"/>
      <component glyphName="circumflex" x="126" y="28" flags="0x4"/>
    </TTGlyph>
    <TTGlyph name="edieresis" xMin="92" yMin="-21" xMax="976" yMax="1477">
      <component glyphName="e" x="0" y="0" flags="0x204"/>
      <component glyphName="dieresis" x="83" y="21" flags="0x4"/>
    </TTGlyph>
    <TTGlyph name="edotaccent" xMin="92" yMin="-21" xMax="976" yMax="1484">
      <component glyphName="e" x="0" y="0" flags="0x204"/>
      <component glyphName="dotaccent" x="328" y="28" flags="0x4"/>
    </TTGlyph>
    <TTGlyph name="egrave" xMin="92" yMin="-21" xMax="976" yMax="1506">
      <component glyphName="e" x="0" y="0" flags="0x204"/>
      <component glyphName="grave" x="181" y="30" flags="0x4"/>
    </TTGlyph>
    <TTGlyph name="eight" xMin="100" yMin="-21" xMax="1037" yMax="1477">
      <contour>
        <pt x="996" y="1081" on="1"/>
        <pt x="996" y="963" on="0"/>
        <pt x="858" y="786" on="0"/>
        <pt x="743" y="746" on="1"/>
        <pt x="876" y="705" on="0"/>
        <pt x="1037" y="514" on="0"/>
        <pt x="1037" y="386" on="1"/>
        <pt x="1037" y="190" on="0"/>
        <pt x="775" y="-21" on="0"/>
        <pt x="569" y="-21" on="1"/>
        <pt x="359" y="-21" on="0"/>
        <pt x="100" y="189" on="0"/>
        <pt x="100" y="386" on="1"/>
        <pt x="100" y="515" on="0"/>
        <pt x="258" y="706" on="0"/>
        <pt x="391" y="747" on="1"/>
        <pt x="276" y="787" on="0"/>
        <pt x="141" y="963" on="0"/>
        <pt x="141" y="1081" on="1"/>
        <pt x="141" y="1269" on="0"/>
        <pt x="378" y="1477" on="0"/>
        <pt x="567" y="1477" on="1"/>
        <pt x="755" y="1477" on="0"/>
        <pt x="996" y="1268" on="0"/>
      </contour>
      <contour>
        <pt x="917" y="385" on="1"/>
        <pt x="917" y="523" on="0"/>
        <pt x="717" y="696" on="0"/>
        <pt x="567" y="696" on="1"/>
        <pt x="415" y="696" on="0"/>
        <pt x="219" y="523" on="0"/>
        <pt x="219" y="385" on="1"/>
        <pt x="219" y="242" on="0"/>
        <pt x="413" y="80" on="0"/>
        <pt x="569" y="80" on="1"/>
        <pt x="721" y="80" on="0"/>
        <pt x="917" y="243" on="0"/>
      </contour>
      <contour>
        <pt x="876" y="1082" on="1"/>
        <pt x="876" y="1208" on="0"/>
        <pt x="699" y="1375" on="0"/>
        <pt x="567" y="1375" on="1"/>
        <pt x="432" y="1375" on="0"/>
        <pt x="260" y="1215" on="0"/>
        <pt x="260" y="1082" on="1"/>
        <pt x="260" y="953" on="0"/>
        <pt x="433" y="798" on="0"/>
        <pt x="569" y="798" on="1"/>
        <pt x="702" y="798" on="0"/>
        <pt x="876" y="953" on="0"/>
      </contour>
    </TTGlyph>
    <TTGlyph name="eight.lnum" xMin="130" yMin="-21" xMax="1085" yMax="1477">
      <contour>
        <pt x="1044" y="1081" on="1"/>
        <pt x="1044" y="963" on="0"/>
        <pt x="904" y="786" on="0"/>
        <pt x="786" y="746" on="1"/>
        <pt x="921" y="705" on="0"/>
        <pt x="1085" y="513" on="0"/>
        <pt x="1085" y="386" on="1"/>
        <pt x="1085" y="190" on="0"/>
        <pt x="818" y="-21" on="0"/>
        <pt x="608" y="-21" on="1"/>
        <pt x="394" y="-21" on="0"/>
        <pt x="130" y="189" on="0"/>
        <pt x="130" y="386" on="1"/>
        <pt x="130" y="515" on="0"/>
        <pt x="291" y="706" on="0"/>
        <pt x="427" y="747" on="1"/>
        <pt x="309" y="787" on="0"/>
        <pt x="171" y="963" on="0"/>
        <pt x="171" y="1081" on="1"/>
        <pt x="171" y="1269" on="0"/>
        <pt x="413" y="1477" on="0"/>
        <pt x="606" y="1477" on="1"/>
        <pt x="798" y="1477" on="0"/>
        <pt x="1044" y="1268" on="0"/>
      </contour>
      <contour>
        <pt x="965" y="385" on="1"/>
        <pt x="965" y="523" on="0"/>
        <pt x="759" y="696" on="0"/>
        <pt x="606" y="696" on="1"/>
        <pt x="450" y="696" on="0"/>
        <pt x="250" y="523" on="0"/>
        <pt x="250" y="385" on="1"/>
        <pt x="250" y="242" on="0"/>
        <pt x="448" y="80" on="0"/>
        <pt x="608" y="80" on="1"/>
        <pt x="764" y="80" on="0"/>
        <pt x="965" y="243" on="0"/>
      </contour>
      <contour>
        <pt x="924" y="1082" on="1"/>
        <pt x="924" y="1208" on="0"/>
        <pt x="741" y="1375" on="0"/>
        <pt x="606" y="1375" on="1"/>
        <pt x="467" y="1375" on="0"/>
        <pt x="291" y="1215" on="0"/>
        <pt x="291" y="1082" on="1"/>
        <pt x="291" y="953" on="0"/>
        <pt x="468" y="798" on="0"/>
        <pt x="608" y="798" on="1"/>
        <pt x="745" y="798" on="0"/>
        <pt x="924" y="953" on="0"/>
      </contour>
    </TTGlyph>
    <TTGlyph name="eight.smcp" xMin="112" yMin="-17" xMax="944" yMax="1181">
      <contour>
        <pt x="909" y="868" on="1"/>
        <pt x="909" y="776" on="0"/>
        <pt x="798" y="637" on="0"/>
        <pt x="706" y="603" on="1"/>
        <pt x="814" y="567" on="0"/>
        <pt x="944" y="418" on="0"/>
        <pt x="944" y="319" on="1"/>
        <pt x="944" y="161" on="0"/>
        <pt x="711" y="-17" on="0"/>
        <pt x="537" y="-17" on="1"/>
        <pt x="352" y="-17" on="0"/>
        <pt x="112" y="161" on="0"/>
        <pt x="112" y="319" on="1"/>
        <pt x="112" y="419" on="0"/>
        <pt x="245" y="568" on="0"/>
        <pt x="357" y="604" on="1"/>
        <pt x="259" y="638" on="0"/>
        <pt x="146" y="776" on="0"/>
        <pt x="146" y="868" on="1"/>
        <pt x="146" y="1017" on="0"/>
        <pt x="365" y="1181" on="0"/>
        <pt x="534" y="1181" on="1"/>
        <pt x="695" y="1181" on="0"/>
        <pt x="909" y="1016" on="0"/>
      </contour>
      <contour>
        <pt x="824" y="319" on="1"/>
        <pt x="824" y="421" on="0"/>
        <pt x="654" y="553" on="0"/>
        <pt x="534" y="553" on="1"/>
        <pt x="406" y="553" on="0"/>
        <pt x="231" y="421" on="0"/>
        <pt x="231" y="319" on="1"/>
        <pt x="231" y="212" on="0"/>
        <pt x="406" y="84" on="0"/>
        <pt x="537" y="84" on="1"/>
        <pt x="658" y="84" on="0"/>
        <pt x="824" y="212" on="0"/>
      </contour>
      <contour>
        <pt x="789" y="868" on="1"/>
        <pt x="789" y="961" on="0"/>
        <pt x="640" y="1080" on="0"/>
        <pt x="534" y="1080" on="1"/>
        <pt x="418" y="1080" on="0"/>
        <pt x="265" y="966" on="0"/>
        <pt x="265" y="868" on="1"/>
        <pt x="265" y="772" on="0"/>
        <pt x="421" y="654" on="0"/>
        <pt x="537" y="654" on="1"/>
        <pt x="642" y="654" on="0"/>
        <pt x="789" y="772" on="0"/>
      </contour>
    </TTGlyph>
    <TTGlyph name="eight.sup" xMin="127" yMin="-11" xMax="748" yMax="812">
      <contour>
        <pt x="724" y="595" on="1"/>
        <pt x="724" y="534" on="0"/>
        <pt x="647" y="440" on="0"/>
        <pt x="583" y="415" on="1"/>
        <pt x="658" y="388" on="0"/>
        <pt x="748" y="286" on="0"/>
        <pt x="748" y="221" on="1"/>
        <pt x="748" y="111" on="0"/>
        <pt x="574" y="-11" on="0"/>
        <pt x="444" y="-11" on="1"/>
        <pt x="306" y="-11" on="0"/>
        <pt x="127" y="111" on="0"/>
        <pt x="127" y="221" on="1"/>
        <pt x="127" y="287" on="0"/>
        <pt x="218" y="388" on="0"/>
        <pt x="297" y="415" on="1"/>
        <pt x="230" y="440" on="0"/>
        <pt x="152" y="534" on="0"/>
        <pt x="152" y="595" on="1"/>
        <pt x="152" y="698" on="0"/>
        <pt x="316" y="812" on="0"/>
        <pt x="443" y="812" on="1"/>
        <pt x="563" y="812" on="0"/>
        <pt x="724" y="698" on="0"/>
      </contour>
      <contour>
        <pt x="640" y="223" on="1"/>
        <pt x="640" y="288" on="0"/>
        <pt x="524" y="370" on="0"/>
        <pt x="443" y="370" on="1"/>
        <pt x="354" y="370" on="0"/>
        <pt x="234" y="288" on="0"/>
        <pt x="234" y="223" on="1"/>
        <pt x="234" y="157" on="0"/>
        <pt x="354" y="79" on="0"/>
        <pt x="444" y="79" on="1"/>
        <pt x="527" y="79" on="0"/>
        <pt x="640" y="157" on="0"/>
      </contour>
      <contour>
        <pt x="614" y="592" on="1"/>
        <pt x="614" y="650" on="0"/>
        <pt x="515" y="721" on="0"/>
        <pt x="443" y="721" on="1"/>
        <pt x="363" y="721" on="0"/>
        <pt x="260" y="652" on="0"/>
        <pt x="260" y="592" on="1"/>
        <pt x="260" y="532" on="0"/>
        <pt x="365" y="460" on="0"/>
        <pt x="444" y="460" on="1"/>
        <pt x="515" y="460" on="0"/>
        <pt x="614" y="532" on="0"/>
      </contour>
    </TTGlyph>
    <TTGlyph name="ellipsis" xMin="188" yMin="0" xMax="1127" yMax="164">
      <component glyphName="period" x="21" y="0" flags="0x4"/>
      <component glyphName="period" x="431" y="0" flags="0x4"/>
      <component glyphName="period" x="823" y="0" flags="0x4"/>
    </TTGlyph>
    <TTGlyph name="emacron" xMin="92" yMin="-21" xMax="976" yMax="1465">
      <component glyphName="e" x="0" y="0" flags="0x204"/>
      <component glyphName="macron" x="119" y="9" flags="0x4"/>
    </TTGlyph>
    <TTGlyph name="emdash" xMin="184" yMin="686" xMax="1520" yMax="788">
      <component glyphName="minus" x="-80" y="0" scalex="1.59997558594" scaley="1.0" flags="0x4"/>
    </TTGlyph>
    <TTGlyph name="endash" xMin="176" yMin="686" xMax="1262" yMax="788">
      <component glyphName="minus" x="-38" y="0" scalex="1.29998779297" scaley="1.0" flags="0x4"/>
    </TTGlyph>
    <TTGlyph name="eng" xMin="157" yMin="-437" xMax="981" yMax="1102">
      <contour>
        <pt x="264" y="1082" on="1"/>
        <pt x="274" y="898" on="1"/>
        <pt x="327" y="995" on="0"/>
        <pt x="502" y="1102" on="0"/>
        <pt x="621" y="1102" on="1"/>
        <pt x="797" y="1102" on="0"/>
        <pt x="981" y="887" on="0"/>
        <pt x="981" y="659" on="1"/>
        <pt x="981" y="-89" on="1"/>
        <pt x="981" y="-256" on="0"/>
        <pt x="820" y="-437" on="0"/>
        <pt x="677" y="-437" on="1"/>
        <pt x="643" y="-437" on="0"/>
        <pt x="585" y="-427" on="0"/>
        <pt x="553" y="-418" on="1"/>
        <pt x="567" y="-315" on="1"/>
        <pt x="583" y="-320" on="0"/>
        <pt x="652" y="-330" on="0"/>
        <pt x="677" y="-330" on="1"/>
        <pt x="765" y="-330" on="0"/>
        <pt x="861" y="-205" on="0"/>
        <pt x="861" y="-89" on="1"/>
        <pt x="861" y="658" on="1"/>
        <pt x="861" y="844" on="0"/>
        <pt x="722" y="998" on="0"/>
        <pt x="594" y="998" on="1"/>
        <pt x="469" y="998" on="0"/>
        <pt x="313" y="877" on="0"/>
        <pt x="277" y="774" on="1"/>
        <pt x="277" y="0" on="1"/>
        <pt x="157" y="0" on="1"/>
        <pt x="157" y="1082" on="1"/>
      </contour>
    </TTGlyph>
    <TTGlyph name="eogonek" xMin="92" yMin="-332" xMax="976" yMax="1102">
      <component glyphName="e" x="0" y="0" flags="0x204"/>
      <component glyphName="ogonek" x="502" y="60" flags="0x4"/>
    </TTGlyph>
    <TTGlyph name="epsilon" xMin="107" yMin="-18" xMax="997" yMax="1099">
      <contour>
        <pt x="107" y="297" on="1"/>
        <pt x="107" y="394" on="0"/>
        <pt x="221" y="525" on="0"/>
        <pt x="332" y="555" on="1"/>
        <pt x="234" y="589" on="0"/>
        <pt x="126" y="716" on="0"/>
        <pt x="126" y="794" on="1"/>
        <pt x="126" y="940" on="0"/>
        <pt x="353" y="1099" on="0"/>
        <pt x="550" y="1099" on="1"/>
        <pt x="731" y="1099" on="0"/>
        <pt x="979" y="930" on="0"/>
        <pt x="974" y="796" on="1"/>
        <pt x="972" y="790" on="1"/>
        <pt x="863" y="790" on="1"/>
        <pt x="863" y="881" on="0"/>
        <pt x="682" y="998" on="0"/>
        <pt x="550" y="998" on="1"/>
        <pt x="399" y="998" on="0"/>
        <pt x="247" y="884" on="0"/>
        <pt x="247" y="796" on="1"/>
        <pt x="247" y="704" on="0"/>
        <pt x="392" y="602" on="0"/>
        <pt x="546" y="602" on="1"/>
        <pt x="731" y="602" on="1"/>
        <pt x="731" y="502" on="1"/>
        <pt x="546" y="502" on="1"/>
        <pt x="387" y="502" on="0"/>
        <pt x="228" y="401" on="0"/>
        <pt x="228" y="295" on="1"/>
        <pt x="228" y="199" on="0"/>
        <pt x="398" y="82" on="0"/>
        <pt x="550" y="82" on="1"/>
        <pt x="696" y="82" on="0"/>
        <pt x="880" y="213" on="0"/>
        <pt x="880" y="310" on="1"/>
        <pt x="990" y="310" on="1"/>
        <pt x="992" y="304" on="1"/>
        <pt x="997" y="148" on="0"/>
        <pt x="732" y="-18" on="0"/>
        <pt x="550" y="-18" on="1"/>
        <pt x="353" y="-18" on="0"/>
        <pt x="107" y="150" on="0"/>
      </contour>
    </TTGlyph>
    <TTGlyph name="epsilontonos" xMin="107" yMin="-18" xMax="997" yMax="1578">
      <component glyphName="epsilon" x="0" y="0" flags="0x204"/>
      <component glyphName="tonos" x="298" y="-39" flags="0x4"/>
    </TTGlyph>
    <TTGlyph name="equal" xMin="149" yMin="422" xMax="983" yMax="939">
      <contour>
        <pt x="983" y="833" on="1"/>
        <pt x="149" y="833" on="1"/>
        <pt x="149" y="939" on="1"/>
        <pt x="983" y="939" on="1"/>
      </contour>
      <contour>
        <pt x="983" y="422" on="1"/>
        <pt x="149" y="422" on="1"/>
        <pt x="149" y="528" on="1"/>
        <pt x="983" y="528" on="1"/>
      </contour>
    </TTGlyph>
    <TTGlyph name="estimated" xMin="149" yMin="-20" xMax="1168" yMax="1102">
      <contour>
        <pt x="1043" y="94" on="1"/>
        <pt x="956" y="39" on="0"/>
        <pt x="768" y="-20" on="0"/>
        <pt x="673" y="-20" on="1"/>
        <pt x="455" y="-20" on="0"/>
        <pt x="149" y="309" on="0"/>
        <pt x="149" y="541" on="1"/>
        <pt x="149" y="767" on="0"/>
        <pt x="472" y="1102" on="0"/>
        <pt x="673" y="1102" on="1"/>
        <pt x="880" y="1102" on="0"/>
        <pt x="1168" y="792" on="0"/>
        <pt x="1168" y="561" on="1"/>
        <pt x="1168" y="514" on="1"/>
        <pt x="400" y="514" on="1"/>
        <pt x="400" y="186" on="1"/>
        <pt x="455" y="133" on="0"/>
        <pt x="596" y="76" on="0"/>
        <pt x="673" y="76" on="1"/>
        <pt x="768" y="76" on="0"/>
        <pt x="954" y="136" on="0"/>
        <pt x="1041" y="198" on="1"/>
      </contour>
      <contour>
        <pt x="673" y="1008" on="1"/>
        <pt x="599" y="1008" on="0"/>
        <pt x="458" y="943" on="0"/>
        <pt x="400" y="886" on="1"/>
        <pt x="400" y="609" on="1"/>
        <pt x="940" y="609" on="1"/>
        <pt x="940" y="895" on="1"/>
        <pt x="886" y="947" on="0"/>
        <pt x="747" y="1008" on="0"/>
      </contour>
    </TTGlyph>
    <TTGlyph name="eta" xMin="158" yMin="-415" xMax="981" yMax="1102">
      <contour>
        <pt x="264" y="1082" on="1"/>
        <pt x="275" y="899" on="1"/>
        <pt x="327" y="995" on="0"/>
        <pt x="502" y="1102" on="0"/>
        <pt x="621" y="1102" on="1"/>
        <pt x="798" y="1102" on="0"/>
        <pt x="981" y="892" on="0"/>
        <pt x="981" y="659" on="1"/>
        <pt x="981" y="-415" on="1"/>
        <pt x="861" y="-415" on="1"/>
        <pt x="861" y="658" on="1"/>
        <pt x="861" y="844" on="0"/>
        <pt x="722" y="1000" on="0"/>
        <pt x="594" y="1000" on="1"/>
        <pt x="470" y="1000" on="0"/>
        <pt x="315" y="879" on="0"/>
        <pt x="278" y="777" on="1"/>
        <pt x="278" y="0" on="1"/>
        <pt x="158" y="0" on="1"/>
        <pt x="158" y="1082" on="1"/>
      </contour>
    </TTGlyph>
    <TTGlyph name="etatonos" xMin="158" yMin="-415" xMax="981" yMax="1579">
      <component glyphName="eta" x="0" y="0" flags="0x204"/>
      <component glyphName="tonos" x="325" y="-38" flags="0x4"/>
    </TTGlyph>
    <TTGlyph name="eth" xMin="99" yMin="-21" xMax="1069" yMax="1517">
      <contour>
        <pt x="828" y="1299" on="1"/>
        <pt x="939" y="1179" on="0"/>
        <pt x="1055" y="842" on="0"/>
        <pt x="1055" y="623" on="1"/>
        <pt x="1055" y="535" on="1"/>
        <pt x="1055" y="290" on="0"/>
        <pt x="781" y="-21" on="0"/>
        <pt x="574" y="-21" on="1"/>
        <pt x="366" y="-21" on="0"/>
        <pt x="99" y="253" on="0"/>
        <pt x="99" y="455" on="1"/>
        <pt x="99" y="690" on="0"/>
        <pt x="359" y="965" on="0"/>
        <pt x="577" y="965" on="1"/>
        <pt x="681" y="965" on="0"/>
        <pt x="859" y="885" on="0"/>
        <pt x="913" y="818" on="1"/>
        <pt x="917" y="823" on="1"/>
        <pt x="899" y="954" on="0"/>
        <pt x="799" y="1160" on="0"/>
        <pt x="723" y="1239" on="1"/>
        <pt x="415" y="1063" on="1"/>
        <pt x="365" y="1137" on="1"/>
        <pt x="652" y="1301" on="1"/>
        <pt x="607" y="1334" on="0"/>
        <pt x="508" y="1390" on="0"/>
        <pt x="454" y="1413" on="1"/>
        <pt x="493" y="1517" on="1"/>
        <pt x="570" y="1487" on="0"/>
        <pt x="704" y="1411" on="0"/>
        <pt x="761" y="1364" on="1"/>
        <pt x="1018" y="1511" on="1"/>
        <pt x="1069" y="1437" on="1"/>
      </contour>
      <contour>
        <pt x="935" y="625" on="1"/>
        <pt x="935" y="634" on="0"/>
        <pt x="934" y="671" on="0"/>
        <pt x="934" y="681" on="1"/>
        <pt x="896" y="757" on="0"/>
        <pt x="716" y="861" on="0"/>
        <pt x="577" y="861" on="1"/>
        <pt x="404" y="861" on="0"/>
        <pt x="219" y="631" on="0"/>
        <pt x="219" y="455" on="1"/>
        <pt x="219" y="306" on="0"/>
        <pt x="413" y="82" on="0"/>
        <pt x="578" y="82" on="1"/>
        <pt x="736" y="82" on="0"/>
        <pt x="935" y="337" on="0"/>
        <pt x="935" y="535" on="1"/>
      </contour>
    </TTGlyph>
    <TTGlyph name="exclam" xMin="158" yMin="0" xMax="300" yMax="1456">
      <contour>
        <pt x="288" y="478" on="1"/>
        <pt x="169" y="478" on="1"/>
        <pt x="169" y="1456" on="1"/>
        <pt x="288" y="1456" on="1"/>
      </contour>
      <contour>
        <pt x="300" y="0" on="1"/>
        <pt x="158" y="0" on="1"/>
        <pt x="158" y="167" on="1"/>
        <pt x="300" y="167" on="1"/>
      </contour>
    </TTGlyph>
    <TTGlyph name="exclamdbl" xMin="158" yMin="0" xMax="762" yMax="1456">
      <component glyphName="exclam" x="0" y="0" flags="0x4"/>
      <component glyphName="exclam" x="462" y="0" flags="0x4"/>
    </TTGlyph>
    <TTGlyph name="exclamdown" xMin="145" yMin="-374" xMax="287" yMax="1082">
      <contour>
        <pt x="276" y="-374" on="1"/>
        <pt x="156" y="-374" on="1"/>
        <pt x="156" y="604" on="1"/>
        <pt x="276" y="604" on="1"/>
      </contour>
      <contour>
        <pt x="287" y="898" on="1"/>
        <pt x="145" y="898" on="1"/>
        <pt x="145" y="1082" on="1"/>
        <pt x="287" y="1082" on="1"/>
      </contour>
    </TTGlyph>
    <TTGlyph name="f" xMin="66" yMin="0" xMax="691" yMax="1581">
      <contour>
        <pt x="245" y="0" on="1"/>
        <pt x="245" y="984" on="1"/>
        <pt x="66" y="984" on="1"/>
        <pt x="66" y="1082" on="1"/>
        <pt x="245" y="1082" on="1"/>
        <pt x="245" y="1240" on="1"/>
        <pt x="245" y="1403" on="0"/>
        <pt x="408" y="1581" on="0"/>
        <pt x="555" y="1581" on="1"/>
        <pt x="588" y="1581" on="0"/>
        <pt x="656" y="1571" on="0"/>
        <pt x="691" y="1562" on="1"/>
        <pt x="676" y="1463" on="1"/>
        <pt x="652" y="1469" on="0"/>
        <pt x="601" y="1476" on="0"/>
        <pt x="567" y="1476" on="1"/>
        <pt x="469" y="1476" on="0"/>
        <pt x="365" y="1352" on="0"/>
        <pt x="365" y="1240" on="1"/>
        <pt x="365" y="1082" on="1"/>
        <pt x="623" y="1082" on="1"/>
        <pt x="623" y="984" on="1"/>
        <pt x="365" y="984" on="1"/>
        <pt x="365" y="0" on="1"/>
      </contour>
    </TTGlyph>
    <TTGlyph name="fi" xMin="48" yMin="0" xMax="928" yMax="1581">
      <contour>
        <pt x="228" y="0" on="1"/>
        <pt x="228" y="984" on="1"/>
        <pt x="48" y="984" on="1"/>
        <pt x="48" y="1082" on="1"/>
        <pt x="228" y="1082" on="1"/>
        <pt x="228" y="1220" on="1"/>
        <pt x="228" y="1392" on="0"/>
        <pt x="418" y="1581" on="0"/>
        <pt x="587" y="1581" on="1"/>
        <pt x="654" y="1581" on="0"/>
        <pt x="792" y="1551" on="0"/>
        <pt x="863" y="1522" on="1"/>
        <pt x="843" y="1419" on="1"/>
        <pt x="782" y="1444" on="0"/>
        <pt x="668" y="1472" on="0"/>
        <pt x="595" y="1472" on="1"/>
        <pt x="473" y="1472" on="0"/>
        <pt x="348" y="1342" on="0"/>
        <pt x="348" y="1220" on="1"/>
        <pt x="348" y="1082" on="1"/>
        <pt x="601" y="1082" on="1"/>
        <pt x="601" y="984" on="1"/>
        <pt x="348" y="984" on="1"/>
        <pt x="348" y="0" on="1"/>
      </contour>
      <contour>
        <pt x="928" y="0" on="1"/>
        <pt x="808" y="0" on="1"/>
        <pt x="808" y="1082" on="1"/>
        <pt x="928" y="1082" on="1"/>
      </contour>
    </TTGlyph>
    <TTGlyph name="five" xMin="169" yMin="-21" xMax="1032" yMax="1456">
      <contour>
        <pt x="189" y="659" on="1"/>
        <pt x="270" y="1456" on="1"/>
        <pt x="977" y="1456" on="1"/>
        <pt x="977" y="1345" on="1"/>
        <pt x="372" y="1345" on="1"/>
        <pt x="318" y="826" on="1"/>
        <pt x="373" y="876" on="0"/>
        <pt x="505" y="930" on="0"/>
        <pt x="618" y="933" on="1"/>
        <pt x="804" y="936" on="0"/>
        <pt x="1032" y="680" on="0"/>
        <pt x="1032" y="464" on="1"/>
        <pt x="1032" y="243" on="0"/>
        <pt x="811" y="-21" on="0"/>
        <pt x="589" y="-21" on="1"/>
        <pt x="409" y="-21" on="0"/>
        <pt x="169" y="180" on="0"/>
        <pt x="174" y="377" on="1"/>
        <pt x="176" y="383" on="1"/>
        <pt x="283" y="383" on="1"/>
        <pt x="283" y="236" on="0"/>
        <pt x="450" y="80" on="0"/>
        <pt x="589" y="80" on="1"/>
        <pt x="751" y="80" on="0"/>
        <pt x="912" y="276" on="0"/>
        <pt x="912" y="462" on="1"/>
        <pt x="912" y="625" on="0"/>
        <pt x="751" y="822" on="0"/>
        <pt x="606" y="822" on="1"/>
        <pt x="466" y="822" on="0"/>
        <pt x="319" y="733" on="0"/>
        <pt x="286" y="643" on="1"/>
      </contour>
    </TTGlyph>
    <TTGlyph name="five.lnum" xMin="188" yMin="-21" xMax="1052" yMax="1456">
      <contour>
        <pt x="208" y="659" on="1"/>
        <pt x="289" y="1456" on="1"/>
        <pt x="997" y="1456" on="1"/>
        <pt x="997" y="1345" on="1"/>
        <pt x="392" y="1345" on="1"/>
        <pt x="337" y="826" on="1"/>
        <pt x="392" y="875" on="0"/>
        <pt x="525" y="930" on="0"/>
        <pt x="637" y="933" on="1"/>
        <pt x="823" y="936" on="0"/>
        <pt x="1052" y="680" on="0"/>
        <pt x="1052" y="464" on="1"/>
        <pt x="1052" y="243" on="0"/>
        <pt x="830" y="-21" on="0"/>
        <pt x="608" y="-21" on="1"/>
        <pt x="428" y="-21" on="0"/>
        <pt x="188" y="180" on="0"/>
        <pt x="193" y="377" on="1"/>
        <pt x="195" y="383" on="1"/>
        <pt x="302" y="383" on="1"/>
        <pt x="302" y="236" on="0"/>
        <pt x="469" y="80" on="0"/>
        <pt x="608" y="80" on="1"/>
        <pt x="771" y="80" on="0"/>
        <pt x="932" y="276" on="0"/>
        <pt x="932" y="462" on="1"/>
        <pt x="932" y="625" on="0"/>
        <pt x="770" y="822" on="0"/>
        <pt x="625" y="822" on="1"/>
        <pt x="486" y="822" on="0"/>
        <pt x="338" y="733" on="0"/>
        <pt x="305" y="643" on="1"/>
      </contour>
    </TTGlyph>
</ttFont>
